<?xml version="1.0" encoding="UTF-8"?>
<svg version="1.1" xmlns="http://www.w3.org/2000/svg" width="512" height="512">
<path d="M0 0 C0.80743652 0.20399414 1.61487305 0.40798828 2.44677734 0.61816406 C41.47069275 10.82544748 75.87243007 33.90163944 96.65625 68.9140625 C103.01015563 79.89798625 107.90583512 90.72196292 111.56713867 102.90698242 C113.05623722 107.74414353 114.49542354 111.20828387 118 115 C119.31395995 117.62791991 119.13189381 119.57958319 119.14044189 122.52371216 C119.14615204 123.6981488 119.15186218 124.87258545 119.15774536 126.08261108 C119.15886322 127.37808868 119.15998108 128.67356628 119.16113281 130.00830078 C119.16576072 131.38163385 119.17078535 132.75496562 119.17617798 134.1282959 C119.18932085 137.86880141 119.19575251 141.60928894 119.20018864 145.34981394 C119.20312094 147.69207277 119.20722642 150.03432672 119.21169281 152.3765831 C119.22538285 159.71929658 119.23503781 167.06199888 119.2388947 174.40472424 C119.24335642 182.85139074 119.2608095 191.29789389 119.2898953 199.74451077 C119.31163353 206.28742549 119.32160568 212.83029473 119.32293582 219.37324512 C119.32397673 223.27277014 119.32972826 227.17214193 119.34775543 231.07162857 C119.55112457 277.80425702 119.55112457 277.80425702 104.83984375 293.3203125 C95.89999858 301.48195458 86.91515225 303 75 303 C75 292.77 75 282.54 75 272 C77.31 271.34 79.62 270.68 82 270 C86.23875021 266.34590499 86.78070653 259.69742276 87.21295166 254.38058472 C87.32395307 251.53283887 87.38052851 248.68954626 87.4140625 245.83984375 C87.43342865 244.80936417 87.4527948 243.77888458 87.4727478 242.71717834 C87.53206126 239.45736719 87.57873466 236.19751978 87.625 232.9375 C87.66322423 230.71417814 87.70227848 228.49087038 87.7421875 226.26757812 C87.83772253 220.8451782 87.92290808 215.42269184 88 210 C86.64636353 210.02356567 86.64636353 210.02356567 85.26538086 210.04760742 C81.89015866 210.09899354 78.51535729 210.1364741 75.13989258 210.16479492 C73.68409632 210.17980313 72.22834468 210.20021633 70.77270508 210.22631836 C68.66997211 210.26305676 66.56784115 210.2798056 64.46484375 210.29296875 C62.57173462 210.31653442 62.57173462 210.31653442 60.64038086 210.34057617 C54.46942892 209.76325219 50.05306354 207.70155371 46 203 C45.98541748 204.05799805 45.97083496 205.11599609 45.95581055 206.20605469 C45.89718511 210.18733029 45.81996571 214.1680776 45.73754883 218.14892578 C45.70459803 219.8614027 45.67647658 221.57398045 45.65356445 223.28662109 C45.37740595 243.39331021 41.60848747 260.12550062 27 275 C22.17059702 279.26215461 17.32334673 283.41916332 11 285 C11 305.79 11 326.58 11 348 C24.38570596 347.92149085 24.38570596 347.92149085 37.77124023 347.81982422 C49.00493221 347.7627659 59.89048529 348.32110162 71 350 C71.94093506 350.14083008 72.88187012 350.28166016 73.85131836 350.42675781 C117.25507954 357.48089809 160.37512794 380.43538987 187 416 C187.39638672 416.52142578 187.79277344 417.04285156 188.20117188 417.58007812 C202.43237945 436.38480951 212.15203973 456.58064244 217 479.75 C217.20786133 480.71800537 217.41572266 481.68601074 217.62988281 482.68334961 C219.3628934 491.77710262 219 499.32078793 219 509 C50.04 509 -118.92 509 -293 509 C-293 473.11375911 -282.15419728 440.09245383 -258 413 C-257.24847656 412.14019531 -256.49695313 411.28039062 -255.72265625 410.39453125 C-253.51354307 407.89842217 -251.26680725 405.44370872 -249 403 C-248.13568359 402.03707031 -248.13568359 402.03707031 -247.25390625 401.0546875 C-217.52164026 369.40207471 -168.40547381 349.36473832 -125.45883179 347.91416931 C-122.8443423 347.88567758 -120.23177791 347.88709657 -117.6171875 347.90234375 C-116.3643396 347.90385437 -116.3643396 347.90385437 -115.08618164 347.90539551 C-112.01577346 347.91056172 -108.9453851 347.92452201 -105.875 347.9375 C-98.98625 347.958125 -92.0975 347.97875 -85 348 C-85 327.21 -85 306.42 -85 285 C-86.65 284.34 -88.3 283.68 -90 283 C-103.79998657 274.65728085 -113.10011412 262.29685235 -117.62109375 246.85546875 C-119.72461372 238.10501518 -119.57109976 229.20025693 -119.6875 220.25 C-119.72074447 218.47393429 -119.75524046 216.69789154 -119.79101562 214.921875 C-119.875093 210.61471196 -119.94228054 206.30759357 -120 202 C-120.515625 202.763125 -121.03125 203.52625 -121.5625 204.3125 C-125.09276457 208.20484299 -128.3843413 209.71941804 -133.50979614 210.26922607 C-136.48138196 210.39640404 -139.4359136 210.41582559 -142.41015625 210.3984375 C-144.03865761 210.40274277 -144.03865761 210.40274277 -145.70005798 210.40713501 C-147.98697432 210.40916977 -150.2739083 210.40368123 -152.56079102 210.39111328 C-156.05459574 210.37503637 -159.5472464 210.39099077 -163.04101562 210.41015625 C-165.26823171 210.40817402 -167.49544708 210.40433076 -169.72265625 210.3984375 C-171.28379906 210.40754654 -171.28379906 210.40754654 -172.8764801 210.4168396 C-179.09339579 210.35672639 -183.88598371 209.90690832 -188.64453125 205.46484375 C-192.51966873 200.39735628 -193.15456199 197.60106531 -193.17700195 191.34082031 C-193.18357315 190.55037323 -193.19014435 189.75992615 -193.19691467 188.94552612 C-193.21666519 186.32305816 -193.22831496 183.70064755 -193.23828125 181.078125 C-193.24235678 180.18277794 -193.2464323 179.28743088 -193.25063133 178.36495209 C-193.27150088 173.62481414 -193.285798 168.88470522 -193.29516602 164.14453125 C-193.30622432 159.25067574 -193.34061489 154.3572757 -193.38033772 149.46358109 C-193.4064992 145.69914918 -193.4148575 141.93482579 -193.41844749 138.17031097 C-193.42331572 136.36661457 -193.43493645 134.56292308 -193.45348549 132.75931549 C-193.47786438 130.23143091 -193.47691435 127.70472425 -193.4699707 125.17675781 C-193.48278076 124.434711 -193.49559082 123.69266418 -193.50878906 122.9281311 C-193.45755785 117.7980994 -192.11184832 115.01363132 -189 111 C-188.03607572 108.99359634 -188.03607572 108.99359634 -187.41796875 107.09375 C-187.17868652 106.41441406 -186.9394043 105.73507813 -186.69287109 105.03515625 C-186.46422363 104.36355469 -186.23557617 103.69195312 -186 103 C-171.38826985 61.96646874 -145.73038434 30.34091881 -106.14453125 11.10546875 C-95.81324688 6.25731188 -85.05263787 2.79238466 -74 0 C-73.28666504 -0.18079102 -72.57333008 -0.36158203 -71.83837891 -0.54785156 C-49.83196837 -5.77288083 -21.90562501 -5.55186611 0 0 Z M-94 41 C-95.49273437 41.72509766 -95.49273437 41.72509766 -97.015625 42.46484375 C-121.61912388 55.1532196 -142.73591382 78.21083874 -153 104 C-153 104.99 -153 105.98 -153 107 C-152.30438965 107.01458252 -151.6087793 107.02916504 -150.89208984 107.04418945 C-147.71918662 107.11897969 -144.54729992 107.21553812 -141.375 107.3125 C-140.28058594 107.33505859 -139.18617188 107.35761719 -138.05859375 107.38085938 C-127.57617368 107.73027338 -127.57617368 107.73027338 -123 111 C-120.625 113.6875 -120.625 113.6875 -119 116 C-118.79246094 115.00742188 -118.58492187 114.01484375 -118.37109375 112.9921875 C-114.44446602 95.2442701 -106.91648173 80.31202319 -91.4375 70 C-78.92962204 62.69781557 -67.03328043 60.69093619 -52.6796875 60.6640625 C-51.4222171 60.6574057 -50.1647467 60.6507489 -48.86917114 60.64389038 C-46.21829984 60.63380759 -43.56783925 60.62820132 -40.91699219 60.62939453 C-38.23279752 60.62955664 -35.54928848 60.61572794 -32.86523438 60.58837891 C-9.91046373 60.37123918 10.15464906 60.88160482 27.71484375 77.5234375 C37.66758001 88.30982175 42.19532978 101.86263793 45 116 C45.53625 115.236875 46.0725 114.47375 46.625 113.6875 C49.95535285 109.91894283 52.66847749 108.27486106 57.72949219 107.67822266 C60.94653712 107.48151871 64.15269677 107.37891968 67.375 107.3125 C68.49261719 107.27833984 69.61023438 107.24417969 70.76171875 107.20898438 C73.50771222 107.12683927 76.25339982 107.05757872 79 107 C75.12417112 84.54199405 53.70053509 63.02320228 35.78662109 50.22265625 C30.72932607 46.76174705 25.43646524 43.81752879 20 41 C18.95328125 40.45601562 17.9065625 39.91203125 16.828125 39.3515625 C-18.56624245 22.00656154 -59.02023055 23.93017801 -94 41 Z " fill="#FEBCA8" transform="translate(293,3)"/>
<path d="M0 0 C1.41042068 0.00212242 1.41042068 0.00212242 2.84933472 0.00428772 C5.81365318 0.00982617 8.77789238 0.02236663 11.7421875 0.03515625 C13.76822807 0.04017922 15.79426983 0.04474072 17.8203125 0.04882812 C22.75263409 0.05977533 27.68489742 0.07699644 32.6171875 0.09765625 C32.81344727 1.04664795 33.00970703 1.99563965 33.21191406 2.97338867 C33.47456055 4.22482666 33.73720703 5.47626465 34.0078125 6.765625 C34.26594727 8.0033667 34.52408203 9.2411084 34.79003906 10.51635742 C37.75172278 23.3395388 44.87952612 33.43479745 55.6171875 41.09765625 C67.15435152 47.33396112 77.8485704 50.12074263 90.91796875 47.4140625 C104.45603275 43.18232006 115.24813595 35.36341183 122.30078125 22.94921875 C125.64555168 15.70387035 127.34753621 7.9389349 128.6171875 0.09765625 C134.42975669 0.04749134 140.24219455 0.01158251 146.05493164 -0.01220703 C148.02435507 -0.02214471 149.99376423 -0.03569951 151.96313477 -0.05322266 C164.34896864 -0.16051396 176.36233075 0.24567084 188.6171875 2.09765625 C189.55812256 2.23848633 190.49905762 2.37931641 191.46850586 2.52441406 C234.87226704 9.57855434 277.99231544 32.53304612 304.6171875 68.09765625 C305.01357422 68.61908203 305.40996094 69.14050781 305.81835938 69.67773438 C320.04956695 88.48246576 329.76922723 108.67829869 334.6171875 131.84765625 C334.82504883 132.81566162 335.03291016 133.78366699 335.24707031 134.78100586 C336.9800809 143.87475887 336.6171875 151.41844418 336.6171875 161.09765625 C167.6571875 161.09765625 -1.3028125 161.09765625 -175.3828125 161.09765625 C-175.3828125 125.21141536 -164.53700978 92.19011008 -140.3828125 65.09765625 C-139.63128906 64.23785156 -138.87976563 63.37804687 -138.10546875 62.4921875 C-135.89635557 59.99607842 -133.64961975 57.54136497 -131.3828125 55.09765625 C-130.80660156 54.45570313 -130.23039062 53.81375 -129.63671875 53.15234375 C-97.88878902 19.35387958 -45.73216297 -0.2655202 0 0 Z " fill="#0D90BB" transform="translate(175.3828125,350.90234375)"/>
<path d="M0 0 C1.41042068 0.00212242 1.41042068 0.00212242 2.84933472 0.00428772 C5.81365318 0.00982617 8.77789238 0.02236663 11.7421875 0.03515625 C13.76822807 0.04017922 15.79426983 0.04474072 17.8203125 0.04882812 C22.75263409 0.05977533 27.68489742 0.07699644 32.6171875 0.09765625 C32.81344727 1.04664795 33.00970703 1.99563965 33.21191406 2.97338867 C33.47456055 4.22482666 33.73720703 5.47626465 34.0078125 6.765625 C34.26594727 8.0033667 34.52408203 9.2411084 34.79003906 10.51635742 C37.76134784 23.38121235 44.89505943 33.36926348 55.6171875 41.09765625 C64.11280109 46.01616938 70.58541994 47.42569499 80.6171875 49.09765625 C80.6171875 86.05765625 80.6171875 123.01765625 80.6171875 161.09765625 C-3.8628125 161.09765625 -88.3428125 161.09765625 -175.3828125 161.09765625 C-175.3828125 125.21141536 -164.53700978 92.19011008 -140.3828125 65.09765625 C-139.63128906 64.23785156 -138.87976563 63.37804687 -138.10546875 62.4921875 C-135.89635557 59.99607842 -133.64961975 57.54136497 -131.3828125 55.09765625 C-130.80660156 54.45570313 -130.23039062 53.81375 -129.63671875 53.15234375 C-97.88878902 19.35387958 -45.73216297 -0.2655202 0 0 Z " fill="#0FA8DC" transform="translate(175.3828125,350.90234375)"/>
<path d="M0 0 C0.80743652 0.20399414 1.61487305 0.40798828 2.44677734 0.61816406 C41.47069275 10.82544748 75.87243007 33.90163944 96.65625 68.9140625 C103.01015563 79.89798625 107.90583512 90.72196292 111.56713867 102.90698242 C113.05623722 107.74414353 114.49542354 111.20828387 118 115 C119.31395995 117.62791991 119.13189381 119.57958319 119.14044189 122.52371216 C119.14615204 123.6981488 119.15186218 124.87258545 119.15774536 126.08261108 C119.15886322 127.37808868 119.15998108 128.67356628 119.16113281 130.00830078 C119.16576072 131.38163385 119.17078535 132.75496562 119.17617798 134.1282959 C119.18932085 137.86880141 119.19575251 141.60928894 119.20018864 145.34981394 C119.20312094 147.69207277 119.20722642 150.03432672 119.21169281 152.3765831 C119.22538285 159.71929658 119.23503781 167.06199888 119.2388947 174.40472424 C119.24335642 182.85139074 119.2608095 191.29789389 119.2898953 199.74451077 C119.31163353 206.28742549 119.32160568 212.83029473 119.32293582 219.37324512 C119.32397673 223.27277014 119.32972826 227.17214193 119.34775543 231.07162857 C119.55112457 277.80425702 119.55112457 277.80425702 104.83984375 293.3203125 C95.89999858 301.48195458 86.91515225 303 75 303 C75 292.77 75 282.54 75 272 C77.31 271.34 79.62 270.68 82 270 C86.23875021 266.34590499 86.78070653 259.69742276 87.21295166 254.38058472 C87.32395307 251.53283887 87.38052851 248.68954626 87.4140625 245.83984375 C87.43342865 244.80936417 87.4527948 243.77888458 87.4727478 242.71717834 C87.53206126 239.45736719 87.57873466 236.19751978 87.625 232.9375 C87.66322423 230.71417814 87.70227848 228.49087038 87.7421875 226.26757812 C87.83772253 220.8451782 87.92290808 215.42269184 88 210 C86.64636353 210.02356567 86.64636353 210.02356567 85.26538086 210.04760742 C81.89015866 210.09899354 78.51535729 210.1364741 75.13989258 210.16479492 C73.68409632 210.17980313 72.22834468 210.20021633 70.77270508 210.22631836 C68.66997211 210.26305676 66.56784115 210.2798056 64.46484375 210.29296875 C62.57173462 210.31653442 62.57173462 210.31653442 60.64038086 210.34057617 C55.0385972 209.81650078 51.38286181 208.34249672 47.33032227 204.4082489 C44.41921829 200.75605792 44.29949474 197.14512708 44.36889648 192.61132812 C44.35816353 191.38089027 44.35816353 191.38089027 44.34721375 190.12559509 C44.33037049 187.42690528 44.34970275 184.72988703 44.37109375 182.03125 C44.37026464 180.1484768 44.36780369 178.26570367 44.36378479 176.38293457 C44.36092979 172.4420791 44.37559885 168.50179291 44.40307617 164.56103516 C44.43715843 159.51696268 44.43113791 154.47390787 44.4124136 149.42978668 C44.40183034 145.54347292 44.41079348 141.65739477 44.42579842 137.77110291 C44.43097095 135.91162313 44.43050972 134.05211866 44.42425346 132.19264221 C44.41878517 129.59078312 44.439227 126.99036646 44.46655273 124.38867188 C44.45676392 123.2429496 44.45676392 123.2429496 44.44677734 122.07408142 C44.53863471 116.91411118 45.74554702 113.97656978 49 110 C54.49790959 105.86356013 60.80954605 106.66170335 67.375 106.8125 C69.05142578 106.83280273 69.05142578 106.83280273 70.76171875 106.85351562 C73.50831211 106.88872836 76.25390289 106.93797904 79 107 C64.17819734 73.72978339 41.07774142 49.6059263 7 36 C1.41964206 33.98207132 -4.23961334 32.41180107 -10 31 C-10.94746094 30.76667969 -11.89492188 30.53335938 -12.87109375 30.29296875 C-40.52525163 24.44224128 -68.90832872 29.75548356 -94 42 C-94.99515625 42.48339844 -95.9903125 42.96679688 -97.015625 43.46484375 C-123.57049118 57.15956759 -141.39221788 80.07257745 -153 107 C-151.9644397 106.9685791 -151.9644397 106.9685791 -150.90795898 106.93652344 C-147.75129007 106.85288905 -144.59485498 106.80119047 -141.4375 106.75 C-140.35146484 106.71648437 -139.26542969 106.68296875 -138.14648438 106.6484375 C-131.5245324 106.56792745 -127.27354115 106.83779571 -122 111 C-118.71191366 115.22292907 -118.56036098 119.11199827 -118.58007812 124.27514648 C-118.57160858 125.09529236 -118.56313904 125.91543823 -118.55441284 126.76043701 C-118.53106618 129.46414818 -118.53002008 132.16728952 -118.53125 134.87109375 C-118.52414723 136.75529711 -118.51644806 138.6394983 -118.50817871 140.5236969 C-118.49473943 144.47036758 -118.49316275 148.41683824 -118.49902344 152.36352539 C-118.50492033 157.41553283 -118.47432595 162.46657953 -118.43390656 167.51840115 C-118.40802978 171.40897268 -118.40515209 175.29931284 -118.40879822 179.18995857 C-118.40710708 181.05226113 -118.39746517 182.91457438 -118.37965393 184.77679253 C-118.35746299 187.38366492 -118.36716547 189.988592 -118.38476562 192.59545898 C-118.37150238 193.36084488 -118.35823914 194.12623077 -118.34457397 194.91481018 C-118.43581271 200.74482629 -119.98023904 203.07850679 -124 207 C-129.96017905 210.55779731 -135.5906692 210.43830575 -142.41015625 210.3984375 C-144.03865761 210.40274277 -144.03865761 210.40274277 -145.70005798 210.40713501 C-147.98697432 210.40916977 -150.2739083 210.40368123 -152.56079102 210.39111328 C-156.05459574 210.37503637 -159.5472464 210.39099077 -163.04101562 210.41015625 C-165.26823171 210.40817402 -167.49544708 210.40433076 -169.72265625 210.3984375 C-171.28379906 210.40754654 -171.28379906 210.40754654 -172.8764801 210.4168396 C-179.09339579 210.35672639 -183.88598371 209.90690832 -188.64453125 205.46484375 C-192.51966873 200.39735628 -193.15456199 197.60106531 -193.17700195 191.34082031 C-193.18357315 190.55037323 -193.19014435 189.75992615 -193.19691467 188.94552612 C-193.21666519 186.32305816 -193.22831496 183.70064755 -193.23828125 181.078125 C-193.24235678 180.18277794 -193.2464323 179.28743088 -193.25063133 178.36495209 C-193.27150088 173.62481414 -193.285798 168.88470522 -193.29516602 164.14453125 C-193.30622432 159.25067574 -193.34061489 154.3572757 -193.38033772 149.46358109 C-193.4064992 145.69914918 -193.4148575 141.93482579 -193.41844749 138.17031097 C-193.42331572 136.36661457 -193.43493645 134.56292308 -193.45348549 132.75931549 C-193.47786438 130.23143091 -193.47691435 127.70472425 -193.4699707 125.17675781 C-193.48278076 124.434711 -193.49559082 123.69266418 -193.50878906 122.9281311 C-193.45755785 117.7980994 -192.11184832 115.01363132 -189 111 C-188.03607572 108.99359634 -188.03607572 108.99359634 -187.41796875 107.09375 C-187.17868652 106.41441406 -186.9394043 105.73507813 -186.69287109 105.03515625 C-186.46422363 104.36355469 -186.23557617 103.69195312 -186 103 C-171.38826985 61.96646874 -145.73038434 30.34091881 -106.14453125 11.10546875 C-95.81324688 6.25731188 -85.05263787 2.79238466 -74 0 C-73.28666504 -0.18079102 -72.57333008 -0.36158203 -71.83837891 -0.54785156 C-49.83196837 -5.77288083 -21.90562501 -5.55186611 0 0 Z " fill="#032F3D" transform="translate(293,3)"/>
<path d="M0 0 C4.22115961 1.48289808 7.69935753 3.69571571 11.375 6.1875 C32.50636683 20.04945288 52.17298834 23.13033204 78 26 C78 81.44 78 136.88 78 194 C32.63529412 194 32.63529412 194 14 178 C0.73816316 164.44669422 -4.48814903 148.76022191 -4.38818359 130.078125 C-4.39344055 128.84719116 -4.39869751 127.61625732 -4.40411377 126.34802246 C-4.41496627 123.00899103 -4.41254839 119.67052598 -4.40297651 116.33152771 C-4.39530567 112.81378498 -4.4024459 109.29606413 -4.40713501 105.77832031 C-4.41257119 99.87430551 -4.40545749 93.97040382 -4.39111328 88.06640625 C-4.37479083 81.27030496 -4.38008087 74.47447381 -4.3965925 67.67837906 C-4.41026872 61.81130815 -4.41209725 55.94431789 -4.40427649 50.07723618 C-4.39963347 46.58713106 -4.39888093 43.09715232 -4.40888596 39.60705566 C-4.41927509 35.71189117 -4.40481863 31.81702185 -4.38818359 27.921875 C-4.39425629 26.78697632 -4.40032898 25.65207764 -4.40658569 24.48278809 C-4.33886675 15.86797163 -2.71864236 8.15592709 0 0 Z " fill="#FECBBC" transform="translate(178,100)"/>
<path d="M0 0 C1.10453522 -0.00287018 2.20907043 -0.00574036 3.34707642 -0.00869751 C5.67865513 -0.01073483 8.01025106 -0.00522828 10.34179688 0.00732422 C13.89492409 0.02335117 17.4469085 0.00747917 21 -0.01171875 C23.27083583 -0.00973566 25.54167095 -0.00589063 27.8125 0 C28.86795013 -0.00607269 29.92340027 -0.01214539 31.01083374 -0.0184021 C37.21745843 0.04022695 41.91334643 0.70808721 47.5390625 3.3984375 C51.55512441 7.62045131 52.66287806 10.19571433 52.67950439 15.92214966 C52.68521454 17.0965863 52.69092468 18.27102295 52.69680786 19.48104858 C52.69848465 21.42426498 52.69848465 21.42426498 52.70019531 23.40673828 C52.70482322 24.78007135 52.70984785 26.15340312 52.71524048 27.5267334 C52.72838335 31.26723891 52.73481501 35.00772644 52.73925114 38.74825144 C52.74218344 41.09051027 52.74628892 43.43276422 52.75075531 45.7750206 C52.76444535 53.11773408 52.77410031 60.46043638 52.7779572 67.80316174 C52.78241892 76.24982824 52.799872 84.69633139 52.8289578 93.14294827 C52.85069603 99.68586299 52.86066818 106.22873223 52.86199832 112.77168262 C52.86303923 116.67120764 52.86879076 120.57057943 52.88681793 124.47006607 C53.09018707 171.20269452 53.09018707 171.20269452 38.37890625 186.71875 C29.43906108 194.88039208 20.45421475 196.3984375 8.5390625 196.3984375 C8.5390625 186.1684375 8.5390625 175.9384375 8.5390625 165.3984375 C12.0040625 164.4084375 12.0040625 164.4084375 15.5390625 163.3984375 C19.77781271 159.74434249 20.31976903 153.09586026 20.75201416 147.77902222 C20.86301557 144.93127637 20.91959101 142.08798376 20.953125 139.23828125 C20.97249115 138.20780167 20.9918573 137.17732208 21.0118103 136.11561584 C21.07112376 132.85580469 21.11779716 129.59595728 21.1640625 126.3359375 C21.20228673 124.11261564 21.24134098 121.88930788 21.28125 119.66601562 C21.37678503 114.2436157 21.46197058 108.82112934 21.5390625 103.3984375 C20.63663818 103.41414795 19.73421387 103.4298584 18.80444336 103.44604492 C15.42922116 103.49743104 12.05441979 103.5349116 8.67895508 103.56323242 C7.22315882 103.57824063 5.76740718 103.59865383 4.31176758 103.62475586 C2.20903461 103.66149426 0.10690365 103.6782431 -1.99609375 103.69140625 C-3.88920288 103.71497192 -3.88920288 103.71497192 -5.82055664 103.73901367 C-11.4223403 103.21493828 -15.07807569 101.74093422 -19.13061523 97.8066864 C-22.04171921 94.15449542 -22.16144276 90.54356458 -22.09204102 86.00976562 C-22.09919632 85.18947372 -22.10635162 84.36918182 -22.11372375 83.52403259 C-22.13056701 80.82534278 -22.11123475 78.12832453 -22.08984375 75.4296875 C-22.09067286 73.5469143 -22.09313381 71.66414117 -22.09715271 69.78137207 C-22.10000771 65.8405166 -22.08533865 61.90023041 -22.05786133 57.95947266 C-22.02377907 52.91540018 -22.02979959 47.87234537 -22.0485239 42.82822418 C-22.05910716 38.94191042 -22.05014402 35.05583227 -22.03513908 31.16954041 C-22.02996655 29.31006063 -22.03042778 27.45055616 -22.03668404 25.59107971 C-22.04215233 22.98922062 -22.0217105 20.38880396 -21.99438477 17.78710938 C-22.00091064 17.02329453 -22.00743652 16.25947968 -22.01416016 15.47251892 C-21.92231538 10.3132557 -20.71939895 7.37195183 -17.4609375 3.3984375 C-12.11140949 -0.50777981 -6.35748105 -0.03643896 0 0 Z " fill="#0C8FBB" transform="translate(359.4609375,109.6015625)"/>
<path d="M0 0 C0.556875 0.19335938 1.11375 0.38671875 1.6875 0.5859375 C11.60889807 3.97127941 19.83433403 5.30053395 30.3359375 5.265625 C31.61046783 5.26753845 32.88499817 5.2694519 34.19815063 5.27142334 C36.88614671 5.27278047 39.57377551 5.27013413 42.26171875 5.26074219 C45.67967114 5.24937169 49.09730849 5.25590261 52.51524925 5.26788712 C55.80965601 5.27692215 59.1040266 5.27056348 62.3984375 5.265625 C63.61228119 5.26967346 64.82612488 5.27372192 66.07675171 5.27789307 C76.69789398 5.21990213 85.91924705 3.21726158 96 0 C96.09331322 8.75462059 96.16407212 17.50906596 96.20724869 26.26407814 C96.22798741 30.33085515 96.25604856 34.39728811 96.30175781 38.46386719 C96.34571242 42.39966512 96.36923976 46.33513539 96.37950897 50.27116013 C96.38681257 51.76124596 96.40107021 53.251317 96.42292023 54.74126053 C96.66451476 71.92300434 92.71084215 85.77306339 80.9375 98.75 C70.83351833 108.40337529 57.53626208 112.5292662 43.78515625 112.3125 C31.41377055 111.29112657 20.40461884 104.27367888 12.03515625 95.40234375 C1.35954121 82.80061007 -0.62420913 68.46706679 -0.390625 52.5390625 C-0.38314057 51.01208243 -0.3774581 49.48509258 -0.37347412 47.95809937 C-0.35839047 43.98942316 -0.31926434 40.02135694 -0.2746582 36.05291748 C-0.2333265 31.98327886 -0.21538324 27.91353917 -0.1953125 23.84375 C-0.15274777 15.89555716 -0.08471411 7.947855 0 0 Z " fill="#F8A58D" transform="translate(208,288)"/>
<path d="M0 0 C1.14988403 -0.0038269 2.29976807 -0.00765381 3.48449707 -0.01159668 C5.90845621 -0.0143109 8.33244487 -0.00698427 10.75634766 0.00976562 C14.45672191 0.03118039 18.15515456 0.00994528 21.85546875 -0.015625 C24.2161501 -0.01298164 26.57683024 -0.00785649 28.9375 0 C30.03872192 -0.00809692 31.13994385 -0.01619385 32.27453613 -0.02453613 C38.69849303 0.05349773 42.83026173 0.54148565 47.96875 4.53125 C51.25955886 8.75144693 51.40838439 12.64446195 51.38867188 17.80639648 C51.39714142 18.62654236 51.40561096 19.44668823 51.41433716 20.29168701 C51.43768382 22.99539818 51.43872992 25.69853952 51.4375 28.40234375 C51.44460277 30.28654711 51.45230194 32.1707483 51.46057129 34.0549469 C51.47401057 38.00161758 51.47558725 41.94808824 51.46972656 45.89477539 C51.46382967 50.94678283 51.49442405 55.99782953 51.53484344 61.04965115 C51.56072022 64.94022268 51.56359791 68.83056284 51.55995178 72.72120857 C51.56164292 74.58351113 51.57128483 76.44582438 51.58909607 78.30804253 C51.61128701 80.91491492 51.60158453 83.519842 51.58398438 86.12670898 C51.59724762 86.89209488 51.61051086 87.65748077 51.62417603 88.44606018 C51.53293729 94.27607629 49.98851096 96.60975679 45.96875 100.53125 C40.00857095 104.08904731 34.3780808 103.96955575 27.55859375 103.9296875 C26.47292618 103.93255768 25.38725861 103.93542786 24.26869202 103.93838501 C21.98177568 103.94041977 19.6948417 103.93493123 17.40795898 103.92236328 C13.91415426 103.90628637 10.4215036 103.92224077 6.92773438 103.94140625 C4.70051829 103.93942402 2.47330292 103.93558076 0.24609375 103.9296875 C-1.31504906 103.93879654 -1.31504906 103.93879654 -2.9077301 103.9480896 C-9.12464579 103.88797639 -13.91723371 103.43815832 -18.67578125 98.99609375 C-22.55091873 93.92860628 -23.18581199 91.13231531 -23.20825195 84.87207031 C-23.21482315 84.08162323 -23.22139435 83.29117615 -23.22816467 82.47677612 C-23.24791519 79.85430816 -23.25956496 77.23189755 -23.26953125 74.609375 C-23.27360678 73.71402794 -23.2776823 72.81868088 -23.28188133 71.89620209 C-23.30275088 67.15606414 -23.317048 62.41595522 -23.32641602 57.67578125 C-23.33747432 52.78192574 -23.37186489 47.8885257 -23.41158772 42.99483109 C-23.4377492 39.23039918 -23.4461075 35.46607579 -23.44969749 31.70156097 C-23.45456572 29.89786457 -23.46618645 28.09417308 -23.48473549 26.29056549 C-23.50911438 23.76268091 -23.50816435 21.23597425 -23.5012207 18.70800781 C-23.51403076 17.965961 -23.52684082 17.22391418 -23.54003906 16.4593811 C-23.48892677 11.34125757 -22.25558585 8.46874847 -19.03125 4.53125 C-13.00277527 -0.17763678 -7.46046111 -0.05485433 0 0 Z " fill="#0EA7DB" transform="translate(123.03125,109.46875)"/>
<path d="M0 0 C1.8862056 -0.0099852 1.8862056 -0.0099852 3.81051636 -0.02017212 C6.46138766 -0.03025491 9.11184825 -0.03586118 11.76269531 -0.03466797 C14.44688998 -0.03450586 17.13039902 -0.04833456 19.81445312 -0.07568359 C42.87233035 -0.29379865 62.73650473 0.26231686 80.38671875 16.90234375 C84.99328717 21.79142744 92.6796875 30.14414144 92.6796875 37.3359375 C67.31521038 58.27031759 34.14422715 65.52358445 1.95703125 63.13378906 C-21.50999878 60.78885582 -42.84907747 51.97728362 -61.3203125 37.3359375 C-57.27641272 23.35677126 -45.64245138 13.17778809 -33.3203125 6.3359375 C-22.52776739 1.07048368 -11.89074878 0.0222626 0 0 Z " fill="#04303E" transform="translate(240.3203125,62.6640625)"/>
<path d="M0 0 C2.805 0.020625 5.61 0.04125 8.5 0.0625 C8.5 9.9625 8.5 19.8625 8.5 30.0625 C5.7961712 31.4144144 3.15383417 31.37949366 0.17871094 31.60620117 C-17.22981093 32.97893363 -32.83418991 37.41772149 -48.5 45.0625 C-49.49515625 45.54589844 -50.4903125 46.02929688 -51.515625 46.52734375 C-78.07049118 60.22206759 -95.89221788 83.13507745 -107.5 110.0625 C-108.35231201 110.08231934 -109.20462402 110.10213867 -110.08276367 110.12255859 C-113.26058324 110.20089504 -116.43803582 110.28759665 -119.61547852 110.37988281 C-120.98778581 110.41804288 -122.36018871 110.45291796 -123.73266602 110.484375 C-125.7113229 110.53030682 -127.68966442 110.58923637 -129.66796875 110.6484375 C-131.45110474 110.69556885 -131.45110474 110.69556885 -133.27026367 110.74365234 C-136.39841328 111.0524711 -138.67113759 111.7331912 -141.5 113.0625 C-140.33480699 106.13006035 -138.53776751 99.81335209 -135.875 93.3125 C-135.34495361 92.00998291 -135.34495361 92.00998291 -134.80419922 90.68115234 C-119.5667992 54.11814945 -90.17529554 26.77897591 -54.15332031 11.15380859 C-37.03458309 4.1128852 -18.53945701 -0.19469876 0 0 Z " fill="#06485D" transform="translate(247.5,-0.0625)"/>
<path d="M0 0 C0.09331322 8.75462059 0.16407212 17.50906596 0.20724869 26.26407814 C0.22798741 30.33085515 0.25604856 34.39728811 0.30175781 38.46386719 C0.34571242 42.39966512 0.36923976 46.33513539 0.37950897 50.27116013 C0.38681257 51.76124596 0.40107021 53.251317 0.42292023 54.74126053 C0.66451476 71.92300434 -3.28915785 85.77306339 -15.0625 98.75 C-23.917921 107.21049656 -35.85616162 112 -48 112 C-48 77.02 -48 42.04 -48 6 C-38.76 5.67 -29.52 5.34 -20 5 C-12.26662561 3.54755056 -12.26662561 3.54755056 -4.9375 1.375 C-1.06435644 0 -1.06435644 0 0 0 Z " fill="#DE9280" transform="translate(304,288)"/>
<path d="M0 0 C0 20.79 0 41.58 0 63 C-28.73207783 63 -54.38063044 54.92939229 -77 37 C-72.95610022 23.02083376 -61.32213888 12.84185059 -49 6 C-33.17877838 -1.71883843 -17.96857725 0 0 0 Z " fill="#07485E" transform="translate(256,63)"/>
<path d="M0 0 C0.33 0 0.66 0 1 0 C1.07018549 7.67700887 1.1231532 15.35398359 1.15543652 23.03124237 C1.17094797 26.59793099 1.19191225 30.16439667 1.22631836 33.73095703 C1.65759535 79.69196179 1.65759535 79.69196179 -13.16015625 95.3203125 C-22.10000142 103.48195458 -31.08484775 105 -43 105 C-43 94.77 -43 84.54 -43 74 C-39.535 73.01 -39.535 73.01 -36 72 C-31.74988011 68.33610355 -31.21395097 61.67070789 -30.78704834 56.34176636 C-30.6758776 53.43405874 -30.61943038 50.53072534 -30.5859375 47.62109375 C-30.55688828 46.04208031 -30.55688828 46.04208031 -30.5272522 44.4311676 C-30.46792253 41.10002506 -30.42125867 37.76884708 -30.375 34.4375 C-30.33677728 32.16600134 -30.29772311 29.89451651 -30.2578125 27.62304688 C-30.16225985 22.08215487 -30.07707879 16.54117816 -30 11 C-29.42032471 10.98541748 -28.84064941 10.97083496 -28.2434082 10.95581055 C-25.59912447 10.88101472 -22.95605998 10.78446102 -20.3125 10.6875 C-19.40048828 10.66494141 -18.48847656 10.64238281 -17.54882812 10.61914062 C-12.60325583 10.42131773 -8.99255265 10.23467083 -5 7 C-3.01324604 4.73730799 -1.34583653 2.69167305 0 0 Z " fill="#03303E" transform="translate(411,201)"/>
<path d="M0 0 C19.47 0 38.94 0 59 0 C59 9.9 59 19.8 59 30 C39.53 30 20.06 30 0 30 C0 20.1 0 10.2 0 0 Z " fill="#F2F4F7" transform="translate(111,419)"/>
</svg>
