<?xml version="1.0" encoding="UTF-8"?>
<svg version="1.1" xmlns="http://www.w3.org/2000/svg" width="512" height="512">
<path d="M0 0 C132.0588374 -7.35811704 132.0588374 -7.35811704 168.59375 -5.5546875 C170.41001105 -5.46887177 170.41001105 -5.46887177 172.26296425 -5.38132238 C216.22177602 -3.22114113 254.96090009 2.75580942 286.5625 35.4375 C287.02825723 35.914889 287.49401445 36.392278 287.97388554 36.88413334 C327.83503418 78.10030914 326.93226565 136.75073935 326.08350754 190.73753738 C325.44103353 223.23549618 323.12265314 255.65390118 320 288 C321.02534851 287.99311157 322.05069702 287.98622314 323.1071167 287.97912598 C324.46822038 287.97355429 325.82932477 287.96815143 327.19042969 287.96289062 C328.20132156 287.95542816 328.20132156 287.95542816 329.2326355 287.94781494 C334.40553187 287.93283589 339.21512754 288.35824178 344.25 289.5 C345.03592529 289.67378174 345.82185059 289.84756348 346.6315918 290.02661133 C375.68281586 296.9597816 400.67364875 315.78732731 416.57421875 340.87890625 C431.90289124 366.19102428 436.76635462 398.56714038 429.97460938 427.41943359 C422.05402685 457.02951827 403.15246363 481.95459849 377.01171875 497.84960938 C359.56355512 507.82724858 340.42691827 512.40294302 320.4375 512.375 C319.44879913 512.37418427 319.44879913 512.37418427 318.44012451 512.37335205 C307.45898186 512.33181094 297.4433628 511.38494788 287 508 C285.9776123 507.67854004 285.9776123 507.67854004 284.93457031 507.35058594 C270.70648121 502.76798059 258.31387598 495.81286424 247 486 C246.19175781 485.33613281 245.38351562 484.67226563 244.55078125 483.98828125 C239.64032535 479.81786266 235.39156165 475.32847464 231.375 470.3125 C230.95613525 469.7973584 230.53727051 469.2822168 230.10571289 468.75146484 C225.27456288 462.51862182 222.00776274 456.01358479 218 449 C110.09 448.505 110.09 448.505 0 448 C0 300.16 0 152.32 0 0 Z " fill="#E5E7F1" transform="translate(40,0)"/>
<path d="M0 0 C52.8 0 105.6 0 160 0 C160 59.4 160 118.8 160 180 C124.69 180 89.38 180 53 180 C53 190.23 53 200.46 53 211 C88.31 211 123.62 211 160 211 C160 220.9 160 230.8 160 241 C124.69 241 89.38 241 53 241 C53 250.9 53 260.8 53 271 C88.31 271 123.62 271 160 271 C160 280.9 160 290.8 160 301 C124.69 301 89.38 301 53 301 C53 311.23 53 321.46 53 332 C88.31 332 123.62 332 160 332 C160 370.28 160 408.56 160 448 C107.2 448 54.4 448 0 448 C0 300.16 0 152.32 0 0 Z " fill="#FEF4F4" transform="translate(40,0)"/>
<path d="M0 0 C21.31745164 18.39046871 34.08144201 42.79985224 38.1875 70.5625 C40.18010612 105.83849938 32.69493811 135.84428306 8.92578125 162.6015625 C-9.04820498 182.27927391 -35.41337683 196.03118329 -62.21850586 197.78540039 C-65.94007276 197.9023228 -69.65160242 197.9427049 -73.375 197.9375 C-74.36370087 197.93668427 -74.36370087 197.93668427 -75.37237549 197.93585205 C-86.35351814 197.89431094 -96.3691372 196.94744788 -106.8125 193.5625 C-107.4940918 193.34819336 -108.17568359 193.13388672 -108.87792969 192.91308594 C-123.10601879 188.33048059 -135.49862402 181.37536424 -146.8125 171.5625 C-147.62074219 170.89863281 -148.42898438 170.23476563 -149.26171875 169.55078125 C-162.64061556 158.1881703 -174.02888256 142.56799715 -178.8125 125.5625 C-179.43867062 123.65772936 -180.06501752 121.75301539 -180.69384766 119.84912109 C-184.44309196 108.29499832 -185.97633566 97.67048174 -186.0625 85.5 C-186.07192627 84.49453125 -186.08135254 83.4890625 -186.09106445 82.453125 C-185.96218683 52.68968787 -172.6019866 25.45749055 -151.9375 4.625 C-110.16216808 -36.07433241 -44.05566871 -36.70343391 0 0 Z " fill="#0AC977" transform="translate(433.8125,314.4375)"/>
<path d="M0 0 C70.62 0 141.24 0 214 0 C214 9.9 214 19.8 214 30 C143.38 30 72.76 30 0 30 C0 20.1 0 10.2 0 0 Z " fill="#3E3B58" transform="translate(93,241)"/>
<path d="M0 0 C70.62 0 141.24 0 214 0 C214 9.9 214 19.8 214 30 C143.38 30 72.76 30 0 30 C0 20.1 0 10.2 0 0 Z " fill="#59567E" transform="translate(93,181)"/>
<path d="M0 0 C9.9 0 19.8 0 30 0 C30 13.86 30 27.72 30 42 C43.86 42 57.72 42 72 42 C72 51.9 72 61.8 72 72 C58.14 72 44.28 72 30 72 C30 85.86 30 99.72 30 114 C20.1 114 10.2 114 0 114 C0 100.14 0 86.28 0 72 C-13.86 72 -27.72 72 -42 72 C-42 62.1 -42 52.2 -42 42 C-28.14 42 -14.28 42 0 42 C0 28.14 0 14.28 0 0 Z " fill="#E6E8F2" transform="translate(345,343)"/>
<path d="M0 0 C7.87529995 6.7502571 7.87529995 6.7502571 11.2205658 10.09358215 C11.97904816 10.84924469 12.73753052 11.60490723 13.51899719 12.38346863 C14.72957039 13.59707817 14.72957039 13.59707817 15.96459961 14.83520508 C16.83368958 15.70254272 17.70277954 16.56988037 18.59820557 17.46350098 C20.96116998 19.82283935 23.32188962 22.18437823 25.68144679 24.54712129 C28.15563986 27.02385938 30.63228678 29.49814184 33.10853577 31.9728241 C37.25848187 36.12095678 41.4063276 40.27118091 45.55297852 44.42260742 C50.35171122 49.22680271 55.15406481 54.02735595 59.95827287 58.82607538 C64.08760696 62.95088034 68.21500039 67.07761957 72.34075934 71.20600051 C74.80331125 73.67011354 77.26653901 76.13354076 79.7315197 78.59522438 C82.47092627 81.3312215 85.2062576 84.07126982 87.94116211 86.81176758 C88.76238052 87.63096176 89.58359894 88.45015594 90.42970276 89.29417419 C91.16844635 90.03573761 91.90718994 90.77730103 92.6683197 91.54133606 C93.63915701 92.51273891 93.63915701 92.51273891 94.6296072 93.50376606 C96 95 96 95 96 96 C64.32 96 32.64 96 0 96 C0 64.32 0 32.64 0 0 Z " fill="#CBD0E6" transform="translate(264,0)"/>
<path d="M0 0 C47.85 0 95.7 0 145 0 C145 9.9 145 19.8 145 30 C97.15 30 49.3 30 0 30 C0 20.1 0 10.2 0 0 Z " fill="#59567E" transform="translate(93,301)"/>
<path d="M0 0 C35.31 0 70.62 0 107 0 C107 9.9 107 19.8 107 30 C71.69 30 36.38 30 0 30 C0 20.1 0 10.2 0 0 Z " fill="#58557D" transform="translate(93,241)"/>
<path d="M0 0 C35.31 0 70.62 0 107 0 C107 9.57 107 19.14 107 29 C71.69 29 36.38 29 0 29 C0 19.43 0 9.86 0 0 Z " fill="#3E3B58" transform="translate(200,181)"/>
<path d="M0 0 C5.78455272 0.66412805 9.41460941 5.90249476 13.3125 9.8125 C14.16134766 10.63298828 15.01019531 11.45347656 15.88476562 12.29882812 C16.68205078 13.09353516 17.47933594 13.88824219 18.30078125 14.70703125 C19.03466064 15.4338208 19.76854004 16.16061035 20.5246582 16.90942383 C22 19 22 19 21.89764404 20.80393982 C20.60051043 23.97733967 18.54211385 25.81602192 16.11303711 28.22753906 C15.35203957 28.98919373 15.35203957 28.98919373 14.57566833 29.76623535 C12.89990733 31.43990925 11.21377731 33.10271128 9.52734375 34.765625 C8.36226727 35.92510527 7.19785214 37.08525042 6.03407288 38.24603271 C2.97133103 41.29732787 -0.10031331 44.33950625 -3.17388916 47.37988281 C-6.30949644 50.4847856 -9.43661367 53.5982131 -12.56445312 56.7109375 C-18.70135102 62.81567432 -24.84767857 68.91080744 -31 75 C-36.22948744 70.62970634 -41.10289955 66.03088196 -45.90234375 61.1953125 C-46.6249086 60.4713327 -47.34747345 59.74735291 -48.0919342 59.00143433 C-50.37616922 56.71164735 -52.65688312 54.41839007 -54.9375 52.125 C-56.49521039 50.56226839 -58.05315087 48.9997661 -59.61132812 47.4375 C-63.41021602 43.6276469 -67.20622713 39.81494621 -71 36 C-67.88227323 32.31541017 -64.78327968 28.65324874 -61.3515625 25.25390625 C-60.73925781 24.64482422 -60.12695312 24.03574219 -59.49609375 23.40820312 C-58.56990234 22.49458008 -58.56990234 22.49458008 -57.625 21.5625 C-56.98433594 20.92634766 -56.34367187 20.29019531 -55.68359375 19.63476562 C-54.12469121 18.08749668 -52.56348584 16.54263508 -51 15 C-47.95667235 16.3584202 -45.87690849 17.88463024 -43.546875 20.2578125 C-42.928125 20.88300781 -42.309375 21.50820312 -41.671875 22.15234375 C-41.03765625 22.80332031 -40.4034375 23.45429687 -39.75 24.125 C-38.77546875 25.11306641 -38.77546875 25.11306641 -37.78125 26.12109375 C-36.18288273 27.74296643 -34.58938103 29.3693281 -33 31 C-30.1364444 29.70460384 -28.12272159 28.35635709 -25.94726562 26.0949707 C-25.37987671 25.51129227 -24.81248779 24.92761383 -24.22790527 24.32624817 C-23.62675903 23.69909409 -23.02561279 23.07194 -22.40625 22.42578125 C-21.116314 21.10570086 -19.8259361 19.78605216 -18.53515625 18.46679688 C-16.5088219 16.38451775 -14.48663032 14.29860397 -12.47216797 12.20483398 C-10.52370163 10.18408812 -8.56010184 8.17910537 -6.59375 6.17578125 C-5.99260376 5.54255447 -5.39145752 4.9093277 -4.77209473 4.25691223 C-3.05273437 2.5168457 -3.05273437 2.5168457 0 0 Z " fill="#03D8F9" transform="translate(164,69)"/>
<path d="M0 0 C30.36 0 60.72 0 92 0 C92 10.23 92 20.46 92 31 C61.64 31 31.28 31 0 31 C0 20.77 0 10.54 0 0 Z " fill="#5D5A81" transform="translate(93,361)"/>
<path d="M0 0 C12.54 0 25.08 0 38 0 C38 9.57 38 19.14 38 29 C25.46 29 12.92 29 0 29 C0 19.43 0 9.86 0 0 Z " fill="#3E3B58" transform="translate(200,302)"/>
</svg>
