<?xml version="1.0" encoding="UTF-8"?>
<svg version="1.1" xmlns="http://www.w3.org/2000/svg" width="512" height="512">
<path d="M0 0 C0.6487364 -0.00265183 1.2974728 -0.00530365 1.96586788 -0.00803584 C4.16078785 -0.01575432 6.35565213 -0.01628898 8.55058479 -0.01688576 C10.13180783 -0.02089874 11.71302985 -0.02533669 13.29425061 -0.03016531 C17.65616972 -0.04215565 22.01807776 -0.04778499 26.38001013 -0.05234647 C31.07827897 -0.05829352 35.7765345 -0.06990585 40.47479439 -0.08063698 C51.83191976 -0.10518555 63.18904955 -0.11979377 74.5461933 -0.13269705 C77.75372689 -0.13640784 80.96126005 -0.14038119 84.1687932 -0.14444971 C104.08270875 -0.16969021 123.99662496 -0.19174572 143.91055298 -0.20417786 C148.52576258 -0.20710762 153.14097217 -0.21006927 157.75618172 -0.21308327 C158.90328968 -0.21382932 160.05039763 -0.21457537 161.23226644 -0.21534403 C179.80564316 -0.22799163 198.37892402 -0.26120473 216.95225595 -0.3028851 C236.01794708 -0.34531969 255.08358917 -0.36887486 274.1493274 -0.37409842 C284.85517563 -0.37751131 295.5608742 -0.38925179 306.26667595 -0.42220116 C315.38686947 -0.45022405 324.50688266 -0.46119126 333.62711589 -0.4500057 C338.27877262 -0.44482435 342.93005187 -0.44767158 347.58165359 -0.47247124 C351.84578806 -0.49501471 356.10927501 -0.49418458 360.37342121 -0.47526737 C361.9105858 -0.47247443 363.44779477 -0.47802647 364.98488818 -0.4930803 C376.5359185 -0.59922921 387.51508686 1.07363572 396.24739265 9.33623314 C406.26956061 21.15265111 406.96559813 33.81884502 407.0247364 48.69951439 C407.0556739 50.65147728 407.0556739 50.65147728 407.0872364 52.64287376 C407.09239265 53.90035423 407.0975489 55.1578347 407.1028614 56.45342064 C407.11220711 57.59238792 407.12155281 58.73135521 407.13118172 59.90483665 C406.72006877 63.63273 405.79023225 65.98204073 403.7747364 69.13701439 C400.82475224 71.013477 398.56077679 71.38309153 395.09797859 71.36406517 C393.71699989 71.36383858 393.71699989 71.36383858 392.30812263 71.36360741 C391.32257393 71.35328484 390.33702522 71.34296227 389.3216114 71.33232689 C387.79857399 71.32808205 387.79857399 71.32808205 386.24476814 71.32375145 C383.00463724 71.3125644 379.76478364 71.2874623 376.5247364 71.26201439 C374.32682373 71.25198269 372.12890672 71.24285717 369.9309864 71.23467064 C364.54547527 71.2126299 359.16012565 71.1791669 353.7747364 71.13701439 C353.72000007 84.78520431 353.70843536 98.43269161 353.75139046 112.08094406 C353.76999458 118.41905299 353.77394656 124.75645378 353.74397469 131.09453392 C353.71557467 137.21575259 353.72623612 143.33579075 353.76353645 149.45694923 C353.7709606 151.78761238 353.76450928 154.11836393 353.74370003 156.448946 C353.07735405 170.8019244 353.07735405 170.8019244 358.68293953 183.42998314 C360.01710887 184.69773758 361.377717 185.93887168 362.7747364 187.13701439 C374.19971471 201.99859179 381.2041293 219.11406893 385.7747364 237.13701439 C385.95407722 237.81216087 386.13341805 238.48730736 386.31819344 239.18291283 C394.87876579 272.52408937 387.64668882 309.66126587 370.7747364 339.13701439 C368.26409087 343.24348225 365.56643715 347.21675377 362.7747364 351.13701439 C365.33988958 357.62206404 371.50944926 362.56142784 376.28425789 367.45659447 C377.5663203 368.78184145 378.83570953 370.11947064 380.09187508 371.46928978 C386.86671279 379.42942497 386.86671279 379.42942497 395.92756844 383.62676048 C398.79001119 383.29713509 398.79001119 383.29713509 401.46199226 382.59599876 C403.7747364 382.13701439 403.7747364 382.13701439 407.0950489 383.74248314 C407.97934578 384.53267845 408.86364265 385.32287376 409.7747364 386.13701439 C410.74153328 386.9787722 411.70833015 387.82053001 412.7044239 388.68779564 C413.68974032 389.60457261 414.67142375 390.52526723 415.6497364 391.44951439 C416.71165706 392.43711686 417.77415644 393.42409743 418.8372364 394.41045189 C419.34512703 394.88321556 419.85301765 395.35597923 420.3762989 395.84306908 C424.46584896 399.62704521 428.71167002 403.23411348 432.9544239 406.84404564 C439.79593348 412.67150499 446.51725748 418.5935817 453.1184864 424.69170189 C460.0148384 431.0404024 467.18888184 437.07840352 474.30989265 443.17217064 C475.16055305 443.90343163 475.16055305 443.90343163 476.02839851 444.64946556 C477.22092346 445.66527075 478.42275216 446.67022856 479.63240242 447.66557884 C483.14432953 450.58215335 486.00704676 453.38663461 488.5872364 457.19951439 C489.15055672 458.01549095 489.71387703 458.83146751 490.29426765 459.67217064 C495.42073301 468.20726204 494.76072063 478.44864768 493.7747364 488.13701439 C492.6858264 492.04269158 491.20542221 494.9163557 488.7747364 498.13701439 C487.6919239 499.74576439 487.6919239 499.74576439 486.5872364 501.38701439 C478.37679938 509.41499726 469.1918647 512.58001979 457.88557625 512.49614525 C445.5353043 512.15849769 438.66166293 506.32494295 430.37825203 497.67949486 C427.11177436 494.2225098 423.93319771 490.69273557 420.7747364 487.13701439 C420.17145515 486.46025658 419.5681739 485.78349876 418.9466114 485.08623314 C416.28696987 482.07154237 413.67282118 479.01912021 411.06770515 475.95732689 C405.2402458 469.11581732 399.31816909 462.39449331 393.2200489 455.79326439 C386.36422391 448.34604235 379.85065118 440.58725872 373.27815437 432.89043236 C372.22447941 431.66154415 371.16577104 430.43696219 370.10334969 429.21562767 C369.56307137 428.59284935 369.02279305 427.97007103 368.46614265 427.32842064 C367.97444588 426.76453636 367.4827491 426.20065208 366.97615242 425.6196804 C365.7747364 424.13701439 365.7747364 424.13701439 364.7747364 422.13701439 C364.9603614 420.83763939 365.1459864 419.53826439 365.3372364 418.19951439 C365.45922567 413.90731559 364.07811125 411.88750327 361.17061043 408.78191185 C360.69837044 408.29968163 360.22613045 407.8174514 359.73958015 407.32060814 C359.26516487 406.81880028 358.79074959 406.31699242 358.30195808 405.79997826 C357.1360577 404.56959061 355.95669386 403.35198518 354.7747364 402.13701439 C354.76887016 403.29688866 354.76300392 404.45676292 354.75695992 405.6517849 C354.69967381 416.59824002 354.62688123 427.54449761 354.53902149 438.49075127 C354.4943503 444.11794151 354.45508684 449.74505989 354.42830086 455.37236595 C354.4022357 460.80602284 354.36181015 466.23940273 354.31155014 471.6728878 C354.29490322 473.74280914 354.28337543 475.81277836 354.2771225 477.88275719 C354.26745788 480.78876647 354.23936994 483.69407054 354.20710945 486.59990501 C354.20854454 487.45011223 354.20997963 488.30031944 354.21145821 489.17629051 C354.09325469 496.73647327 352.38223603 503.68527864 346.7747364 509.13701439 C340.11434868 513.00699642 333.47067218 512.55923287 325.92721748 512.52469444 C324.50794203 512.52886989 323.08866991 512.53434857 321.66940397 512.54101425 C317.77845616 512.55545993 313.88772033 512.55122694 309.99676096 512.54384744 C305.79694421 512.53911591 301.59717333 512.55162547 297.39737129 512.56186485 C289.17327187 512.57905829 280.94924884 512.57989176 272.72513611 512.57465195 C266.0405807 512.57061015 259.35604786 512.57205393 252.67149353 512.57740021 C251.72002748 512.57814863 250.76856142 512.57889705 249.78826306 512.57966815 C247.85535165 512.58119963 245.92244023 512.58273798 243.98952883 512.58428312 C225.86444527 512.59801005 207.73940487 512.59256904 189.6143223 512.58109791 C173.03348856 512.57116459 156.45276639 512.58410757 139.87194986 512.6080321 C122.84465115 512.63241568 105.81740442 512.64203284 88.79008859 512.63537937 C79.23136522 512.6318856 69.67272767 512.63412969 60.11401749 512.6516304 C51.97721089 512.66634308 43.84055056 512.66700002 35.70374686 512.64955949 C31.55284432 512.64103953 27.40220317 512.63892414 23.25131416 512.65421104 C19.44961803 512.66803856 15.64840771 512.66332032 11.84673982 512.64397181 C9.8239204 512.63842463 7.80107637 512.65249944 5.77830368 512.66732591 C-2.53997575 512.59985088 -8.48516465 511.87711334 -14.6002636 505.76201439 C-17.97654588 500.30801993 -18.51672903 495.17414423 -18.4825325 488.87788391 C-18.48603858 488.05787313 -18.48954465 487.23786234 -18.49315697 486.39300275 C-18.50247629 483.63952517 -18.49754627 480.88625885 -18.49268913 478.13277245 C-18.49642511 476.14101532 -18.50102642 474.14925967 -18.50641978 472.15750635 C-18.51867146 466.67953043 -18.51838676 461.20161549 -18.51603103 455.723629 C-18.51562341 449.81758619 -18.52665665 443.91156307 -18.53614616 438.0055294 C-18.5527686 426.43314706 -18.55828216 414.86078354 -18.55937092 403.28839041 C-18.56028993 393.88404063 -18.5644062 384.47969745 -18.57077217 375.07534981 C-18.57256725 372.3685428 -18.57434688 369.66173578 -18.57612193 366.95492876 C-18.57656402 366.28201528 -18.57700612 365.6091018 -18.57746161 364.91579701 C-18.58976997 345.98805984 -18.59766274 327.06032496 -18.59677505 308.13258362 C-18.5967439 307.41895996 -18.59671274 306.70533629 -18.59668064 305.97008767 C-18.59651442 302.35312303 -18.59631634 298.73615839 -18.59611122 295.11919375 C-18.59607133 294.40084751 -18.59603144 293.68250127 -18.59599034 292.94238696 C-18.59590947 291.4897162 -18.59582587 290.03704545 -18.59573956 288.58437469 C-18.59451387 265.97982523 -18.60953057 243.37533575 -18.63688469 220.77080345 C-18.66760179 195.37673498 -18.68481744 169.98270591 -18.68295825 144.58861768 C-18.68280898 141.88118196 -18.68271157 139.17374623 -18.68264961 136.4663105 C-18.6826263 135.79966721 -18.682603 135.13302391 -18.68257898 134.4461793 C-18.68252123 124.38046381 -18.69316198 114.31479548 -18.70931435 104.24909401 C-18.72749782 92.80201164 -18.73189673 81.3550276 -18.7182955 69.90793706 C-18.7117518 64.06596673 -18.71169933 58.2241852 -18.729002 52.38223267 C-18.74467546 47.03544888 -18.74192767 41.68900451 -18.72443374 36.34222929 C-18.72135122 34.40688057 -18.72504305 32.47150688 -18.73615389 30.5361876 C-18.75025349 27.90632253 -18.7397059 25.27765155 -18.72304153 22.64782715 C-18.73297789 21.89565949 -18.74291425 21.14349184 -18.75315171 20.36853123 C-18.67233528 14.33996174 -16.97710512 8.97948801 -12.70718851 4.56894139 C-8.22589107 0.74996412 -5.7911246 0.01161261 0 0 Z " fill="#D0D3D0" transform="translate(18.225263595581055,-0.13701438903808594)"/>
<path d="M0 0 C0.99178253 0.00323273 0.99178253 0.00323273 2.00360107 0.00653076 C12.1372724 0.05946808 21.44261764 0.62387182 31.25 3.3125 C32.37994385 3.60253906 32.37994385 3.60253906 33.53271484 3.8984375 C60.4981399 10.86975026 82.87445834 24.22265266 102.25 44.3125 C103.075 45.09625 103.9 45.88 104.75 46.6875 C119.3102055 61.97571577 128.33229136 80.4055217 134.0625 100.5625 C134.2574707 101.24610596 134.45244141 101.92971191 134.65332031 102.6340332 C137.71622901 114.07942615 138.64127061 125.49560185 138.625 137.3125 C138.62418427 138.3224704 138.62418427 138.3224704 138.62335205 139.35284424 C138.51479965 168.77054376 129.2717826 195.40957125 112.25 219.3125 C114.81515318 225.79754965 120.98471286 230.73691345 125.75952148 235.63208008 C127.04158389 236.95732706 128.31097313 238.29495625 129.56713867 239.64477539 C136.34197639 247.60491058 136.34197639 247.60491058 145.40283203 251.80224609 C148.26527479 251.4726207 148.26527479 251.4726207 150.93725586 250.77148438 C153.25 250.3125 153.25 250.3125 156.5703125 251.91796875 C157.45460938 252.70816406 158.33890625 253.49835938 159.25 254.3125 C160.21679688 255.15425781 161.18359375 255.99601563 162.1796875 256.86328125 C163.16500392 257.78005822 164.14668735 258.70075284 165.125 259.625 C166.18692066 260.61260247 167.24942004 261.59958304 168.3125 262.5859375 C168.82039063 263.05870117 169.32828125 263.53146484 169.8515625 264.01855469 C173.94111256 267.80253083 178.18693362 271.40959909 182.4296875 275.01953125 C189.27119707 280.8469906 195.99252108 286.76906731 202.59375 292.8671875 C209.490102 299.21588801 216.66414544 305.25388913 223.78515625 311.34765625 C224.63581665 312.07891724 224.63581665 312.07891724 225.50366211 312.82495117 C226.69618706 313.84075636 227.89801575 314.84571417 229.10766602 315.84106445 C232.61959312 318.75763897 235.48231035 321.56212022 238.0625 325.375 C238.62582031 326.19097656 239.18914062 327.00695312 239.76953125 327.84765625 C244.89599661 336.38274765 244.23598422 346.62413329 243.25 356.3125 C242.16109 360.21817719 240.68068581 363.09184131 238.25 366.3125 C237.1671875 367.92125 237.1671875 367.92125 236.0625 369.5625 C227.85206297 377.59048287 218.6671283 380.7555054 207.36083984 380.67163086 C195.0105679 380.3339833 188.13692652 374.50042856 179.85351562 365.85498047 C176.58703796 362.39799541 173.4084613 358.86822119 170.25 355.3125 C169.64671875 354.63574219 169.0434375 353.95898438 168.421875 353.26171875 C165.76223347 350.24702798 163.14808478 347.19460582 160.54296875 344.1328125 C154.7155094 337.29130293 148.79343269 330.56997892 142.6953125 323.96875 C135.8394875 316.52152796 129.32591477 308.76274433 122.75341797 301.06591797 C121.69974301 299.83702976 120.64103464 298.6124478 119.57861328 297.39111328 C119.03833496 296.76833496 118.49805664 296.14555664 117.94140625 295.50390625 C117.44970947 294.94002197 116.9580127 294.3761377 116.45141602 293.79516602 C115.25 292.3125 115.25 292.3125 114.25 290.3125 C114.45625 289.03375 114.6625 287.755 114.875 286.4375 C114.96431175 281.39544552 112.52141194 278.72419488 109.1875 275.25 C107.67977299 273.71144407 106.15867461 272.18938459 104.62158203 270.68017578 C102.86236887 268.92597284 101.23855928 267.07570766 99.625 265.1875 C92.16506014 256.53833392 92.16506014 256.53833392 84.25 248.3125 C80.57892312 249.65398086 77.54985068 251.32015062 74.3125 253.5 C44.8945618 272.36967351 8.45858691 279.35590557 -25.98046875 272.55078125 C-27.30213312 272.25375958 -28.62119921 271.9449544 -29.9375 271.625 C-30.6588916 271.44984863 -31.3802832 271.27469727 -32.12353516 271.09423828 C-67.04567577 262.25521381 -97.79470224 240.0439111 -116.55078125 209.18359375 C-135.39629891 176.79577704 -141.53999951 137.85924714 -132.2265625 101.390625 C-127.34076451 84.02319026 -118.96840615 67.44987008 -107.75 53.3125 C-107.07582031 52.42433594 -106.40164062 51.53617188 -105.70703125 50.62109375 C-96.49229337 38.82152958 -85.45627837 29.2157056 -72.75 21.3125 C-72.14317383 20.93496582 -71.53634766 20.55743164 -70.91113281 20.16845703 C-49.14565334 6.85119984 -25.5676822 -0.1137497 0 0 Z " fill="#A5A5A4" transform="translate(268.75,131.6875)"/>
<path d="M0 0 C18.24116346 15.72912136 31.69893863 39.46443006 34.125 63.625 C34.72215915 77.08789947 35.21119567 90.65791938 31.125 103.625 C30.7846875 104.75292969 30.444375 105.88085938 30.09375 107.04296875 C25.71241899 120.37938509 19.3299323 132.03542746 10.125 142.625 C9.6815625 143.21152344 9.238125 143.79804688 8.78125 144.40234375 C-5.10711172 162.3979344 -30.66958464 174.45786738 -52.83544922 177.4140625 C-79.41142589 180.16264328 -107.3344858 173.22694689 -128.35668945 156.46923828 C-149.2450748 139.2163139 -163.21131145 115.64385343 -166.875 88.625 C-168.97315026 61.66434876 -162.80498691 34.06195747 -144.9453125 13.07421875 C-142.03940903 9.80443753 -138.99398155 6.6907492 -135.875 3.625 C-135.11316406 2.86445313 -134.35132813 2.10390625 -133.56640625 1.3203125 C-127.64821406 -4.26124858 -120.92043676 -8.35892794 -113.875 -12.375 C-113.05257812 -12.849375 -112.23015625 -13.32375 -111.3828125 -13.8125 C-75.35748256 -33.22008515 -30.76465034 -25.54754431 0 0 Z " fill="#AFD2EF" transform="translate(335.875,192.375)"/>
<path d="M0 0 C47.56849046 -0.11447579 95.13696632 -0.20256435 142.7055674 -0.25532665 C148.32308032 -0.26158009 153.94059296 -0.26805171 159.55810547 -0.2746582 C161.23560469 -0.27662553 161.23560469 -0.27662553 162.94699278 -0.2786326 C181.04843555 -0.30038167 199.14979882 -0.33980048 217.25119445 -0.38576398 C235.8286513 -0.43254244 254.40606655 -0.46029835 272.98357987 -0.47044247 C284.44441546 -0.47729873 295.90502632 -0.49894377 307.36579272 -0.53958233 C315.22777177 -0.56603781 323.08963486 -0.57399462 330.95165518 -0.56750689 C335.4858425 -0.56430838 340.01963747 -0.56916778 344.55375481 -0.59602737 C348.71064025 -0.62047168 352.86687184 -0.62151579 357.02378824 -0.60449447 C358.52198623 -0.60239276 360.02022606 -0.60864075 361.51834247 -0.62441591 C372.95334807 -0.73775622 383.83840923 1.02940555 392.47265625 9.19921875 C402.4948242 21.01563672 403.19086172 33.68183063 403.25 48.5625 C403.2809375 50.51446289 403.2809375 50.51446289 403.3125 52.50585938 C403.31765625 53.76333984 403.3228125 55.02082031 403.328125 56.31640625 C403.3374707 57.45537354 403.34681641 58.59434082 403.35644531 59.76782227 C402.94533237 63.49571561 402.01549585 65.84502634 400 69 C396.68991073 71.20699198 393.86478602 71.25133152 389.94637394 71.25447559 C388.69792102 71.26030779 387.4494681 71.26613998 386.16318327 71.27214891 C384.77529735 71.2685156 383.38741191 71.26469122 381.99952698 71.26069641 C380.52708252 71.26371602 379.05463962 71.26760454 377.58219951 71.27228898 C373.53050121 71.28260234 369.47889106 71.2803787 365.42718542 71.27610838 C361.059693 71.27364721 356.69222214 71.28264772 352.32473755 71.29014587 C343.76636358 71.30291174 335.20802096 71.30468423 326.64963908 71.30234561 C319.69515822 71.30056445 312.74068691 71.30230775 305.7862072 71.30657005 C304.30297962 71.30746284 304.30297962 71.30746284 302.78978784 71.30837366 C300.78117363 71.30958537 298.77255942 71.31079951 296.76394521 71.31201603 C277.916482 71.32289878 259.06903667 71.32072556 240.22157245 71.31463119 C222.96925619 71.30946101 205.71699638 71.32071882 188.46469129 71.33972941 C170.76063088 71.35908862 153.0565972 71.3673672 135.35252613 71.36360615 C125.40877643 71.36169124 115.46507478 71.36420988 105.52133369 71.37832069 C97.05647647 71.39021105 88.59169688 71.3916658 80.12683863 71.37953053 C75.80624741 71.37362538 71.48579835 71.37258736 67.16521645 71.38453293 C63.21190284 71.39533626 59.25885104 71.39235506 55.30554997 71.37827124 C53.8735579 71.37560893 52.44154567 71.37803866 51.00957329 71.38600711 C49.06622702 71.39607262 47.12280729 71.38592442 45.1794672 71.37473011 C43.55884564 71.37481263 43.55884564 71.37481263 41.90548426 71.37489682 C37.61754236 70.82162045 35.01495586 69.01495586 32 66 C31.7906256 63.46715401 31.69890033 61.03493972 31.69140625 58.5 C31.66621263 56.95702802 31.64081518 55.41405936 31.61523438 53.87109375 C31.58669305 51.44678897 31.56267644 49.0225431 31.54370117 46.59814453 C31.41167644 32.48165407 30.31624661 21.15194787 20.40625 10.24609375 C14.70971847 4.88544261 7.60334369 2.36643721 0 1 C0 0.67 0 0.34 0 0 Z " fill="#E5E6E7" transform="translate(22,0)"/>
<path d="M0 0 C1.2450531 -0.01250038 1.2450531 -0.01250038 2.51525879 -0.0252533 C5.18744567 -0.04458469 7.85900474 -0.04471744 10.53125 -0.0390625 C11.90168457 -0.03874527 11.90168457 -0.03874527 13.29980469 -0.03842163 C34.35029966 0.01022951 54.00918498 2.61601471 74.03125 9.3359375 C74.88235531 35.37345557 67.23242021 59.54730313 50.03125 79.3359375 C49.5878125 79.92246094 49.144375 80.50898438 48.6875 81.11328125 C34.79913828 99.1088719 9.23666536 111.16880488 -12.92919922 114.125 C-39.5219212 116.87531264 -67.39343581 109.92266117 -88.44384766 93.18896484 C-96.96875663 86.16200034 -103.99512706 78.63263545 -109.96875 69.3359375 C-106.28053463 61.45008476 -100.94660906 55.26920744 -95.24658203 48.79736328 C-94.1865418 47.58502075 -93.15056162 46.35168975 -92.12109375 45.11328125 C-86.96307366 38.94139972 -80.95488052 33.68315425 -74.96875 28.3359375 C-73.96875 31.3359375 -73.96875 31.3359375 -74.58959961 33.09423828 C-74.92999268 33.73345215 -75.27038574 34.37266602 -75.62109375 35.03125 C-76.16733398 36.10632813 -76.16733398 36.10632813 -76.72460938 37.203125 C-77.50190868 38.68834483 -78.28560008 40.17023982 -79.07617188 41.6484375 C-81.6445436 46.73988339 -83.24980397 51.60456664 -81.96875 57.3359375 C-80.76415289 59.13982341 -80.76415289 59.13982341 -78.96875 60.3359375 C-74.89394391 60.86020796 -74.89394391 60.86020796 -70.96875 60.3359375 C-67.04950956 57.13015838 -65.247803 53.17682094 -63.25390625 48.640625 C-62.91628769 47.89313995 -62.57866913 47.14565491 -62.2308197 46.3755188 C-61.15571299 43.99107301 -60.09303503 41.60134107 -59.03125 39.2109375 C-56.64920758 33.89309171 -54.25663886 28.58010051 -51.84561157 23.27532959 C-51.06623038 21.55153901 -50.30101038 19.82136141 -49.5378418 18.09033203 C-46.6678798 11.86483508 -46.6678798 11.86483508 -43.41796875 9.40625 C-42.50660156 9.09429687 -41.59523438 8.78234375 -40.65625 8.4609375 C-39.61210937 8.09613281 -38.56796875 7.73132813 -37.4921875 7.35546875 C-31.68477208 5.67505254 -25.86826249 4.11641856 -19.9679718 2.79051208 C-18.61796955 2.48355429 -17.27152404 2.16057879 -15.92887878 1.82289124 C-10.55669524 0.51702517 -5.51839503 0.0172621 0 0 Z " fill="#90BAE0" transform="translate(295.96875,255.6640625)"/>
<path d="M0 0 C2.86084974 1.28922475 4.81941754 2.600521 6.94165039 4.9050293 C7.758843 5.78054695 7.758843 5.78054695 8.59254456 6.67375183 C9.17173141 7.30090591 9.75091827 7.92806 10.34765625 8.57421875 C11.6045473 9.89537799 12.86306339 11.2149928 14.12304688 12.53320312 C16.09793402 14.60674873 18.06194077 16.68689158 19.99975586 18.79516602 C26.91378739 27.05829245 26.91378739 27.05829245 36.17529297 31.52978516 C39.03836488 31.20251384 39.03836488 31.20251384 41.70043945 30.48095703 C44 30 44 30 47.3203125 31.60546875 C48.20460938 32.39566406 49.08890625 33.18585938 50 34 C50.96679688 34.84175781 51.93359375 35.68351562 52.9296875 36.55078125 C53.91500392 37.46755822 54.89668735 38.38825284 55.875 39.3125 C56.93692066 40.30010247 57.99942004 41.28708304 59.0625 42.2734375 C59.57039063 42.74620117 60.07828125 43.21896484 60.6015625 43.70605469 C64.69111256 47.49003083 68.93693362 51.09709909 73.1796875 54.70703125 C80.02119707 60.5344906 86.74252108 66.45656731 93.34375 72.5546875 C100.240102 78.90338801 107.41414544 84.94138913 114.53515625 91.03515625 C115.10226318 91.52266357 115.66937012 92.0101709 116.25366211 92.51245117 C117.44618706 93.52825636 118.64801575 94.53321417 119.85766602 95.52856445 C123.36959312 98.44513897 126.23231035 101.24962022 128.8125 105.0625 C129.65748047 106.28646484 129.65748047 106.28646484 130.51953125 107.53515625 C135.64599661 116.07024765 134.98598422 126.31163329 134 136 C132.91109 139.90567719 131.43068581 142.77934131 129 146 C128.278125 147.0725 127.55625 148.145 126.8125 149.25 C118.60206297 157.27798287 109.4171283 160.4430054 98.11083984 160.35913086 C85.7605679 160.0214833 78.88692652 154.18792856 70.60351562 145.54248047 C67.33703796 142.08549541 64.1584613 138.55572119 61 135 C60.39671875 134.32324219 59.7934375 133.64648438 59.171875 132.94921875 C56.51223347 129.93452798 53.89808478 126.88210582 51.29296875 123.8203125 C45.4655094 116.97880293 39.54343269 110.25747892 33.4453125 103.65625 C26.5894875 96.20902796 20.07591477 88.45024433 13.50341797 80.75341797 C12.44974301 79.52452976 11.39103464 78.2999478 10.32861328 77.07861328 C9.78833496 76.45583496 9.24805664 75.83305664 8.69140625 75.19140625 C8.19970947 74.62752197 7.7080127 74.0636377 7.20141602 73.48266602 C6 72 6 72 5 70 C5.20625 68.72125 5.4125 67.4425 5.625 66.125 C5.71431175 61.08294552 3.27141194 58.41169488 -0.0625 54.9375 C-1.57022701 53.39894407 -3.09132539 51.87688459 -4.62841797 50.36767578 C-6.38763113 48.61347284 -8.01144072 46.76320766 -9.625 44.875 C-17.08493986 36.22583392 -17.08493986 36.22583392 -25 28 C-23.4752026 24.38138159 -21.32704608 22.10873126 -18.53515625 19.375 C-17.65279297 18.50359375 -16.77042969 17.6321875 -15.86132812 16.734375 C-14.4759082 15.38085938 -14.4759082 15.38085938 -13.0625 14 C-11.23862512 12.21063431 -9.41692109 10.41905256 -7.59765625 8.625 C-6.78820557 7.83351563 -5.97875488 7.04203125 -5.14477539 6.2265625 C-3.23416181 4.24309115 -1.59021865 2.2436586 0 0 Z " fill="#E54C3C" transform="translate(378,352)"/>
<path d="M0 0 C1.49181299 -0.00576172 1.49181299 -0.00576172 3.01376361 -0.01163983 C4.11956926 -0.01077335 5.22537491 -0.00990687 6.36468983 -0.00901413 C8.11146533 -0.01347081 8.11146533 -0.01347081 9.89352924 -0.01801753 C13.14054475 -0.02522099 16.38752814 -0.02787865 19.63455045 -0.028615 C23.13093722 -0.0304608 26.6273124 -0.03800584 30.12369251 -0.04475021 C37.77668306 -0.05835499 45.42966839 -0.06436192 53.08266902 -0.06876087 C57.85926185 -0.07152035 62.63585265 -0.07575722 67.41244411 -0.08026505 C80.63086508 -0.09246178 93.84928441 -0.10275947 107.06771088 -0.10614014 C108.33774936 -0.10646949 108.33774936 -0.10646949 109.63344519 -0.10680549 C110.48219946 -0.10702377 111.33095373 -0.10724204 112.20542783 -0.10746694 C113.92541071 -0.10791041 115.64539359 -0.10835697 117.36537647 -0.10880661 C118.64514116 -0.10913875 118.64514116 -0.10913875 119.95075969 -0.10947761 C133.77210066 -0.11342472 147.59338888 -0.13087425 161.41470947 -0.15416613 C175.59642784 -0.17787284 189.77811973 -0.19034172 203.95985824 -0.19150805 C211.9256997 -0.19242534 219.89147248 -0.19819073 227.85729504 -0.21632767 C234.64162503 -0.23171967 241.42586514 -0.23685457 248.21020927 -0.22858956 C251.67220781 -0.22467948 255.1340253 -0.22562979 258.59600163 -0.23964691 C262.34905153 -0.25229173 266.10163388 -0.24652975 269.85468006 -0.23606491 C271.49665813 -0.24814952 271.49665813 -0.24814952 273.17180747 -0.26047826 C278.63744183 -0.22473157 282.77622481 -0.09192855 287.42714405 3.13142776 C289.86252632 6.78450118 289.55644679 8.12378252 288.90370655 12.26033401 C288.2832083 14.69655257 287.56020588 15.78838883 285.42714405 17.13142776 C282.39532575 18.07319429 279.64814275 18.25909965 276.4823513 18.26564884 C275.48121947 18.27010669 274.48008763 18.27456453 273.44861847 18.27915746 C272.35086922 18.2789731 271.25311998 18.27878873 270.1221056 18.27859879 C268.95431975 18.28227547 267.78653391 18.28595216 266.58336061 18.28974026 C263.34119461 18.29885816 260.09905836 18.30347481 256.85688174 18.30612957 C253.36056491 18.31003651 249.86426269 18.31961432 246.36795521 18.32834244 C237.92607587 18.3480919 229.48419536 18.35816939 221.0422987 18.36707023 C217.06762292 18.37145406 213.09294847 18.37682048 209.11827374 18.3820591 C195.90830893 18.39906694 182.69834496 18.41356282 169.4883709 18.42080784 C166.0614678 18.42271774 162.6345647 18.42463807 159.20766163 18.42659378 C157.93004823 18.42731939 157.93004823 18.42731939 156.62662446 18.42805966 C142.81771467 18.43636651 129.00889132 18.46171642 115.20001931 18.49417446 C101.02612124 18.52721936 86.85226716 18.54525411 72.67833036 18.54845208 C64.71868808 18.55061915 56.759172 18.5593969 48.79956722 18.58491325 C42.02368205 18.60658489 35.24795375 18.61468806 28.47203786 18.60494647 C25.01413798 18.60039193 21.55656201 18.60235442 18.09870625 18.62170792 C14.35191625 18.6392915 10.60595538 18.63238662 6.85916615 18.61917496 C5.21588836 18.63562883 5.21588836 18.63562883 3.53941303 18.6524151 C-3.81505502 18.58954231 -3.81505502 18.58954231 -7.72485733 16.22594357 C-9.92750331 13.72947156 -10.50661838 12.62820956 -10.94785595 9.31892776 C-10.45240577 5.10760127 -8.72932858 3.82597757 -5.57285595 1.13142776 C-3.96160555 -0.47982264 -2.22988116 0.00321272 0 0 Z " fill="#A5A5A4" transform="translate(46.572855949401855,431.8685722351074)"/>
<path d="M0 0 C1.19175842 -0.01270432 1.19175842 -0.01270432 2.40759277 -0.02566528 C5.01627925 -0.04893281 7.62437219 -0.05005977 10.2331543 -0.04882812 C12.06007621 -0.05593684 13.88699591 -0.06363687 15.71391296 -0.07189941 C19.53769133 -0.08532141 23.36126332 -0.08692369 27.18505859 -0.08105469 C32.06399452 -0.07516642 36.94193266 -0.10572446 41.82067585 -0.14617157 C45.59302524 -0.17213549 49.3651373 -0.17491803 53.13756371 -0.17127991 C54.93515717 -0.17296361 56.73276249 -0.18253327 58.53026772 -0.20042419 C69.99305881 -0.30195249 78.50716477 0.13143007 87.61987305 7.85742188 C94.33947268 15.96046849 94.97922801 21.54951065 95.04003906 31.81665039 C95.05158074 33.17548009 95.07206759 34.53426369 95.1015625 35.89282227 C95.14422854 37.85855863 95.1578036 39.82485828 95.1706543 41.79101562 C95.18523682 42.96591553 95.19981934 44.14081543 95.21484375 45.35131836 C94.65084767 49.0338465 93.66346526 50.18281808 90.74487305 52.41992188 C88.52612305 52.95117188 88.52612305 52.95117188 86.24487305 52.91992188 C85.1156543 52.93539062 85.1156543 52.93539062 83.96362305 52.95117188 C80.88289292 52.21353227 79.74822171 50.84296577 77.74487305 48.41992188 C77.21484375 45.93383789 77.21484375 45.93383789 77.1706543 43.17382812 C77.14293945 42.17158203 77.11522461 41.16933594 77.08666992 40.13671875 C77.07700195 39.09580078 77.06733398 38.05488281 77.05737305 36.98242188 C77.01509719 34.9211537 76.96963402 32.8599479 76.9206543 30.79882812 C76.9038562 29.4309314 76.9038562 29.4309314 76.88671875 28.03540039 C76.74434234 25.4101362 76.32372514 22.9812629 75.74487305 20.41992188 C72.17246286 19.22911848 68.9183966 19.26453663 65.19995117 19.25878906 C64.4337999 19.25382416 63.66764862 19.24885925 62.87828064 19.2437439 C60.34421899 19.22913981 57.81021986 19.22232441 55.27612305 19.21679688 C53.51639809 19.21104547 51.75667316 19.20528774 49.99694824 19.19952393 C46.30826526 19.18901997 42.61960404 19.18317285 38.9309082 19.1796875 C34.19941115 19.17419369 29.46820055 19.15014433 24.73679352 19.12171555 C21.10287629 19.10311635 17.46902857 19.0978851 13.83506775 19.09635162 C12.09031095 19.09332012 10.34555552 19.08527487 8.60084534 19.07216644 C6.1636045 19.05515694 3.72707063 19.05697302 1.28979492 19.06347656 C0.56658554 19.05426178 -0.15662384 19.045047 -0.90174866 19.03555298 C-3.62968556 19.0584155 -5.77506168 19.16037981 -8.20043945 20.47163391 C-9.84737393 23.51395936 -9.68875143 26.57481492 -9.67504883 29.94897461 C-9.68775314 31.09579208 -9.68775314 31.09579208 -9.70071411 32.26577759 C-9.72412919 34.79519243 -9.72510523 37.32400057 -9.72387695 39.85351562 C-9.73097589 41.61084742 -9.73867449 43.36817688 -9.74694824 45.12550354 C-9.76040344 48.81005291 -9.76195722 52.49438799 -9.75610352 56.17895508 C-9.75020673 60.90166894 -9.78079258 65.62335501 -9.8212204 70.34587002 C-9.84706531 73.97558638 -9.84997775 77.60505423 -9.84632874 81.23484993 C-9.84802304 82.97599941 -9.85769544 84.71715999 -9.87547302 86.45821953 C-9.89760048 88.89333817 -9.88799477 91.32636337 -9.87036133 93.76147461 C-9.88362457 94.48108871 -9.89688782 95.20070282 -9.91055298 95.94212341 C-9.84949346 99.56948695 -9.50211941 101.14752768 -7.03405762 103.86941528 C-4.07938728 105.51797596 -2.52241448 105.91052953 0.82299805 105.88647461 C2.29978027 105.89184486 2.29978027 105.89184486 3.80639648 105.89732361 C4.85859375 105.88286697 5.91079102 105.86841034 6.99487305 105.85351562 C9.23445708 105.86311945 11.4740404 105.87289017 13.71362305 105.8828125 C17.23583887 105.87420373 20.75787311 105.85734018 24.2800293 105.83520508 C27.6853415 105.82069921 31.08959851 105.83592653 34.49487305 105.85351562 C35.54707031 105.83703476 36.59926758 105.82055389 37.68334961 105.80357361 C44.97113398 105.85340875 44.97113398 105.85340875 48.90893555 108.73657227 C51.34518086 112.29731325 51.50039668 114.18898955 50.74487305 118.41992188 C48.95922852 121.1015625 48.95922852 121.1015625 45.74487305 123.41992188 C41.72740323 124.15142621 37.76362678 124.07259553 33.69018555 124.01367188 C32.51527557 124.01371216 31.3403656 124.01375244 30.12985229 124.01379395 C27.64681649 124.0084372 25.1637812 123.99084823 22.6809082 123.96191406 C18.89050128 123.92014917 15.101877 123.92083969 11.3112793 123.92773438 C8.89590242 123.9172384 6.48053468 123.90429811 4.06518555 123.88867188 C2.93581573 123.88847046 1.80644592 123.88826904 0.64285278 123.88806152 C-8.43923342 123.75229895 -14.59138973 121.96377457 -21.26553345 115.54382324 C-29.66637991 106.57587615 -28.99464645 96.15752596 -28.91918945 84.63867188 C-28.92256417 82.81603676 -28.92742223 80.99340385 -28.9336853 79.17077637 C-28.94102576 75.36477067 -28.93044304 71.55935469 -28.90698242 67.75341797 C-28.87849611 62.89802854 -28.89491538 58.04402139 -28.92484474 53.18868256 C-28.94299466 49.42915613 -28.93712463 45.6699523 -28.92420578 41.91041565 C-28.92089298 40.1212192 -28.92488322 38.33199255 -28.93660355 36.54283142 C-28.99147267 25.81500999 -29.03212512 16.58689732 -21.26553345 8.29602051 C-14.94135399 2.21270465 -8.69644289 -0.03466356 0 0 Z " fill="#31A8CC" transform="translate(64.255126953125,105.580078125)"/>
<path d="M0 0 C2.375 1.5 2.375 1.5 4 4 C5.26956664 10.01496872 4.87850029 13.73025767 2.125 19.27734375 C1.80937103 19.95283768 1.49374207 20.6283316 1.16854858 21.32429504 C0.129842 23.53743737 -0.93504332 25.73688609 -2 27.9375 C-2.73694914 29.49738867 -3.47177982 31.05827976 -4.20458984 32.62011719 C-5.71686137 35.83950943 -7.23767057 39.05464855 -8.76464844 42.26708984 C-11.82167041 48.71666059 -14.76673266 55.21615084 -17.70614624 61.71994019 C-18.62343789 63.74654877 -19.54503418 65.77114397 -20.46801758 67.79516602 C-23.32270718 74.05955413 -26.15572776 80.33210575 -28.93170166 86.63183594 C-30.20624722 89.52327583 -31.48827872 92.41137221 -32.77044678 95.29943848 C-33.37583806 96.66961725 -33.97720331 98.04158281 -34.57427979 99.41540527 C-35.39779862 101.31007734 -36.23454808 103.19838025 -37.07421875 105.0859375 C-37.77937622 106.6954126 -37.77937622 106.6954126 -38.4987793 108.33740234 C-40.05697848 111.10105827 -41.29731895 112.38926325 -44 114 C-47.88968824 114.84327226 -51.05292052 114.5445707 -54.5 112.5625 C-56.73213422 108.7492707 -56.61954391 105.25625111 -56 101 C-54.5117182 96.72419647 -52.51625348 92.73629757 -50.5 88.6875 C-49.29016257 86.18742656 -48.09315011 83.68124845 -46.89453125 81.17578125 C-46.57833328 80.51920532 -46.26213531 79.86262939 -45.93635559 79.18615723 C-42.52360769 72.07475382 -39.35357347 64.86020194 -36.18273926 57.6385498 C-30.67345142 45.10834935 -25.07259517 32.61907889 -19.30264282 20.206604 C-18.60620655 18.70534803 -17.91341644 17.20239469 -17.22445679 15.69769287 C-16.26950519 13.61500699 -15.30088353 11.53926016 -14.328125 9.46484375 C-13.7805957 8.285271 -13.23306641 7.10569824 -12.66894531 5.89038086 C-9.4551476 0.32453079 -6.36236392 -0.79529549 0 0 Z " fill="#FDFEFE" transform="translate(269,203)"/>
<path d="M0 0 C2.90543872 1.31376917 4.96661059 2.72056492 7.20800781 4.98095703 C7.80832825 5.58142853 8.40864868 6.18190002 9.02716064 6.80056763 C9.66272888 7.44645844 10.29829712 8.09234924 10.953125 8.7578125 C11.61334656 9.42086395 12.27356812 10.08391541 12.95379639 10.76705933 C15.05727824 12.88171832 17.15369142 15.00323212 19.25 17.125 C20.67662261 18.56165557 22.10370072 19.99785898 23.53125 21.43359375 C27.02613661 24.95050804 30.51470062 28.47358547 34 32 C32.14276623 36.03070124 29.47282533 38.78284024 26.3359375 41.859375 C25.78386627 42.40861633 25.23179504 42.95785767 24.66299438 43.52374268 C22.90498185 45.27059293 21.1401311 47.01034601 19.375 48.75 C18.1792292 49.93573591 16.98391135 51.1219288 15.7890625 52.30859375 C12.86459747 55.21105085 9.93398126 58.1071641 7 61 C3.37186484 59.312782 1.33086449 57.4080612 -1.3125 54.375 C-2.49779297 53.02535156 -2.49779297 53.02535156 -3.70703125 51.6484375 C-4.46371094 50.77445312 -5.22039062 49.90046875 -6 49 C-7.166313 47.66635729 -8.33294819 46.33299624 -9.5 45 C-10.05171875 44.36707031 -10.6034375 43.73414063 -11.171875 43.08203125 C-17.89667852 35.36403864 -17.89667852 35.36403864 -25 28 C-23.4752026 24.38138159 -21.32704608 22.10873126 -18.53515625 19.375 C-17.65279297 18.50359375 -16.77042969 17.6321875 -15.86132812 16.734375 C-14.4759082 15.38085938 -14.4759082 15.38085938 -13.0625 14 C-11.23862512 12.21063431 -9.41692109 10.41905256 -7.59765625 8.625 C-6.78820557 7.83351563 -5.97875488 7.04203125 -5.14477539 6.2265625 C-3.23416181 4.24309115 -1.59021865 2.2436586 0 0 Z " fill="#5E5F62" transform="translate(378,352)"/>
<path d="M0 0 C1.39356216 -0.01555183 1.39356216 -0.01555183 2.8152771 -0.03141785 C5.8812091 -0.05848591 8.94571055 -0.04882705 12.01171875 -0.03637695 C14.14494221 -0.04228547 16.27816235 -0.04953201 18.41137695 -0.05805969 C22.88022144 -0.06993986 27.34856785 -0.06323175 31.81738281 -0.04394531 C37.5444935 -0.02105315 43.27012115 -0.04784225 48.99708557 -0.08900738 C53.40151049 -0.11457992 57.80558027 -0.11200701 62.21005249 -0.10111427 C64.32157742 -0.09962713 66.4331295 -0.10732278 68.54458618 -0.12436485 C71.49678575 -0.14432544 74.44635913 -0.12596069 77.3984375 -0.09765625 C78.27027679 -0.11137268 79.14211609 -0.12508911 80.04037476 -0.13922119 C85.77460471 -0.02932579 85.77460471 -0.02932579 88.38101196 1.92183495 C90.95781335 4.80582922 91.69452988 6.39088728 91.76171875 10.2878418 C90.56231824 14.09770225 89.90899809 15.33031218 86.69921875 17.6628418 C83.64022961 18.26361972 80.62135756 18.21946787 77.51196289 18.19628906 C76.11861977 18.20921242 76.11861977 18.20921242 74.6971283 18.22239685 C71.62592723 18.24510332 68.55563522 18.238309 65.484375 18.22924805 C63.34972359 18.23448177 61.21507451 18.24075732 59.08042908 18.24803162 C54.60567344 18.25844466 50.13123562 18.25386156 45.65649414 18.23925781 C39.92167942 18.22207401 34.18786695 18.24555612 28.4531641 18.28074741 C24.04448301 18.30270744 19.63604222 18.30128317 15.22732353 18.2929821 C13.11301004 18.29216172 10.99867905 18.29904162 8.88441658 18.31375313 C5.92760755 18.33117164 2.97260543 18.31667824 0.01586914 18.29394531 C-0.8575412 18.30563751 -1.73095154 18.31732971 -2.63082886 18.32937622 C-6.98589409 18.26124403 -8.77528147 18.06357553 -12.3440094 15.34214783 C-14.30078125 12.6628418 -14.30078125 12.6628418 -14.92578125 9.1628418 C-13.38823224 0.55256732 -7.44930905 -0.07305522 0 0 Z " fill="#A5A5A4" transform="translate(50.30078125,361.337158203125)"/>
<path d="M0 0 C0.64414352 -0.00817749 1.28828705 -0.01635498 1.95195007 -0.02478027 C4.08742343 -0.04962667 6.22283023 -0.06615013 8.35839844 -0.08056641 C9.08825706 -0.08589008 9.81811569 -0.09121376 10.57009125 -0.09669876 C14.43490041 -0.1234299 18.29967731 -0.14280293 22.16455078 -0.15722656 C25.35982962 -0.17055614 28.55446835 -0.19838898 31.74951172 -0.23925781 C35.60983117 -0.28863606 39.46957079 -0.313354 43.33019257 -0.32045364 C44.79899167 -0.32715743 46.26777827 -0.34235708 47.73639679 -0.36634445 C60.67305629 -0.56554863 60.67305629 -0.56554863 64.61621094 2.59667969 C67.53997387 6.20858663 67.53997387 6.20858663 67.46777344 9.19287109 C67.49097656 10.15193359 67.49097656 10.15193359 67.51464844 11.13037109 C66.14358057 14.67901733 64.06096753 16.57403971 60.71777344 18.19287109 C55.70202543 18.94747275 50.70888618 18.87290511 45.65136719 18.82177734 C44.16976243 18.82260678 42.68815777 18.825069 41.20655823 18.8290863 C38.10885763 18.83193804 35.01188261 18.81730396 31.91430664 18.78979492 C27.95069484 18.75568204 23.98837714 18.76174547 20.02470303 18.7804575 C16.96793392 18.7910422 13.91146426 18.78207709 10.85472298 18.76707268 C9.39354403 18.76190312 7.93233366 18.76235777 6.47115898 18.76861763 C4.42695063 18.77408941 2.38457536 18.75363875 0.34057617 18.72631836 C-0.82047134 18.72011978 -1.98151886 18.7139212 -3.17774963 18.70753479 C-6.92263206 18.08670395 -8.58842964 16.81530992 -11.28222656 14.19287109 C-12.70884875 11.33962672 -12.59256524 9.3583256 -12.28222656 6.19287109 C-8.60076857 0.67068411 -6.44717038 0.07100506 0 0 Z " fill="#A6A6A5" transform="translate(48.2822265625,290.80712890625)"/>
<path d="M0 0 C1.28505936 -0.00960754 2.57011871 -0.01921509 3.89411926 -0.02911377 C5.30400414 -0.03396202 6.71389107 -0.03824079 8.1237793 -0.04199219 C9.56625877 -0.04774422 11.00873822 -0.05350195 12.45121765 -0.05926514 C15.47838701 -0.06977667 18.5055298 -0.07561805 21.53271484 -0.07910156 C25.40650507 -0.08458076 29.27994281 -0.10859544 33.15362263 -0.13707352 C36.13481155 -0.15572534 39.1159161 -0.16090688 42.09715843 -0.16243744 C43.52487295 -0.16545976 44.95258613 -0.17347413 46.3802433 -0.18662262 C48.38102865 -0.20373114 50.38195938 -0.19995111 52.3828125 -0.1953125 C53.52039505 -0.19895813 54.6579776 -0.20260376 55.83003235 -0.20635986 C60.22108144 0.32176859 62.80162555 2.07726032 65.88549805 5.16113281 C66.52065033 10.69603129 66.52065033 10.69603129 65.88549805 13.16113281 C63.31615939 16.30863554 61.8163053 17.9752051 57.77429199 18.78259277 C56.61022827 18.78053833 55.44616455 18.77848389 54.24682617 18.77636719 C53.60063828 18.7819162 52.95445038 18.78746521 52.28868103 18.79318237 C50.16393619 18.80494246 48.04134195 18.78074599 45.91674805 18.75488281 C44.43371681 18.7531706 42.95068254 18.75323852 41.46765137 18.75500488 C38.36396206 18.75335374 35.26099688 18.73469523 32.1574707 18.703125 C28.18613137 18.66344721 24.21573974 18.65908085 20.24423981 18.66658783 C17.1832008 18.66966251 14.12237347 18.65751947 11.06138611 18.64045715 C9.59742054 18.63344333 8.13343098 18.63030065 6.66944885 18.63114929 C4.62058448 18.62934438 2.57283974 18.60790647 0.52416992 18.58105469 C-0.6398938 18.5726355 -1.80395752 18.56421631 -3.0032959 18.55554199 C-6.47326408 18.11565236 -8.33341884 17.25159181 -11.11450195 15.16113281 C-13.4599987 11.6428877 -13.69441598 10.30337587 -13.11450195 6.16113281 C-8.81949393 1.0749391 -6.49116209 0.0390432 0 0 Z " fill="#A6A6A5" transform="translate(49.114501953125,325.8388671875)"/>
<path d="M0 0 C0.64589584 -0.00817749 1.29179169 -0.01635498 1.95726013 -0.02478027 C4.0921029 -0.04956814 6.22687957 -0.06613158 8.36181641 -0.08056641 C9.45710096 -0.08855192 9.45710096 -0.08855192 10.57451248 -0.09669876 C14.43817341 -0.12339939 18.30180235 -0.14278559 22.16552734 -0.15722656 C25.36080494 -0.17057515 28.5554453 -0.19844745 31.75048828 -0.23925781 C35.61195583 -0.28857647 39.47284474 -0.3133459 43.3346138 -0.32045364 C44.80423935 -0.32716424 46.27385208 -0.34238167 47.74329758 -0.36634445 C49.80220465 -0.39800911 51.85888157 -0.39803322 53.91796875 -0.390625 C55.67311295 -0.40275528 55.67311295 -0.40275528 57.4637146 -0.41513062 C61.5522568 0.38042385 63.03886672 1.96450276 65.58837891 5.19287109 C66.27415499 9.45992228 66.08861005 11.399401 63.77587891 15.06787109 C60.21837104 18.52373588 57.11676722 18.32533883 52.36035156 18.35400391 C51.07536774 18.36361145 49.79038391 18.37321899 48.46646118 18.38311768 C47.06178973 18.38796557 45.65711621 18.39224442 44.25244141 18.39599609 C42.81139118 18.40174987 41.37034097 18.40750758 39.92929077 18.41326904 C36.90809778 18.42377038 33.88693133 18.42961876 30.86572266 18.43310547 C26.99980822 18.43858947 23.13424612 18.46261876 19.26844215 18.49107742 C16.29154443 18.50972675 13.3147312 18.51491061 10.33778 18.51644135 C8.91285653 18.51946307 7.48793438 18.52747542 6.06306839 18.54062653 C4.06718191 18.55773359 2.07114972 18.55395523 0.07519531 18.54931641 C-1.05937103 18.55296204 -2.19393738 18.55660767 -3.36288452 18.56036377 C-6.81040478 18.14480197 -8.64856258 17.2658393 -11.41162109 15.19287109 C-13.84757382 11.53894201 -13.5373953 10.20151157 -12.89208984 6.06396484 C-12.27507036 3.66110035 -11.48862334 2.55091102 -9.41162109 1.19287109 C-6.07397169 0.08032129 -3.51754429 0.03871363 0 0 Z " fill="#A6A6A5" transform="translate(49.41162109375,396.80712890625)"/>
<path d="M0 0 C2.99853824 0.57926307 4.02701659 1.13454994 6.5 3.125 C8.42215815 7.05288838 7.98652553 9.9528321 6.9375 14.0625 C5.30007154 18.1864285 3.32927439 22.1201883 1.328125 26.078125 C0.76430115 27.21151306 0.20047729 28.34490112 -0.38043213 29.51263428 C-1.57172723 31.89929596 -2.76752994 34.28295876 -3.97167969 36.66308594 C-5.50900228 39.70348687 -7.02445054 42.75419208 -8.53371811 45.80859756 C-9.98475443 48.737637 -11.45411156 51.65744085 -12.921875 54.578125 C-13.73153717 56.21566742 -13.73153717 56.21566742 -14.55755615 57.8862915 C-15.07449036 58.90124695 -15.59142456 59.91620239 -16.12402344 60.96191406 C-16.57179138 61.85267639 -17.01955933 62.74343872 -17.480896 63.66119385 C-19.34412848 66.49008883 -21.26381119 68.16766606 -24.0625 70.0625 C-28.49605658 70.77503588 -30.3029927 70.59577109 -34 68 C-36.02359479 65.11791044 -36.60326456 63.74228275 -36.48641968 60.28036499 C-35.49181788 55.07680257 -32.71007606 50.39153355 -30.33203125 45.70703125 C-29.74459641 44.52783615 -29.15716156 43.34864105 -28.55192566 42.13371277 C-27.31071201 39.6454972 -26.05978273 37.16249381 -24.80151367 34.68286133 C-23.19442903 31.5141871 -21.61086438 28.3344389 -20.03424549 25.15051746 C-18.52046205 22.10081466 -16.98805872 19.06061464 -15.45703125 16.01953125 C-14.89224564 14.88095169 -14.32746002 13.74237213 -13.74555969 12.56929016 C-13.20537704 11.51106552 -12.6651944 10.45284088 -12.10864258 9.36254883 C-11.64009354 8.43324051 -11.17154449 7.50393219 -10.688797 6.54646301 C-8.07968251 2.56137056 -5.01071542 -0.72720124 0 0 Z " fill="#FDFEFE" transform="translate(231.0625,202.9375)"/>
<path d="M0 0 C0.66554901 -0.00861557 1.33109802 -0.01723114 2.01681519 -0.02610779 C4.2115597 -0.04876546 6.40502697 -0.04202999 8.59985352 -0.03295898 C10.12915933 -0.03819508 11.65846191 -0.04447151 13.1877594 -0.05174255 C16.39144089 -0.06214656 19.59467823 -0.05758628 22.79833984 -0.04296875 C26.89888046 -0.02578828 30.99801886 -0.04926503 35.09840298 -0.08445835 C38.25638571 -0.10644737 41.41403377 -0.10498729 44.57206917 -0.09669304 C46.08351237 -0.09587417 47.5949803 -0.10272536 49.10635185 -0.11746407 C51.22281218 -0.13493834 53.33676439 -0.12034945 55.453125 -0.09765625 C57.25703957 -0.09621361 57.25703957 -0.09621361 59.09739685 -0.09474182 C63.22617344 0.71733198 64.71738665 2.26770777 67.29125977 5.53344727 C67.91625977 9.03344727 67.91625977 9.03344727 67.29125977 12.53344727 C64.72002846 15.79309615 63.22418834 17.34759584 59.10412598 18.16836548 C57.90453247 18.17234344 56.70493896 18.17632141 55.46899414 18.18041992 C54.8032991 18.18918152 54.13760406 18.19794312 53.45173645 18.20697021 C51.26215466 18.22888795 49.07461025 18.21444204 46.88500977 18.19750977 C45.35713312 18.20088018 43.82925909 18.20573468 42.3013916 18.21200562 C39.10358076 18.21936648 35.90646956 18.20869796 32.70874023 18.18530273 C28.61602846 18.156814 24.52495604 18.17322239 20.43230438 18.20316505 C17.27858192 18.22126013 14.12524615 18.21547019 10.97151184 18.20252609 C9.46287338 18.19919812 7.95419945 18.20325782 6.44560242 18.21492386 C4.33396865 18.22767084 2.22496397 18.20820978 0.11352539 18.18041992 C-1.08606812 18.17644196 -2.28566162 18.17246399 -3.52160645 18.16836548 C-7.61177713 17.35355065 -9.11925433 15.72912163 -11.70874023 12.53344727 C-12.11889648 10.43579102 -12.11889648 10.43579102 -11.77124023 8.47094727 C-11.6797168 7.8199707 -11.58819336 7.16899414 -11.49389648 6.49829102 C-9.23981235 0.8574735 -5.69556011 0.0293759 0 0 Z " fill="#A5A5A4" transform="translate(47.708740234375,255.466552734375)"/>
<path d="M0 0 C0.87173859 -0.00807175 1.74347717 -0.01614349 2.64163208 -0.02445984 C4.48584004 -0.03828537 6.33007342 -0.04901437 8.17431641 -0.05688477 C10.99040232 -0.07411224 13.80531835 -0.1180128 16.62109375 -0.16210938 C18.41405388 -0.17223553 20.20702397 -0.18075187 22 -0.1875 C22.83973358 -0.20500809 23.67946716 -0.22251617 24.54464722 -0.24055481 C28.54593593 -0.22575145 30.64098865 -0.05792268 34.14111328 2.05004883 C36.90083025 5.08208404 37.1328125 7.1801367 37.1328125 11.23828125 C35.89510599 14.33254752 34.99847265 15.77260246 32.0546875 17.35620117 C28.19930283 18.52009696 24.49752051 18.54366703 20.5078125 18.5390625 C19.6832959 18.54334763 18.8587793 18.54763275 18.00927734 18.55204773 C16.27116817 18.55777439 14.53303504 18.55830358 12.79492188 18.55395508 C10.14151062 18.55079162 7.48921138 18.57428625 4.8359375 18.59960938 C3.14323057 18.60188226 1.45052065 18.60258592 -0.2421875 18.6015625 C-1.03189941 18.61077225 -1.82161133 18.61998199 -2.63525391 18.62947083 C-7.22710352 18.5910418 -10.24291611 18.1308265 -13.8671875 15.23828125 C-16.30314022 11.58435216 -15.9929617 10.24692172 -15.34765625 6.109375 C-14.73063676 3.7065105 -13.94418975 2.59632118 -11.8671875 1.23828125 C-7.91945056 -0.07763106 -4.11804635 0.03605164 0 0 Z " fill="#A6A6A5" transform="translate(148.8671875,396.76171875)"/>
</svg>
