<?xml version="1.0" encoding="UTF-8"?>
<svg version="1.1" xmlns="http://www.w3.org/2000/svg" width="512" height="512">
<path d="M0 0 C0.90795822 -0.00014603 1.81591644 -0.00029205 2.75138855 -0.0004425 C5.73809234 0.00025148 8.72473295 0.00801976 11.71142578 0.01586914 C13.787933 0.01773515 15.86444067 0.01915819 17.94094849 0.02015686 C23.39564233 0.02396765 28.85030939 0.03378564 34.30499268 0.04486084 C39.87536252 0.0551059 45.44573672 0.05966111 51.01611328 0.06469727 C61.93800003 0.07540922 72.85986692 0.09246835 83.78173828 0.11352539 C83.90087334 0.95750885 83.90087334 0.95750885 84.02241516 1.81854248 C84.39152628 4.41241495 84.7682274 7.00513299 85.14501953 9.59790039 C85.26977661 10.48268066 85.39453369 11.36746094 85.52307129 12.27905273 C88.20766942 30.60343685 95.17237296 48.33524455 107.78173828 62.11352539 C108.38373047 62.80704102 108.98572266 63.50055664 109.60595703 64.21508789 C122.1043922 77.78781204 140.23416557 84.20934773 158.30126953 85.33227539 C180.36070871 85.88664873 200.11648591 79.00363087 216.25048828 63.73071289 C232.27614778 47.16097236 237.79632449 25.12170753 240.45629883 2.94848633 C240.78173828 1.11352539 240.78173828 1.11352539 241.78173828 0.11352539 C244.60420267 -0.00304394 247.40251339 -0.05449799 250.22607422 -0.06347656 C251.1124205 -0.07004776 251.99876678 -0.07661896 252.91197205 -0.08338928 C255.86335326 -0.10319283 258.81468314 -0.11480731 261.76611328 -0.12475586 C262.77499855 -0.12883139 263.78388382 -0.13290691 264.82334137 -0.13710594 C270.17454323 -0.15800769 275.52571921 -0.17228532 280.87695312 -0.18164062 C286.38107363 -0.19264705 291.88478333 -0.22696786 297.38875961 -0.26681232 C301.63729549 -0.29310208 305.88573597 -0.30134393 310.13434601 -0.3049221 C312.16112253 -0.30976492 314.18789546 -0.32131231 316.21459198 -0.3399601 C330.1632661 -0.46020916 343.64756049 -0.54910977 354.84423828 9.06274414 C362.93511879 17.62668016 365.09991175 27.24304055 365.02224731 38.65539551 C365.02481059 40.04997286 365.02481059 40.04997286 365.02742565 41.47272348 C365.03070568 44.57116951 365.01974137 47.66939637 365.00878906 50.76782227 C365.00822463 52.9955749 365.00854214 55.2233279 365.00967407 57.45108032 C365.01024732 63.48763686 364.99849738 69.52411373 364.98452616 75.56065178 C364.97201426 81.87339752 364.97084793 88.18614514 364.96847534 94.49890137 C364.96296765 105.09083405 364.95047958 115.68274066 364.93261719 126.2746582 C364.9142428 137.18155777 364.90009393 148.0884494 364.89160156 158.99536133 C364.89107612 159.66832054 364.89055067 160.34127975 364.8900093 161.03463167 C364.88739911 164.41086665 364.88487172 167.78710168 364.88238549 171.16333675 C364.86167172 199.14675784 364.82481209 227.1301293 364.78173828 255.11352539 C350.92173828 255.11352539 337.06173828 255.11352539 322.78173828 255.11352539 C322.67861328 248.94665039 322.57548828 242.77977539 322.46923828 236.42602539 C321.56092042 196.20260176 313.04392291 161.25218989 283.21142578 132.29711914 C271.58545202 121.84869577 258.14932366 114.14090267 243.78173828 108.11352539 C242.50943359 107.55665039 242.50943359 107.55665039 241.21142578 106.98852539 C238.00859657 105.83509494 235.1564123 105.98118523 231.78173828 106.11352539 C231.52231445 106.81501709 231.26289063 107.51650879 230.99560547 108.23925781 C229.67359548 111.36959241 228.08955233 114.17675779 226.35986328 117.10180664 C225.8550518 117.95917419 225.8550518 117.95917419 225.34004211 118.8338623 C224.24049089 120.69983598 223.13615897 122.56293044 222.03173828 124.42602539 C220.87368942 126.38771903 219.71675065 128.3500647 218.55982971 130.31242371 C217.77594216 131.64178577 216.99162784 132.97089628 216.20689392 134.29975891 C213.14216912 139.49171766 210.11117361 144.70274064 207.08789062 149.91894531 C201.17841158 160.11035576 195.11985555 170.18283473 188.78173828 180.11352539 C186.78173828 179.11352539 186.78173828 179.11352539 185.8203125 176.44897461 C185.49562988 175.28382324 185.17094727 174.11867188 184.83642578 172.91821289 C184.66168732 172.29254425 184.48694885 171.66687561 184.30691528 171.02224731 C183.93825899 169.69341992 183.57369842 168.36345058 183.21289062 167.0324707 C182.66370281 165.01412112 182.09678932 163.00137864 181.52783203 160.98852539 C181.17127088 159.69455508 180.81576931 158.40029224 180.46142578 157.10571289 C180.13899902 155.93379395 179.81657227 154.761875 179.484375 153.55444336 C178.13031587 146.92341159 178.49114127 142.58090727 181.89892578 136.89477539 C186.97805011 129.39200252 192.60235821 122.25522619 198.11767578 115.07055664 C198.74931641 114.21848633 199.38095703 113.36641602 200.03173828 112.48852539 C200.57314453 111.77438477 201.11455078 111.06024414 201.67236328 110.32446289 C203.10001598 107.47921139 202.97961865 105.25262766 202.78173828 102.11352539 C199.13856249 99.82337172 196.04319221 99.85445235 191.79760742 99.83886719 C191.1027977 99.83375626 190.40798798 99.82864532 189.69212341 99.82337952 C187.4002923 99.80950419 185.1087626 99.81043867 182.81689453 99.81274414 C181.22033069 99.80885609 179.62376789 99.80452119 178.02720642 99.79975891 C174.68241013 99.79230116 171.3377194 99.79258475 167.99291992 99.79785156 C163.71112836 99.80364587 159.4297694 99.78671425 155.14804935 99.76350689 C151.8511656 99.74875993 148.5543858 99.74789914 145.2574749 99.75101662 C143.67905254 99.75050389 142.10062428 99.74527534 140.52223396 99.7352047 C138.31295962 99.72283846 136.10452503 99.72963225 133.89526367 99.74121094 C132.01140709 99.7402668 132.01140709 99.7402668 130.0894928 99.73930359 C126.55121081 100.13960605 124.64693293 101.05499163 121.78173828 103.11352539 C122.15438398 109.00314522 124.67834474 112.17285647 128.21923828 116.61352539 C129.30909705 118.02266395 130.39761351 119.43284159 131.48486328 120.84399414 C132.03464844 121.55217285 132.58443359 122.26035156 133.15087891 122.98999023 C135.65768405 126.2540907 138.07250746 129.58063486 140.46923828 132.92602539 C141.10140259 133.79614258 141.10140259 133.79614258 141.74633789 134.68383789 C145.9299468 140.52572794 146.43338549 145.09492794 145.78173828 152.11352539 C144.69009297 157.22813821 143.2552078 162.22477341 141.78173828 167.23852539 C141.39511964 168.58974455 141.00969392 169.94130564 140.62548828 171.29321289 C139.68920791 174.57019418 138.74107471 177.84323427 137.78173828 181.11352539 C134.42587339 177.8848292 132.21247638 174.63399768 130.03173828 170.55102539 C125.90040849 163.01575018 121.55723349 155.61945669 117.15673828 148.23852539 C112.88640311 141.07341405 108.63797865 133.89816632 104.48486328 126.66430664 C104.13956573 126.06309998 103.79426819 125.46189331 103.43850708 124.84246826 C101.7800415 121.95213876 100.1267438 119.05903205 98.47851562 116.1628418 C97.89021973 115.13465332 97.30192383 114.10646484 96.69580078 113.04711914 C95.92163818 111.68671509 95.92163818 111.68671509 95.13183594 110.29882812 C93.83669813 108.01521055 93.83669813 108.01521055 91.78173828 106.11352539 C85.66057579 106.38661316 80.75534418 108.02266758 75.21923828 110.55102539 C74.04796387 111.08228027 74.04796387 111.08228027 72.85302734 111.62426758 C45.32297962 124.52233545 23.1225959 147.8291284 11.78173828 176.11352539 C10.58284846 179.44047914 9.50286573 182.79434569 8.46923828 186.17602539 C8.22665283 186.96638184 7.98406738 187.75673828 7.73413086 188.57104492 C3.49820067 203.22984892 3.38002824 217.78533781 3.15673828 232.92602539 C3.11847958 235.08294084 3.07942352 237.2398423 3.03955078 239.39672852 C2.94294498 244.63558067 2.86270207 249.87431579 2.78173828 255.11352539 C-11.07826172 255.11352539 -24.93826172 255.11352539 -39.21826172 255.11352539 C-39.30650553 226.1104985 -39.38033827 197.10756626 -39.42252304 168.10443879 C-39.42752564 164.6774544 -39.43270295 161.25047029 -39.43798828 157.82348633 C-39.43903752 157.14125865 -39.44008676 156.45903097 -39.4411678 155.75612973 C-39.45855533 144.72124704 -39.49008384 133.68644803 -39.5268729 122.65161492 C-39.56432845 111.32206362 -39.58620805 99.99257421 -39.5946157 88.66295707 C-39.59982694 82.3021187 -39.61206136 75.94146987 -39.64118195 69.58069229 C-39.66838278 63.59056868 -39.67669713 57.60071226 -39.67069244 51.61053276 C-39.67179058 49.41519022 -39.67971637 47.21983851 -39.69508362 45.02454948 C-39.71508425 42.01930689 -39.7101639 39.0150635 -39.69927979 36.00979614 C-39.71093115 35.1478974 -39.72258252 34.28599865 -39.73458695 33.39798176 C-39.64202983 23.89602199 -36.13278511 16.02605571 -29.63232422 9.16040039 C-20.70842655 1.59385932 -11.27415669 -0.04779653 0 0 Z " fill="#653A8D" transform="translate(93.21826171875,138.886474609375)"/>
<path d="M0 0 C1.30175781 1.72631836 1.30175781 1.72631836 2.453125 3.83984375 C3.12178589 5.04193481 3.12178589 5.04193481 3.80395508 6.26831055 C4.2811499 7.14914307 4.75834473 8.02997559 5.25 8.9375 C6.31934071 10.86064112 7.39107469 12.78245289 8.46484375 14.703125 C9.32118408 16.23936523 9.32118408 16.23936523 10.19482422 17.80664062 C13.31136305 23.31980372 16.5668683 28.7496813 19.8125 34.1875 C25.17147387 43.19098552 30.46628628 52.22815654 35.6875 61.3125 C40.77710828 70.16765007 45.90558345 78.99673483 51.1394043 87.76757812 C54.0762743 92.69844021 56.94366717 97.65926947 59.74609375 102.66796875 C60.37249756 103.77575684 60.99890137 104.88354492 61.64428711 106.02490234 C62.8579949 108.17511798 64.05861658 110.3327864 65.24438477 112.49853516 C65.79280029 113.46452637 66.34121582 114.43051758 66.90625 115.42578125 C67.38384766 116.28598877 67.86144531 117.14619629 68.35351562 118.0324707 C69.88505854 120.20204627 69.88505854 120.20204627 72.54101562 120.89746094 C75.17218255 121.26334226 75.17218255 121.26334226 77.4375 119.21484375 C81.0138677 115.15800609 83.42927428 110.28595363 86 105.5625 C87.15964305 103.47164841 88.32114695 101.38182797 89.484375 99.29296875 C90.07154297 98.2364209 90.65871094 97.17987305 91.26367188 96.09130859 C93.85543088 91.4770155 96.54405437 86.9230034 99.25 82.375 C100.32953978 80.55735859 101.40896339 78.73964819 102.48828125 76.921875 C103.0498291 75.97634766 103.61137695 75.03082031 104.18994141 74.05664062 C107.62433452 68.25699108 111.03009596 62.44053002 114.4375 56.625 C114.7980246 56.00994598 115.15854919 55.39489197 115.52999878 54.76119995 C119.88805344 47.3261112 124.23394361 39.88410284 128.56811523 32.43505859 C135.28207875 20.89775363 142.0955631 9.42433201 149 -2 C165.6020894 3.29251977 178.36979842 12.10891521 191 24 C191.61488281 24.55042969 192.22976563 25.10085938 192.86328125 25.66796875 C211.65486942 43.16358532 221.55516055 70.90993407 223 96 C223.39996373 109.32768819 223.13372336 122.6722388 223 136 C205.84 136 188.68 136 171 136 C170.125 116.125 170.125 116.125 169.86376953 109.85205078 C169.7875366 108.2164361 169.71059943 106.58085402 169.6328125 104.9453125 C169.58338501 103.66515259 169.58338501 103.66515259 169.53295898 102.35913086 C169.49969312 97.69890704 169.49969312 97.69890704 167 94 C164.5 93.58333333 164.5 93.58333333 162 94 C154.22539747 105.66190379 160 121.98413597 160 136 C103.57 136 47.14 136 -11 136 C-11.33 124.78 -11.66 113.56 -12 102 C-12.495 98.04 -12.495 98.04 -13 94 C-17.14093698 93.79029441 -17.14093698 93.79029441 -21 95 C-22.01944393 100.03207173 -22.13512637 105.00657021 -22.09765625 110.12109375 C-22.09664917 110.7824231 -22.09564209 111.44375244 -22.09460449 112.12512207 C-22.0894276 114.56259937 -22.07546698 117.00005169 -22.0625 119.4375 C-22.041875 124.903125 -22.02125 130.36875 -22 136 C-39.49 136 -56.98 136 -75 136 C-75.061875 128.760625 -75.12375 121.52125 -75.1875 114.0625 C-75.21481201 111.81574463 -75.24212402 109.56898926 -75.27026367 107.25415039 C-75.37890269 92.07908983 -74.40878365 77.58959476 -68.8125 63.3125 C-68.51206787 62.52560791 -68.21163574 61.73871582 -67.90209961 60.92797852 C-63.3562228 49.40949621 -57.12535822 39.36587092 -49 30 C-48.32453125 29.18015625 -47.6490625 28.3603125 -46.953125 27.515625 C-37.47835139 16.38103703 -25.83131515 8.74030531 -13 2 C-12.09507812 1.52046875 -11.19015625 1.0409375 -10.2578125 0.546875 C-4.0417309 -2.51021431 -4.0417309 -2.51021431 0 0 Z " fill="#433B8D" transform="translate(182,258)"/>
<path d="M0 0 C1.17699463 0.00757324 2.35398926 0.01514648 3.56665039 0.02294922 C21.9194125 0.36872773 37.78346674 5.48440196 50.9921875 18.58984375 C65.23528501 33.6379859 68.74499262 53.3561507 68.6875 73.4375 C67.93114829 96.15677353 60.16497751 118.34147233 43.6875 134.4375 C30.35278166 145.92870889 13.7584175 150.12623973 -3.609375 149.7265625 C-20.71721297 148.39114055 -35.6921321 142.19666782 -47.56640625 129.58203125 C-64.64828055 108.60227959 -69.71011787 82.70242407 -67.08544922 56.13964844 C-64.94814532 40.04390301 -57.72854281 24.01960707 -45.02734375 13.5546875 C-31.42482789 3.59531773 -16.7298043 -0.15220993 0 0 Z " fill="#873A8D" transform="translate(255.3125,64.5625)"/>
<path d="M0 0 C1.50071589 -0.01882949 3.00141814 -0.03877295 4.50210571 -0.05973816 C9.39990774 -0.12241259 14.29770803 -0.15388978 19.19580078 -0.18383789 C20.88977318 -0.19599475 22.58374419 -0.20834592 24.27771378 -0.22088814 C32.23492587 -0.27793056 40.19205618 -0.32065709 48.14943302 -0.34572405 C57.30673418 -0.37505694 66.46186282 -0.45409158 75.61839855 -0.57522672 C82.71764953 -0.665896 89.81627933 -0.71014675 96.91609776 -0.72006708 C101.14771666 -0.72709493 105.37700484 -0.75364354 109.60799789 -0.82945061 C113.59004245 -0.89965815 117.56824219 -0.9118652 121.55074692 -0.88116646 C123.00401674 -0.87968866 124.45748377 -0.8984117 125.91016388 -0.93983459 C132.03608207 -1.10461608 137.48495633 -1.14852442 142.22455215 3.07949638 C145.1013927 6.01842492 147.56267096 9.23208109 150.01611328 12.53100586 C150.9099773 13.6416192 151.80999266 14.74731209 152.7163372 15.84776402 C154.24111076 17.70073594 155.74990502 19.56702832 157.23876953 21.44897461 C158.84999944 23.61041169 158.84999944 23.61041169 161.01611328 24.53100586 C163.15830739 24.65876452 165.30446204 24.72175395 167.45019531 24.75561523 C168.11063339 24.76700531 168.77107147 24.77839539 169.45152283 24.79013062 C176.36959939 24.90089843 183.28874292 24.94823754 190.20751953 24.9909668 C193.48637488 25.01320843 196.76408592 25.05492285 200.04248047 25.11401367 C204.00661329 25.18531983 207.96967272 25.22183047 211.93441391 25.23408508 C213.44070369 25.24445162 214.94696325 25.26679533 216.45288467 25.30168152 C226.33766615 25.65791113 226.33766615 25.65791113 234.84301758 21.16601562 C235.94134072 19.99104476 237.00453448 18.78143722 238.01611328 17.53100586 C239.29035156 16.10594727 239.29035156 16.10594727 240.59033203 14.65209961 C241.28771484 13.76651367 241.98509766 12.88092773 242.70361328 11.96850586 C243.40873047 11.0803418 244.11384766 10.19217773 244.84033203 9.27709961 C247.1036799 6.57643224 247.1036799 6.57643224 248.73725891 3.40591431 C250.73084526 1.05660536 251.84639977 0.56343053 254.91654015 -0.02313614 C258.83543689 -0.23958239 262.73133281 -0.25753299 266.65356445 -0.21362305 C268.16516115 -0.21848117 269.67675141 -0.22592205 271.18832397 -0.23574829 C275.29015169 -0.25455192 279.39102359 -0.23572541 283.49277663 -0.20908403 C287.79224873 -0.18642085 292.09167489 -0.19467321 296.39118958 -0.19857788 C303.61666427 -0.20034373 310.8417637 -0.17819245 318.06713867 -0.14135742 C326.40314569 -0.09910175 334.73860148 -0.0919852 343.07469386 -0.10448134 C351.10781025 -0.1159041 359.14073381 -0.10453065 367.1738224 -0.08213425 C370.58467513 -0.0728808 373.99540917 -0.07107785 377.40627098 -0.07530594 C381.43250072 -0.07909609 385.45817624 -0.06267979 389.48427963 -0.03118515 C390.95555006 -0.02275677 392.42687704 -0.02095945 393.89816093 -0.02656555 C405.3519889 -0.06356103 414.0926778 1.31113269 422.73876953 9.16381836 C424.60582704 11.16219796 425.00372625 12.43041716 425.34033203 15.16381836 C424.9081607 19.6521519 423.12202793 22.58970573 420.82861328 26.40600586 C420.44125 27.0750293 420.05388672 27.74405273 419.65478516 28.43334961 C418.46212259 30.47960373 417.25079936 32.50974537 416.01611328 34.53100586 C415.806155 35.1701747 415.59619673 35.80934355 415.37987608 36.46788114 C414.25118994 39.16730624 413.26673236 40.63123737 411.01611328 42.53100586 C405.42278198 43.810052 399.84361952 43.61527677 394.13075256 43.55360413 C392.35702709 43.5635354 390.58331826 43.57695207 388.80964273 43.59356016 C383.92944639 43.62897757 379.05047842 43.61429346 374.17025387 43.59146225 C368.90968464 43.57545415 363.64935062 43.60536614 358.38883972 43.62937927 C348.08085678 43.66886132 337.77332706 43.66481838 327.46530444 43.64510316 C319.08919346 43.62978535 310.71321229 43.62967145 302.33709526 43.6404705 C301.14609971 43.64198509 299.95510417 43.64349968 298.72801785 43.64506016 C296.30870987 43.64819019 293.88940192 43.6513496 291.47009402 43.65453809 C268.76968908 43.68254083 246.06953757 43.66066822 223.36916136 43.62235104 C203.88258569 43.59069811 184.39645465 43.6039238 164.90991211 43.64941406 C142.29369134 43.70220061 119.67774368 43.72558597 97.0614633 43.70316499 C94.6506246 43.70086819 92.23978585 43.6986161 89.82894707 43.69640923 C88.64269886 43.69531573 87.45645066 43.69422224 86.23425554 43.69309561 C77.86673122 43.68747242 69.49940094 43.70313061 61.13191414 43.72709846 C50.93657322 43.7558019 40.74184131 43.75275068 30.54654533 43.70862383 C25.34249898 43.68692808 20.13950038 43.67977101 14.93548203 43.71152115 C10.17351507 43.74017362 5.41353814 43.7274561 0.65172427 43.68139415 C-1.07297221 43.67201571 -2.79783138 43.67790172 -4.52240681 43.70038474 C-17.41766813 43.8560694 -17.41766813 43.8560694 -21.26841462 40.5982331 C-22.8383228 38.28956927 -23.91823358 36.10428102 -24.98388672 33.53100586 C-25.826082 32.12880053 -26.68642947 30.73714395 -27.57373047 29.36303711 C-28.35981766 28.02526435 -29.14241395 26.68543375 -29.92138672 25.34350586 C-30.53723633 24.33513672 -30.53723633 24.33513672 -31.16552734 23.30639648 C-33.04115814 20.05804433 -33.98317574 18.11827154 -33.98779297 14.30444336 C-32.81490482 11.06416872 -31.57532881 9.5975206 -28.98388672 7.34350586 C-28.26201172 6.68995117 -27.54013672 6.03639648 -26.79638672 5.36303711 C-18.48005918 -0.05412625 -9.65607985 0.05357003 0 0 Z M322.01611328 18.53100586 C322.27172651 20.87412716 322.60882101 23.20943989 323.01611328 25.53100586 C326.65991317 27.3529058 330.94193813 26.75860991 334.95361328 26.78100586 C336.33323242 26.81194336 336.33323242 26.81194336 337.74072266 26.84350586 C339.06620117 26.85124023 339.06620117 26.85124023 340.41845703 26.85913086 C341.22790771 26.86847656 342.0373584 26.87782227 342.87133789 26.88745117 C345.54409526 26.44325928 346.44326368 25.71227894 348.01611328 23.53100586 C348.01611328 20.44767253 348.01611328 20.44767253 347.01611328 17.53100586 C342.95726294 14.82510563 339.84096788 15.19968232 335.07861328 15.21850586 C333.86141602 15.19433594 333.86141602 15.19433594 332.61962891 15.16967773 C328.19257535 15.16604603 325.27486053 15.16570557 322.01611328 18.53100586 Z M358.01611328 19.53100586 C358.17761533 22.92254881 358.59908085 24.11397343 361.01611328 26.53100586 C364.06616775 26.7434578 367.02305956 26.83495815 370.07470703 26.83178711 C371.42484642 26.8382148 371.42484642 26.8382148 372.80226135 26.84477234 C374.70792804 26.85052116 376.61361668 26.85101185 378.51928711 26.84667969 C381.43853138 26.84352217 384.35676022 26.8669632 387.27587891 26.89233398 C389.125487 26.89460713 390.97509782 26.8953104 392.82470703 26.89428711 C393.69977402 26.90349686 394.574841 26.9127066 395.47642517 26.92219543 C396.29059402 26.91596664 397.10476288 26.90973785 397.94360352 26.90332031 C399.01710304 26.90426445 399.01710304 26.90426445 400.11228943 26.90522766 C402.60628218 26.41500034 403.51457733 25.55480553 405.01611328 23.53100586 C405.01611328 20.44767253 405.01611328 20.44767253 404.01611328 17.53100586 C400.13223589 14.94175427 396.84062008 15.20722944 392.33251953 15.19506836 C391.48060532 15.18841156 390.6286911 15.18175476 389.7509613 15.17489624 C387.94963744 15.16477384 386.14827611 15.16007909 384.34692383 15.16040039 C381.59214475 15.15602734 378.8389682 15.11970544 376.08447266 15.08178711 C374.33382709 15.07591881 372.58317392 15.07194951 370.83251953 15.07006836 C370.00949844 15.05569733 369.18647736 15.04132629 368.33851624 15.02651978 C363.58086616 15.06449868 360.87432421 15.29622477 358.01611328 19.53100586 Z " fill="#253B8D" transform="translate(59.98388671875,404.468994140625)"/>
<path d="M0 0 C16.5 0 33 0 50 0 C45.61910724 6.88426006 41.32326797 13.50436602 36.38867188 19.9453125 C31.7530476 26.22256971 30.39623123 32.29716495 31 40 C31.62453132 43.15502355 32.51686661 46.20636878 33.44140625 49.28515625 C33.9473913 51.05009418 34.45324679 52.81506927 34.95898438 54.58007812 C35.76036734 57.32848483 36.56632559 60.07547899 37.37573242 62.8215332 C38.15927499 65.49368767 38.92596154 68.1702713 39.69140625 70.84765625 C39.93717911 71.66138199 40.18295197 72.47510773 40.43617249 73.31349182 C42.17345901 79.42093687 42.38039148 84.03912853 39.6171875 89.96606445 C38.75480469 91.40018677 38.75480469 91.40018677 37.875 92.86328125 C37.25109375 93.91451172 36.6271875 94.96574219 35.984375 96.04882812 C35.32953125 97.12583984 34.6746875 98.20285156 34 99.3125 C32.70822952 101.47519841 31.41655772 103.63795577 30.125 105.80078125 C29.26261719 107.22644409 29.26261719 107.22644409 28.3828125 108.6809082 C27.01038765 110.91759172 27.01038765 110.91759172 26 113 C22.31787747 111.77262582 22.06382691 110.86551664 20.22265625 107.5546875 C19.70896484 106.64203125 19.19527344 105.729375 18.66601562 104.7890625 C18.13685547 103.82742188 17.60769531 102.86578125 17.0625 101.875 C16.53720703 100.9365625 16.01191406 99.998125 15.47070312 99.03125 C14.44245327 97.19352685 13.42261162 95.35106999 12.41186523 93.50366211 C11.549493 91.97441651 10.64838307 90.46523702 9.68383789 88.99829102 C7.72162734 85.9949246 6.97414351 84.35478491 7.23828125 80.73046875 C7.59277344 79.56128906 7.94726562 78.39210938 8.3125 77.1875 C8.50038086 76.52516357 8.68826172 75.86282715 8.88183594 75.18041992 C9.31378155 73.66098171 9.75786355 72.1449621 10.21142578 70.63183594 C11.44702778 66.5080621 12.63308636 62.37130734 13.79370117 58.22583008 C14.41600419 56.00463566 15.0546702 53.78793918 15.7121582 51.5769043 C18.12218364 43.02869161 20.33869638 33.19338687 16.41796875 24.76953125 C15.65429199 23.48686394 14.84476253 22.23077776 14 21 C13.4942041 20.2579834 12.9884082 19.5159668 12.46728516 18.75146484 C10.78662265 16.36662789 9.0602016 14.02357511 7.3125 11.6875 C6.13846373 10.11064563 4.96773298 8.53132321 3.80078125 6.94921875 C3.28684814 6.26174561 2.77291504 5.57427246 2.2434082 4.8659668 C1 3 1 3 0 0 Z " fill="#503A8D" transform="translate(231,250)"/>
<path d="M0 0 C27.72 0 55.44 0 84 0 C82.68 1.98 81.36 3.96 80 6 C79.52992523 6.75730911 79.05985046 7.51461823 78.57553101 8.2948761 C76.09184047 11.75372558 74.20404736 13.69145842 70.00616455 14.7671814 C66.26638989 15.11014276 62.60709791 15.18735894 58.8515625 15.16796875 C57.47063318 15.18100152 56.08972078 15.19595324 54.70883179 15.21272278 C51.82182842 15.23797153 48.93679137 15.2329981 46.04980469 15.20776367 C42.37017042 15.1790078 38.69766871 15.23628485 35.01903725 15.31794262 C32.16851581 15.36967669 29.31967644 15.3696466 26.46879196 15.35515785 C24.46075975 15.35546168 22.45291016 15.4029054 20.44546509 15.45146179 C14.9586191 15.34070546 11.4158083 15.20567547 7.14129639 11.56558228 C4.06854522 7.89415629 1.52088945 4.56266836 0 0 Z " fill="#2A3B8D" transform="translate(214,405)"/>
</svg>
