<?xml version="1.0" encoding="UTF-8"?>
<svg version="1.1" xmlns="http://www.w3.org/2000/svg" width="512" height="512">
<path d="M0 0 C0.85207031 0.32742188 1.70414062 0.65484375 2.58203125 0.9921875 C16.84636987 7.14719345 26.40698003 19.98075232 32.703125 33.65625 C37.86040532 46.95333421 38.26103807 63.7886246 33.25390625 77.1875 C25.60141867 94.35195812 13.60958332 106.97358457 -4.08935547 113.80664062 C-6.05653057 114.54590027 -8.02796945 115.27379192 -10 116 C-8.22109375 116.4021875 -8.22109375 116.4021875 -6.40625 116.8125 C19.27629708 122.90820171 40.80007177 136.35505415 54.96386719 159.24951172 C69.58163491 183.94541054 67 208.0384615 67 237 C7.27 237 -52.46 237 -114 237 C-114 170.65714286 -114 170.65714286 -93 147 C-92.20722656 145.99453125 -92.20722656 145.99453125 -91.3984375 144.96875 C-77.86765649 128.1719184 -58.39636667 120.61135246 -38 116 C-39.57587891 115.34644531 -39.57587891 115.34644531 -41.18359375 114.6796875 C-57.67038151 107.73602072 -71.94778711 98.77739519 -79.44140625 81.71875 C-85.66911989 65.96316676 -86.81020261 47.80778817 -80 32 C-79.67257812 31.14792969 -79.34515625 30.29585938 -79.0078125 29.41796875 C-72.85280655 15.15363013 -60.01924768 5.59301997 -46.34375 -0.703125 C-31.87200808 -6.31599686 -14.26250164 -6.14447289 0 0 Z " fill="#6680FF" transform="translate(445,275)"/>
<path d="M0 0 C0.85207031 0.32742188 1.70414062 0.65484375 2.58203125 0.9921875 C16.84636987 7.14719345 26.40698003 19.98075232 32.703125 33.65625 C37.86040532 46.95333421 38.26103807 63.7886246 33.25390625 77.1875 C25.60141867 94.35195812 13.60958332 106.97358457 -4.08935547 113.80664062 C-6.05653057 114.54590027 -8.02796945 115.27379192 -10 116 C-8.22109375 116.4021875 -8.22109375 116.4021875 -6.40625 116.8125 C9.44256031 120.57504873 22.7094911 126.08994681 35 137 C35.6703125 137.52851563 36.340625 138.05703125 37.03125 138.6015625 C53.99915664 152.27015396 60.57699285 171.39257281 66 192 C66 206.85 66 221.7 66 237 C6.27 237 -53.46 237 -115 237 C-115 182.73119469 -115 182.73119469 -107.375 167.3125 C-106.86622314 166.26243774 -106.86622314 166.26243774 -106.34716797 165.19116211 C-102.7553427 158.06994284 -98.23070862 151.99168461 -93 146 C-92.23042969 145.11828125 -91.46085937 144.2365625 -90.66796875 143.328125 C-76.36624161 128.05397528 -58.09429812 120.43640348 -38 116 C-39.57587891 115.34644531 -39.57587891 115.34644531 -41.18359375 114.6796875 C-57.67038151 107.73602072 -71.94778711 98.77739519 -79.44140625 81.71875 C-85.66911989 65.96316676 -86.81020261 47.80778817 -80 32 C-79.67257813 31.14792969 -79.34515625 30.29585938 -79.0078125 29.41796875 C-72.85280655 15.15363013 -60.01924768 5.59301997 -46.34375 -0.703125 C-31.87200808 -6.31599686 -14.26250164 -6.14447289 0 0 Z " fill="#9999FF" transform="translate(115,275)"/>
<path d="M0 0 C12.23116229 9.17814206 21.78595235 23.70604006 24 39 C25.36642179 56.96591609 23.30621485 73.04239187 11.9296875 87.66015625 C2.26389761 98.82464875 -8.37908397 104.62730534 -22 110 C-20.22109375 110.4021875 -20.22109375 110.4021875 -18.40625 110.8125 C-2.55743969 114.57504873 10.7094911 120.08994681 23 131 C23.6703125 131.52851563 24.340625 132.05703125 25.03125 132.6015625 C41.99915664 146.27015396 48.57699285 165.39257281 54 186 C54 200.52 54 215.04 54 230 C-5.4 230 -64.8 230 -126 230 C-126 164.65714286 -126 164.65714286 -105 141 C-104.20722656 139.99453125 -104.20722656 139.99453125 -103.3984375 138.96875 C-89.86765649 122.1719184 -70.39636667 114.61135246 -50 110 C-50.72703125 109.72027344 -51.4540625 109.44054687 -52.203125 109.15234375 C-71.83642385 101.3241951 -84.41908565 90.75413448 -93.140625 71.3984375 C-98.25405992 57.1273055 -98.03083141 39.92645937 -92 26 C-91.649375 25.13632812 -91.29875 24.27265625 -90.9375 23.3828125 C-83.79500219 7.46099446 -70.6984103 -2.4111877 -55 -9 C-36.03342954 -14.92213455 -16.15987738 -11.08300146 0 0 Z " fill="#6680FF" transform="translate(292,11)"/>
<path d="M0 0 C12.23116229 9.17814206 21.78595235 23.70604006 24 39 C25.36642179 56.96591609 23.30621485 73.04239187 11.9296875 87.66015625 C1.76123891 99.40524582 -11.56873812 108.81779591 -27.48803711 110.21899414 C-46.03223705 111.03774903 -61.82828565 108.17326778 -76.25 95.6875 C-87.44897541 85.03784143 -95.63903909 71.64752094 -96.3359375 55.86328125 C-96.50854666 45.20156629 -96.29102024 35.90886912 -92 26 C-91.649375 25.13632812 -91.29875 24.27265625 -90.9375 23.3828125 C-83.79500219 7.46099446 -70.6984103 -2.4111877 -55 -9 C-36.03342954 -14.92213455 -16.15987738 -11.08300146 0 0 Z " fill="#FFBFAB" transform="translate(292,11)"/>
<path d="M0 0 C0.85207031 0.32742188 1.70414062 0.65484375 2.58203125 0.9921875 C16.84636987 7.14719345 26.40698003 19.98075232 32.703125 33.65625 C37.86040532 46.95333421 38.26103807 63.7886246 33.25390625 77.1875 C25.96278346 93.54142029 14.71451157 106.0228415 -2 113 C-2.76054687 113.32097656 -3.52109375 113.64195312 -4.3046875 113.97265625 C-19.22157904 119.0958698 -36.79797095 117.00742874 -50.875 110.71484375 C-64.67313221 103.83494172 -75.09169906 92.1539517 -81 78 C-81.48146484 76.85917969 -81.48146484 76.85917969 -81.97265625 75.6953125 C-86.61337175 62.18327575 -85.60899908 45.01956408 -80 32 C-79.67257812 31.14792969 -79.34515625 30.29585938 -79.0078125 29.41796875 C-72.85280655 15.15363013 -60.01924768 5.59301997 -46.34375 -0.703125 C-31.87200808 -6.31599686 -14.26250164 -6.14447289 0 0 Z " fill="#FFE1BA" transform="translate(445,275)"/>
<path d="M0 0 C0.85207031 0.32742188 1.70414062 0.65484375 2.58203125 0.9921875 C16.84636987 7.14719345 26.40698003 19.98075232 32.703125 33.65625 C37.86040532 46.95333421 38.26103807 63.7886246 33.25390625 77.1875 C25.96278346 93.54142029 14.71451157 106.0228415 -2 113 C-2.76054688 113.32097656 -3.52109375 113.64195312 -4.3046875 113.97265625 C-19.22157904 119.0958698 -36.79797095 117.00742874 -50.875 110.71484375 C-64.67313221 103.83494172 -75.09169906 92.1539517 -81 78 C-81.48146484 76.85917969 -81.48146484 76.85917969 -81.97265625 75.6953125 C-86.61337175 62.18327575 -85.60899908 45.01956408 -80 32 C-79.67257813 31.14792969 -79.34515625 30.29585938 -79.0078125 29.41796875 C-72.85280655 15.15363013 -60.01924768 5.59301997 -46.34375 -0.703125 C-31.87200808 -6.31599686 -14.26250164 -6.14447289 0 0 Z " fill="#FFE1BA" transform="translate(115,275)"/>
<path d="M0 0 C0 39.93 0 79.86 0 121 C-29.7 121 -59.4 121 -90 121 C-90 54.65714286 -90 54.65714286 -69 31 C-68.47148437 30.3296875 -67.94296875 29.659375 -67.3984375 28.96875 C-56.33356966 15.233052 -40.12205997 6.65120912 -23.375 2 C-22.64845215 1.79205811 -21.9219043 1.58411621 -21.17333984 1.36987305 C-13.77644963 -0.49363394 -8.15215295 0 0 0 Z " fill="#9999FF" transform="translate(421,391)"/>
<path d="M0 0 C16.38391819 0 16.38391819 0 23.375 2 C24.170271 2.22002686 24.96554199 2.44005371 25.78491211 2.66674805 C38.37528621 6.36154486 49.18528661 12.28766384 59 21 C59.6703125 21.52851563 60.340625 22.05703125 61.03125 22.6015625 C77.99915664 36.27015396 84.57699285 55.39257281 90 76 C90 90.85 90 105.7 90 121 C60.3 121 30.6 121 0 121 C0 81.07 0 41.14 0 0 Z " fill="#6680FF" transform="translate(91,391)"/>
<path d="M0 0 C0 39.6 0 79.2 0 120 C-29.7 120 -59.4 120 -90 120 C-90 54.65714286 -90 54.65714286 -69 31 C-68.47148437 30.3296875 -67.94296875 29.659375 -67.3984375 28.96875 C-56.33356966 15.233052 -40.12205997 6.65120912 -23.375 2 C-22.64845215 1.79205811 -21.9219043 1.58411621 -21.17333984 1.36987305 C-13.77644963 -0.49363394 -8.15215295 0 0 0 Z " fill="#9999FF" transform="translate(256,121)"/>
<path d="M0 0 C4.5775197 2.07485997 7.56043449 5.21746638 11.0625 8.75 C11.72789795 9.4203125 12.3932959 10.090625 13.07885742 10.78125 C19.27978108 17.12756023 24.81135467 23.80970486 30 31 C30.41556152 31.57121582 30.83112305 32.14243164 31.25927734 32.73095703 C42.08649712 47.7877574 50.41225758 64.30634521 56.7578125 81.703125 C57.66789982 84.80536142 57.66789982 84.80536142 59 86 C59.31227539 85.4652002 59.62455078 84.93040039 59.94628906 84.37939453 C61.37016701 81.95479704 62.80982507 79.53994982 64.25 77.125 C64.74113281 76.28324219 65.23226562 75.44148438 65.73828125 74.57421875 C66.22167969 73.76855469 66.70507812 72.96289062 67.203125 72.1328125 C67.64301758 71.38918457 68.08291016 70.64555664 68.53613281 69.87939453 C70.2272368 67.70826069 71.35878165 66.78534514 74 66 C75.90356445 66.70336914 75.90356445 66.70336914 77.86328125 68.03515625 C78.58580078 68.51533203 79.30832031 68.99550781 80.05273438 69.49023438 C80.79845703 70.00908203 81.54417969 70.52792969 82.3125 71.0625 C83.04662109 71.55427734 83.78074219 72.04605469 84.53710938 72.55273438 C89.08567841 75.61605638 93.54977101 78.79607028 98 82 C96.67724536 85.55208977 95.10330349 88.65350772 93.0859375 91.859375 C92.49756104 92.79813477 91.90918457 93.73689453 91.30297852 94.70410156 C90.66674561 95.70924805 90.0305127 96.71439453 89.375 97.75 C88.71491943 98.79897461 88.05483887 99.84794922 87.37475586 100.92871094 C85.25602367 104.28975096 83.12997494 107.64607976 81 111 C80.29278809 112.11375 79.58557617 113.2275 78.85693359 114.375 C76.76219871 117.66885637 74.66365571 120.96023614 72.5625 124.25 C71.92554199 125.24741211 71.28858398 126.24482422 70.63232422 127.27246094 C66.16854624 134.2367436 61.60879377 141.13116112 57 148 C51.72628259 146.41814859 46.96013652 144.14406144 42.04296875 141.7109375 C41.18173904 141.28881989 40.32050934 140.86670227 39.43318176 140.43179321 C36.68286044 139.08308019 33.93505836 137.7293315 31.1875 136.375 C27.5986006 134.61005208 24.00861168 132.84733541 20.41796875 131.0859375 C19.10770218 130.44274567 19.10770218 130.44274567 17.77096558 129.78656006 C9.55757448 125.76416253 1.2900215 121.8615534 -7 118 C-6.38253379 114.12624436 -5.2081036 111.00287982 -3.49609375 107.48046875 C-3.00302734 106.45888672 -2.50996094 105.43730469 -2.00195312 104.38476562 C-1.48568359 103.32966797 -0.96941406 102.27457031 -0.4375 101.1875 C0.08263672 100.11306641 0.60277344 99.03863281 1.13867188 97.93164062 C2.4207045 95.28524301 3.70796111 92.6415229 5 90 C8.73886962 90.52643659 11.90575835 91.20048289 15.3046875 92.84765625 C16.42617188 93.38422852 16.42617188 93.38422852 17.5703125 93.93164062 C18.33085937 94.30482422 19.09140625 94.67800781 19.875 95.0625 C20.65875 95.43955078 21.4425 95.81660156 22.25 96.20507812 C24.16995053 97.12993234 26.085439 98.06403978 28 99 C20.28504189 69.56434647 2.31496757 45.11388297 -19 24 C-14.97331707 14.90817381 -6.61450309 7.29938352 0 0 Z " fill="#46558C" transform="translate(384,109)"/>
<path d="M0 0 C2.06715081 7.1114267 4.1295901 14.22420823 6.18896484 21.33789062 C6.88811017 23.7509555 7.58828067 26.16372363 8.28955078 28.57617188 C12.09318246 41.66370342 15.86618086 54.73332969 19 68 C13.49119726 70.12260083 7.97285018 72.01316943 2.3125 73.6875 C1.21325195 74.02491211 1.21325195 74.02491211 0.09179688 74.36914062 C-3.70845476 75.49653719 -6.98940158 76.29268667 -11 76 C-13.87415866 68.81460335 -15.93851223 61.45065632 -18 54 C-37.05717549 75.68130123 -42.09272551 111.32812798 -43 139 C-58.345 139.495 -58.345 139.495 -74 140 C-74.99098072 104.3246939 -65.82203717 70.88771073 -48 40 C-55.12042045 40.56536099 -55.12042045 40.56536099 -62.1875 41.5625 C-65.83057146 42.1292 -69.31224177 42.02636804 -73 42 C-73.67159025 37.75076277 -74.33642061 33.50049499 -75 29.25 C-75.19078125 28.0434375 -75.3815625 26.836875 -75.578125 25.59375 C-75.75859375 24.43359375 -75.9390625 23.2734375 -76.125 22.078125 C-76.29257813 21.00981445 -76.46015625 19.94150391 -76.6328125 18.84082031 C-77 16 -77 16 -77 12 C-63.69024044 9.10225546 -50.24205737 7.04189518 -36.79003906 4.9284668 C-34.16167912 4.51493773 -31.53371188 4.099554 -28.90625 3.68041992 C-25.08135346 3.07068474 -21.25566517 2.46619114 -17.4296875 1.86328125 C-16.25574432 1.6758284 -15.08180115 1.48837555 -13.87228394 1.29524231 C-12.7798941 1.12473862 -11.68750427 0.95423492 -10.56201172 0.77856445 C-9.60575897 0.62772903 -8.64950623 0.47689362 -7.66427612 0.32148743 C-5.07937996 0.00957846 -2.60061133 -0.0587939 0 0 Z " fill="#60719B" transform="translate(135,117)"/>
<path d="M0 0 C3.27418868 1.09139623 3.83548146 1.72910317 5.9375 4.3125 C10.93351269 10.22373053 16.49136153 15.57276998 22 21 C20.36644648 25.2107125 17.23776995 27.98539535 14.0625 31.0625 C13.52431641 31.59166016 12.98613281 32.12082031 12.43164062 32.66601562 C10.95794792 34.1142685 9.47917546 35.55734739 8 37 C6.99868967 37.99868795 5.99833933 38.99834209 5 40 C30.54604964 41.82271485 54.04489773 39.45109964 78.421875 31.171875 C82 30 82 30 84 30 C85.59706209 33.78527667 87.18158237 37.5755315 88.75463867 41.37084961 C89.29157402 42.66134426 89.83192148 43.95042472 90.37573242 45.23803711 C91.1565773 47.08853251 91.92418332 48.94459674 92.69140625 50.80078125 C93.15748291 51.91622314 93.62355957 53.03166504 94.10375977 54.1809082 C95 57 95 57 94 60 C91.15803723 61.13860688 88.42663457 62.0745907 85.5 62.9375 C84.6450293 63.19692383 83.79005859 63.45634766 82.90917969 63.72363281 C56.91699509 71.4723188 31.04451014 74.14638969 4 72 C4.36875244 72.55461914 4.73750488 73.10923828 5.11743164 73.68066406 C6.77892173 76.19538019 8.4207964 78.72232675 10.0625 81.25 C10.64322266 82.12269531 11.22394531 82.99539063 11.82226562 83.89453125 C12.36689453 84.73886719 12.91152344 85.58320313 13.47265625 86.453125 C13.98062744 87.22817383 14.48859863 88.00322266 15.01196289 88.80175781 C16 91 16 91 15.91064453 93.10229492 C14.69949078 95.62623543 13.33430859 96.44856715 10.95703125 97.91015625 C9.71663086 98.68262695 9.71663086 98.68262695 8.45117188 99.47070312 C7.58041016 99.99599609 6.70964844 100.52128906 5.8125 101.0625 C4.96107422 101.59166016 4.10964844 102.12082031 3.23242188 102.66601562 C-1.08815231 105.32920018 -5.41154501 107.82968332 -10 110 C-26.19042367 84.13921692 -26.19042367 84.13921692 -33.40356445 72.41357422 C-35.91399786 68.33799648 -38.45027603 64.28605244 -41.06640625 60.27734375 C-41.54166748 59.54193359 -42.01692871 58.80652344 -42.5065918 58.04882812 C-43.39208735 56.68258985 -44.28748758 55.3226989 -45.19458008 53.97070312 C-48.04923778 49.54399261 -48.04923778 49.54399261 -47.82299805 47.04443359 C-46.789684 44.47754784 -45.43454074 43.07835669 -43.46484375 41.13671875 C-42.73716797 40.41419922 -42.00949219 39.69167969 -41.25976562 38.94726562 C-40.49341797 38.20154297 -39.72707031 37.45582031 -38.9375 36.6875 C-38.19822266 35.95337891 -37.45894531 35.21925781 -36.69726562 34.46289062 C-32.53661385 30.3604807 -28.2647048 26.44488838 -23.84204102 22.62817383 C-21.10192115 20.20619114 -18.55155631 17.61753735 -16 15 C-11.98008775 10.92402558 -7.89292983 7.01045947 -3.5234375 3.3046875 C-2.30041699 2.25728019 -1.13860468 1.13860468 0 0 Z " fill="#60719B" transform="translate(233,379)"/>
<path d="M0 0 C0 39.93 0 79.86 0 121 C-17.03358564 121 -30.31087922 116.13910061 -42.71875 104.33984375 C-55.54269959 91.18651189 -60.41130386 76.39988545 -60.36791992 58.37011719 C-60.23094028 50.58240276 -59.1175557 44.19909245 -56 37 C-55.649375 36.13632812 -55.29875 35.27265625 -54.9375 34.3828125 C-47.45629657 17.7059632 -33.31735432 7.52171003 -16.7109375 1.1171875 C-11.05287586 -0.535991 -6.11660393 0 0 0 Z " fill="#FFE1BA" transform="translate(256,0)"/>
<path d="M0 0 C17.55367715 0 30.78255294 5.01797311 43.3046875 17.24609375 C55.84401443 30.05801474 60.42107677 45.06297592 60.36572266 62.63208008 C60.05905368 79.51716119 53.0223783 93.31712408 41 105 C28.78515723 115.99335849 16.29755708 120 0 120 C0 80.4 0 40.8 0 0 Z " fill="#FFBFAB" transform="translate(421,271)"/>
<path d="M0 0 C17.55367715 0 30.78255294 5.01797311 43.3046875 17.24609375 C55.84401443 30.05801474 60.42107677 45.06297592 60.36572266 62.63208008 C60.05905368 79.51716119 53.0223783 93.31712408 41 105 C28.78515723 115.99335849 16.29755708 120 0 120 C0 80.4 0 40.8 0 0 Z " fill="#FFBFAB" transform="translate(91,271)"/>
<path d="M0 0 C1.59706209 3.78527667 3.18158237 7.5755315 4.75463867 11.37084961 C5.29157402 12.66134426 5.83192148 13.95042472 6.37573242 15.23803711 C7.1565773 17.08853251 7.92418332 18.94459674 8.69140625 20.80078125 C9.15748291 21.91622314 9.62355957 23.03166504 10.10375977 24.1809082 C11 27 11 27 10 30 C7.15803723 31.13860688 4.42663457 32.0745907 1.5 32.9375 C0.6450293 33.19692383 -0.20994141 33.45634766 -1.09082031 33.72363281 C-20.9442199 39.6422488 -40.32782151 42.20249464 -61 43 C-61.02465504 38.60343827 -61.04283842 34.2069128 -61.05493164 29.81030273 C-61.05997121 28.31355082 -61.06680287 26.81680384 -61.07543945 25.32006836 C-61.08752159 23.17300193 -61.09323191 21.02600038 -61.09765625 18.87890625 C-61.10289307 17.5854126 -61.10812988 16.29191895 -61.11352539 14.95922852 C-61 12 -61 12 -60 11 C-58.32982496 10.90352006 -56.65891483 10.81465095 -54.98681641 10.76098633 C-37.95720336 10.185429 -21.67347845 6.63838733 -5.578125 1.171875 C-2 0 -2 0 0 0 Z " fill="#47568C" transform="translate(317,409)"/>
</svg>
