<?xml version="1.0" encoding="UTF-8"?>
<svg version="1.1" xmlns="http://www.w3.org/2000/svg" width="512" height="512">
<path d="M0 0 C0 0.66 0 1.32 0 2 C-0.66829834 2.3717334 -1.33659668 2.7434668 -2.02514648 3.12646484 C-14.69505189 10.18039691 -27.34488605 17.25123771 -39.79150391 24.69335938 C-42.3323123 26.19661015 -44.89039275 27.66826521 -47.44921875 29.140625 C-49.29964526 30.21846491 -51.14990813 31.29658579 -53 32.375 C-53.88018799 32.87531738 -54.76037598 33.37563477 -55.66723633 33.89111328 C-56.47829834 34.36790527 -57.28936035 34.84469727 -58.125 35.3359375 C-58.84945312 35.75407715 -59.57390625 36.1722168 -60.3203125 36.60302734 C-62.38109427 38.31695079 -62.73408824 39.36073633 -63 42 C-61.44819324 45.88925628 -59.13327088 49.4028947 -57 53 C-56.38382812 54.12148437 -55.76765625 55.24296875 -55.1328125 56.3984375 C-49.99892355 65.4085157 -44.79972419 70.53800406 -35 74 C-24.15056089 75.45909885 -14.30446645 72.27706925 -4.0546875 69.22265625 C-2.35135726 68.73001533 -0.64749815 68.23919975 1.05685425 67.75010681 C5.51196544 66.46782057 9.96137027 65.16687141 14.40930176 63.85992432 C21.53150838 61.76859448 28.65962062 59.69799766 35.79235458 57.64288139 C38.26262733 56.92687622 40.72878805 56.19788304 43.19485474 55.46754456 C60.84718263 50.30789762 73.17900296 49.95108674 89.62280273 58.85205078 C96.23276629 62.50829755 102.75624603 66.30855544 109.2421875 70.1796875 C113.91475804 72.96304593 118.62589151 75.67734591 123.34082031 78.38818359 C126.68564599 80.31143396 130.02678065 82.24096166 133.3671875 84.171875 C137.69799895 86.67524888 142.03746938 89.1625795 146.3828125 91.640625 C148.35970907 92.7806709 150.33628723 93.92126918 152.3125 95.0625 C153.21895264 95.57401611 154.12540527 96.08553223 155.05932617 96.61254883 C160.96129448 100.04450306 165.75073276 103.25219829 168 110 C168.51853818 114.9388636 168.55199525 118.85354834 166.375 123.375 C162.24925846 127.93503012 157.99201634 131.02065471 151.75390625 131.390625 C144.95318054 130.42598306 138.88462046 126.34633401 133 123 C132.05914551 122.46745605 131.11829102 121.93491211 130.14892578 121.38623047 C123.55034189 117.6365791 116.98762559 113.82700663 110.43310547 110.00097656 C103.78479838 106.12602813 97.11842133 102.28214126 90.44482422 98.45092773 C85.24029949 95.4609676 80.0562291 92.4451171 74.91015625 89.35546875 C73.95343018 88.78852295 72.9967041 88.22157715 72.01098633 87.63745117 C70.22278188 86.57692529 68.44207074 85.50361866 66.6706543 84.4152832 C61.89045765 81.57203044 61.89045765 81.57203044 56.421875 81.1875 C55.62265625 81.455625 54.8234375 81.72375 54 82 C53.2444568 84.7412565 53.2444568 84.7412565 54 88 C60.04707102 93.30328405 67.99151327 96.89089995 75 100.75 C83.61675543 105.53583072 92.18811625 110.37250438 100.6484375 115.4296875 C103.9987084 117.42778843 107.38709886 119.34912369 110.7890625 121.2578125 C111.78719971 121.8262085 112.78533691 122.39460449 113.8137207 122.98022461 C115.7653291 124.09132105 117.72451616 125.1892442 119.69213867 126.27172852 C125.32493237 129.507697 128.47276437 131.94457306 131 138 C131.60989951 143.05345311 131.06972474 145.94357803 128 150 C124.8572069 153.53564224 122.78991018 154.73341763 118.0625 155.4375 C108.75002022 155.3011426 98.67061282 147.1844417 90.875 142.5625 C88.78160688 141.3314242 86.68784322 140.1009783 84.59375 138.87109375 C83.51738281 138.23800293 82.44101562 137.60491211 81.33203125 136.95263672 C74.59508588 133.00465247 67.82782275 129.10893112 61.05737305 125.21875 C56.49701213 122.59832454 51.93990631 119.97681713 47.42578125 117.27734375 C46.77754395 116.89368652 46.12930664 116.5100293 45.46142578 116.11474609 C43.84875572 115.15815265 42.24237153 114.19098206 40.63671875 113.22265625 C37.78566131 111.90061035 36.09813463 111.48275549 33 112 C30.77161022 114.68042011 30.77161022 114.68042011 31.14038086 117.01342773 C32.24641811 119.56947008 33.4020412 120.31024874 35.75390625 121.78515625 C36.57133301 122.29965332 37.38875977 122.81415039 38.23095703 123.34423828 C42.84156191 126.10117024 47.48534291 128.79294478 52.16308594 131.43438721 C53.97978469 132.46140441 55.79301288 133.49432393 57.60546875 134.52880859 C63.26823083 137.75874383 68.93928365 140.97232987 74.63539124 144.1431427 C76.44396427 145.15196437 78.24903906 146.16675725 80.05297852 147.18383789 C82.30345977 148.4511781 84.56024161 149.70741256 86.82397461 150.95092773 C93.11449612 154.51098922 97.34190235 157.07101027 99.71484375 164.125 C100.28676938 168.94121584 99.82785016 171.85248643 97 176 C93.74407305 179.44197992 90.94238339 180.51901837 86.2578125 181.21484375 C79.25290013 180.54828634 72.53246857 175.60181914 66.5625 172.1875 C65.56404053 171.61999023 64.56558105 171.05248047 63.53686523 170.46777344 C56.1836544 166.27707978 48.86883645 162.0217465 41.5625 157.75 C38.61536652 156.03004682 35.66810829 154.31030788 32.72070312 152.59082031 C30.9701667 151.56726545 29.22132465 150.54080436 27.47460938 149.51074219 C25.25948029 148.20562691 23.0372333 146.91365193 20.8125 145.625 C20.18351807 145.24956055 19.55453613 144.87412109 18.90649414 144.48730469 C15.46071838 142.51065073 12.98704169 141.56450392 9 142 C8.34 143.65 7.68 145.3 7 147 C10.40447005 150.64278295 13.66903472 153.20752367 18.015625 155.63671875 C18.58464539 155.95789169 19.15366577 156.27906464 19.7399292 156.60997009 C20.9497889 157.29172704 22.16169454 157.96986434 23.37548828 158.64459229 C25.26957489 159.69839073 27.15701058 160.76327338 29.04296875 161.83154297 C33.65640072 164.44279355 38.27747672 167.04011841 42.90820312 169.62060547 C45.27888209 170.94389007 47.64019703 172.28245479 50 173.625 C50.66805664 173.98940186 51.33611328 174.35380371 52.02441406 174.72924805 C56.29174677 177.17311233 58.70559264 179.65181826 61 184 C62.01895051 188.28091545 61.98018914 192.29772795 59.75390625 196.1640625 C56.86046479 199.67082697 54.75142734 201.63564622 50.06787109 202.25585938 C43.55820693 202.51958648 39.21151268 200.7003138 33.625 197.5 C32.83222656 197.09007812 32.03945313 196.68015625 31.22265625 196.2578125 C27.14815708 193.98271144 24.69532251 192.2562766 23.01953125 187.8046875 C22.68308594 186.54914063 22.34664062 185.29359375 22 184 C20.80426962 180.95877026 20.80426962 180.95877026 18.375 178.9375 C17.59125 178.628125 16.8075 178.31875 16 178 C14.205625 177.195625 14.205625 177.195625 12.375 176.375 C7.60485647 174.58394611 3.02986747 174.72170815 -2 175 C-2.30292969 174.33613281 -2.60585937 173.67226563 -2.91796875 172.98828125 C-6.68405029 165.05054016 -10.33205976 160.16408339 -18.57421875 156.71484375 C-22.48169145 155.56336629 -25.95096093 155.74291815 -30 156 C-30.08636719 155.3709375 -30.17273438 154.741875 -30.26171875 154.09375 C-31.50454862 146.52274971 -33.8253151 141.01188054 -39.4375 135.6875 C-40.283125 135.130625 -41.12875 134.57375 -42 134 C-42.845625 133.443125 -43.69125 132.88625 -44.5625 132.3125 C-49.59921105 130.38939214 -54.6481331 130.25113939 -60 130 C-60.14695312 129.0821875 -60.29390625 128.164375 -60.4453125 127.21875 C-62.21940577 117.51221669 -64.49553675 110.98970633 -72.625 105.125 C-78.74974224 101.66369931 -86.38464888 100.13181267 -93.3125 101.625 C-102.51972396 105.05820215 -108.16269427 110.79221583 -114.9375 117.75 C-115.91661193 118.74418516 -116.89642416 119.73768113 -117.87695312 120.73046875 C-120.2582637 123.1469711 -122.63226054 125.5702112 -125 128 C-128.70320619 126.57310836 -131.74913409 124.97834457 -135 122.6875 C-135.825 122.11386719 -136.65 121.54023438 -137.5 120.94921875 C-142.16819868 117.30948259 -145.91208035 113.02442307 -149.625 108.4375 C-150.38039063 107.50808594 -151.13578125 106.57867187 -151.9140625 105.62109375 C-152.94660156 104.32365234 -152.94660156 104.32365234 -154 103 C-154.90878906 101.99646484 -154.90878906 101.99646484 -155.8359375 100.97265625 C-157 99 -157 99 -156.75097656 96.70556641 C-155.91768636 93.70344613 -154.72716954 91.42357189 -153.1484375 88.73828125 C-152.25415039 87.20397461 -152.25415039 87.20397461 -151.34179688 85.63867188 C-150.69275391 84.54103516 -150.04371094 83.44339844 -149.375 82.3125 C-148.69521082 81.15083078 -148.01618752 79.98871307 -147.33789062 78.82617188 C-145.92841697 76.41182554 -144.51567013 73.99944078 -143.10058594 71.58837891 C-139.86944425 66.07681324 -136.68737572 60.53694627 -133.5 55 C-132.25799999 52.84754806 -131.01581155 50.69520482 -129.7734375 48.54296875 C-127.19175031 44.06844831 -124.61416986 39.59159143 -122.0390625 35.11328125 C-121.38357422 33.97439453 -120.72808594 32.83550781 -120.05273438 31.66210938 C-118.8211516 29.52212512 -117.59058114 27.38155774 -116.36132812 25.24023438 C-115.19986616 23.22309648 -114.01578501 21.21883015 -112.81054688 19.22753906 C-111.46908814 16.83621159 -110.43294661 14.6733848 -109.42382812 12.15527344 C-106.54104156 5.55138089 -103.65832736 1.32504573 -96.77197266 -1.39233398 C-90.36755012 -3.49333233 -83.82898649 -4.93958477 -77.25 -6.375 C-74.97133521 -6.91897489 -72.69396704 -7.46841164 -70.41796875 -8.0234375 C-43.20299657 -14.58748432 -24.55382137 -14.75120462 0 0 Z " fill="#6277F6" transform="translate(234,179)"/>
<path d="M0 0 C0.82083069 0.0035701 1.64166138 0.0071402 2.48736572 0.01081848 C11.82512666 0.17912888 20.82898151 1.792395 29.984375 3.51171875 C31.76415715 3.83336613 33.54427459 4.15316329 35.32470703 4.47119141 C38.01976892 4.95274932 40.71458706 5.43532723 43.40835571 5.92407227 C53.25793711 7.70866383 63.14138812 9.26463052 73.03027344 10.81323242 C74.79806152 11.09324097 74.79806152 11.09324097 76.6015625 11.37890625 C77.62362793 11.53858887 78.64569336 11.69827148 79.69873047 11.86279297 C84.87474851 12.80470266 84.87474851 12.80470266 86.63793945 15.35180664 C87.119646 16.2411792 87.60135254 17.13055176 88.09765625 18.046875 C88.64728027 19.04759033 89.1969043 20.04830566 89.76318359 21.0793457 C90.64611084 22.71649536 90.64611084 22.71649536 91.546875 24.38671875 C92.81454429 26.69506376 94.08393433 29.00238367 95.35546875 31.30859375 C95.67920471 31.89780106 96.00294067 32.48700836 96.33648682 33.09407043 C99.49619499 38.83316337 102.78846285 44.48988147 106.109375 50.13671875 C111.99133086 60.16029835 117.7789239 70.23456266 123.5168457 80.34106445 C126.45443582 85.50840843 129.41034273 90.6583233 132.50390625 95.734375 C132.9824707 96.52336182 133.46103516 97.31234863 133.95410156 98.12524414 C134.8188121 99.54132556 135.69372309 100.95125382 136.58105469 102.35327148 C139.27339983 106.76715302 139.27339983 106.76715302 139.09570312 109.30371094 C137.92951717 112.03935576 136.39066227 113.05349673 133.98046875 114.77734375 C133.12646484 115.39609375 132.27246094 116.01484375 131.39257812 116.65234375 C130.04583008 117.60367188 130.04583008 117.60367188 128.671875 118.57421875 C127.77017578 119.22390625 126.86847656 119.87359375 125.93945312 120.54296875 C123.71111719 122.14642741 121.4761138 123.73957954 119.234375 125.32421875 C117.42240661 122.60626617 116.6618162 120.68305955 115.671875 117.63671875 C111.63738287 107.52017921 101.85194857 102.59867593 92.671875 97.69921875 C90.43905358 96.47848215 88.20730859 95.25577491 85.9765625 94.03125 C84.85088867 93.41588379 83.72521484 92.80051758 82.56542969 92.16650391 C77.42620577 89.32418613 72.36026354 86.36143844 67.296875 83.38671875 C65.32557748 82.23297612 63.35422268 81.07933136 61.3828125 79.92578125 C58.19939172 78.06113251 55.01607921 76.1962998 51.83300781 74.33105469 C48.36645088 72.30135089 44.89420965 70.28152167 41.421875 68.26171875 C40.36685791 67.64240479 39.31184082 67.02309082 38.22485352 66.38500977 C25.50442307 58.87541421 25.50442307 58.87541421 11.421875 54.88671875 C10.38417969 54.72300781 9.34648437 54.55929688 8.27734375 54.390625 C-2.86934728 53.73499737 -14.05238185 57.2861975 -24.61412621 60.42479324 C-26.99723245 61.13217114 -29.38388441 61.82624 -31.77180481 62.5171814 C-38.54936507 64.48077632 -45.31998015 66.46782186 -52.08862305 68.46191406 C-56.25742334 69.68910023 -60.43023143 70.90179715 -64.60564613 72.10627365 C-66.18076605 72.56390039 -67.7542815 73.02709174 -69.32600975 73.49623489 C-90.07731996 79.68969347 -90.07731996 79.68969347 -98.890625 75.76171875 C-104.96363084 71.47785571 -108.29884723 63.70405285 -111.765625 57.32421875 C-108.98825154 54.33536607 -106.32633509 52.31370967 -102.75 50.36328125 C-101.26342896 49.5436792 -101.26342896 49.5436792 -99.74682617 48.70751953 C-98.68052979 48.12728027 -97.6142334 47.54704102 -96.515625 46.94921875 C-94.23467529 45.69061592 -91.95475127 44.4301527 -89.67578125 43.16796875 C-89.09584915 42.84732452 -88.51591705 42.5266803 -87.91841125 42.19631958 C-82.21194518 39.03401636 -76.57818507 35.75347966 -70.953125 32.44921875 C-62.63705672 27.5775077 -54.31007112 22.72596919 -45.9515686 17.9274292 C-44.2098755 16.92651553 -42.47048882 15.92159172 -40.73120117 14.91650391 C-35.02666287 11.64753097 -29.2801156 8.47601481 -23.4296875 5.4765625 C-22.34381348 4.91831787 -21.25793945 4.36007324 -20.13916016 3.78491211 C-13.4615931 0.89361932 -7.2447225 -0.04499145 0 0 Z " fill="#5698F7" transform="translate(294.765625,165.67578125)"/>
<path d="M0 0 C4.33750066 1.44583355 5.29365098 4.71843499 7.3125 8.5625 C8.20973588 10.22401072 9.10961397 11.88409653 10.01171875 13.54296875 C10.49431152 14.43161621 10.9769043 15.32026367 11.47412109 16.23583984 C14.10388146 20.99970334 16.86778813 25.68412878 19.625 30.375 C24.80911987 39.21682421 29.92704232 48.09413756 35 57 C40.0365696 65.84012323 45.11227816 74.65561337 50.25 83.4375 C51.93896796 86.32946611 53.62739124 89.22174905 55.31542969 92.11425781 C56.46616618 94.08551945 57.61790407 96.05619676 58.77050781 98.02636719 C60.47866454 100.95126725 62.17792245 103.88116118 63.875 106.8125 C64.39352539 107.69671631 64.91205078 108.58093262 65.44628906 109.49194336 C65.91518555 110.30542236 66.38408203 111.11890137 66.8671875 111.95703125 C67.28081543 112.66835205 67.69444336 113.37967285 68.12060547 114.11254883 C69 116 69 116 69 119 C67.9790625 119.55945313 66.958125 120.11890625 65.90625 120.6953125 C55.55906345 126.39255372 45.32682571 132.26698882 35.15039062 138.26416016 C30.49786136 140.99817628 25.87688924 143.68596582 21 146 C13.63038388 134.36872089 6.84279802 122.39799619 -0.01220703 110.45947266 C-3.1672263 104.96860763 -6.33397963 99.48452655 -9.5 94 C-10.75006112 91.83336859 -12.000061 89.66670186 -13.25 87.5 C-13.86875 86.4275 -14.4875 85.355 -15.125 84.25 C-17 81 -18.875 77.75 -20.75 74.5 C-21.3699585 73.42556641 -21.98991699 72.35113281 -22.62866211 71.24414062 C-23.86701979 69.09733086 -25.1048213 66.95020016 -26.34204102 64.80273438 C-29.28347196 59.69881776 -32.23073772 54.59851866 -35.19747925 49.50927734 C-36.60697037 47.09061686 -38.01332765 44.67014138 -39.41943359 42.24951172 C-40.41978682 40.53043948 -41.42469734 38.8140218 -42.4296875 37.09765625 C-43.02910156 36.06511719 -43.62851562 35.03257812 -44.24609375 33.96875 C-45.04551392 32.59879883 -45.04551392 32.59879883 -45.86108398 31.20117188 C-47 29 -47 29 -47 27 C-46.33170166 26.6282666 -45.66340332 26.2565332 -44.97485352 25.87353516 C-23.28262783 14.06487602 -23.28262783 14.06487602 -2.234375 1.16796875 C-1.49703125 0.78253906 -0.7596875 0.39710938 0 0 Z " fill="#4FACF8" transform="translate(437,148)"/>
<path d="M0 0 C3.6116842 1.36606692 6.92427163 2.97971632 10.2890625 4.87109375 C11.30492432 5.44069824 12.32078613 6.01030273 13.36743164 6.59716797 C14.4424292 7.20447754 15.51742676 7.81178711 16.625 8.4375 C17.7277124 9.0577002 18.8304248 9.67790039 19.96655273 10.31689453 C29.69085808 15.79800707 39.36095768 21.37052356 49 27 C47.37160894 33.18166287 44.05752905 38.31090634 40.8125 43.75 C39.53580222 45.91367549 38.25978329 48.07775166 36.984375 50.2421875 C36.32501953 51.35819336 35.66566406 52.47419922 34.98632812 53.62402344 C31.81074644 59.0212633 28.6862344 64.44764 25.5625 69.875 C24.30341652 72.05991376 23.04430177 74.24480949 21.78515625 76.4296875 C20.84760498 78.05729004 20.84760498 78.05729004 19.89111328 79.71777344 C16.14511648 86.21934599 12.3947381 92.71839431 8.64282227 99.21655273 C5.75036587 104.22723556 2.86073806 109.2394688 -0.01696777 114.25863647 C-1.02548314 116.01728749 -2.0350477 117.77533209 -3.04492188 119.53320312 C-4.30350518 121.72472231 -5.56016987 123.91734504 -6.81445312 126.11132812 C-10.69531332 132.86272402 -14.76358632 139.46591135 -19 146 C-27.45225281 141.44537898 -35.79892595 136.71703596 -44.125 131.9375 C-51.72432593 127.57843941 -59.32375868 123.22281854 -67 119 C-66.41086447 115.02489967 -65.17954805 112.19302975 -63.1484375 108.73828125 C-62.25415039 107.20397461 -62.25415039 107.20397461 -61.34179688 105.63867188 C-60.69275391 104.54103516 -60.04371094 103.44339844 -59.375 102.3125 C-58.69521082 101.15083078 -58.01618752 99.98871307 -57.33789062 98.82617188 C-55.92841697 96.41182554 -54.51567013 93.99944078 -53.10058594 91.58837891 C-49.86944479 86.07681417 -46.68727005 80.5370062 -43.5 75 C-42.25023053 72.83320035 -41.00022976 70.6665341 -39.75 68.5 C-39.13125 67.4275 -38.5125 66.355 -37.875 65.25 C-35.0625 60.375 -35.0625 60.375 -32.25 55.5 C-31.32078735 53.88931641 -31.32078735 53.88931641 -30.37280273 52.24609375 C-29.13023981 50.0923828 -27.88756511 47.93873633 -26.64477539 45.78515625 C-23.74685377 40.76315738 -20.84996651 35.74057193 -17.95724487 30.71557617 C-16.94052802 28.94954478 -15.92344342 27.18372569 -14.90625 25.41796875 C-13.63599127 23.21265845 -12.36640982 21.00695784 -11.09765625 18.80078125 C-7.46359212 12.49366105 -3.76901741 6.22744663 0 0 Z " fill="#6769F5" transform="translate(73,148)"/>
<path d="M0 0 C0.66 0 1.32 0 2 0 C4.53973852 3.28227471 6.59834378 6.89292948 8.75 10.4375 C9.69166016 11.89833008 9.69166016 11.89833008 10.65234375 13.38867188 C15.63646257 21.61301805 15.63646257 21.61301805 14.60546875 26.64453125 C14.11532901 28.11216371 13.57899827 29.56509826 13 31 C12.62270752 32.10589478 12.62270752 32.10589478 12.23779297 33.23413086 C11.41083612 35.60320251 10.50346266 37.92394031 9.5625 40.25 C9.21832031 41.10335937 8.87414062 41.95671875 8.51953125 42.8359375 C2.54123267 57.27647562 -4.74752313 71.37646567 -14 84 C-14.76828125 85.051875 -15.5365625 86.10375 -16.328125 87.1875 C-22.0686069 94.90580459 -28.35093817 102.05360488 -35 109 C-35.52045898 109.55300781 -36.04091797 110.10601562 -36.57714844 110.67578125 C-45.59940583 120.23193193 -55.28803796 128.3925764 -66 136 C-66.5765332 136.41056641 -67.15306641 136.82113281 -67.74707031 137.24414062 C-91.30983862 153.75917943 -121.12643329 167.83713074 -150 171 C-150.66 170.67 -151.32 170.34 -152 170 C-151.98839844 169.29875 -151.97679687 168.5975 -151.96484375 167.875 C-151.95582031 166.92625 -151.94679688 165.9775 -151.9375 165 C-151.92589844 164.071875 -151.91429687 163.14375 -151.90234375 162.1875 C-152.01837872 158.40011853 -152.48629141 154.75371317 -153 151 C-152.33806641 150.84031738 -151.67613281 150.68063477 -150.99414062 150.51611328 C-97.6834533 137.44527202 -52.64344138 108.54843968 -23.75 61.1875 C-12.49221306 42.19353639 -4.36148933 21.65441193 0 0 Z " fill="#656DF6" transform="translate(444,294)"/>
<path d="M0 0 C0.66 0 1.32 0 2 0 C2.13462646 0.58152832 2.26925293 1.16305664 2.40795898 1.76220703 C14.17720462 51.70211109 42.69512656 96.15920643 86.7121582 123.69213867 C94.8725817 128.63318412 103.35673755 132.97302545 112 137 C112.96099609 137.45221924 112.96099609 137.45221924 113.94140625 137.91357422 C127.10087766 144.0048144 140.97392007 147.47851735 155 151 C154.83628906 152.1859375 154.67257813 153.371875 154.50390625 154.59375 C154.0469437 158.24945043 153.89558973 161.81189595 153.9375 165.5 C153.94652344 166.5415625 153.95554688 167.583125 153.96484375 168.65625 C153.97644531 169.4296875 153.98804688 170.203125 154 171 C123.00546996 165.78853035 93.6229265 154.37735129 68 136 C67.41331543 135.58008789 66.82663086 135.16017578 66.22216797 134.72753906 C57.95927768 128.73898888 50.36689245 122.0515602 43 115 C42.44699219 114.47954102 41.89398438 113.95908203 41.32421875 113.42285156 C31.76806807 104.40059417 23.6074236 94.71196204 16 84 C15.58943359 83.4234668 15.17886719 82.84693359 14.75585938 82.25292969 C4.55410901 67.69762146 -3.67926556 51.46401629 -9.8125 34.8125 C-10.15611572 33.88630859 -10.49973145 32.96011719 -10.85375977 32.00585938 C-13.37372291 24.82016869 -13.37372291 24.82016869 -12 21 C-11.30571636 19.57023348 -10.56338579 18.16320841 -9.78515625 16.77734375 C-9.34623047 15.99166016 -8.90730469 15.20597656 -8.45507812 14.39648438 C-7.99552734 13.58501953 -7.53597656 12.77355469 -7.0625 11.9375 C-6.60681641 11.12216797 -6.15113281 10.30683594 -5.68164062 9.46679688 C-3.86884959 6.23668459 -2.05592774 3.08389161 0 0 Z " fill="#763EF4" transform="translate(66,294)"/>
<path d="M0 0 C29.50879915 4.96165649 58.5841552 15.37621223 83 33 C83.63695801 33.45342773 84.27391602 33.90685547 84.93017578 34.37402344 C93.60334017 40.58187765 101.80379011 47.09835896 109.47412109 54.52539062 C110.53057522 55.54634789 111.59389417 56.56023145 112.66259766 57.56835938 C119.78983365 64.29573071 126.27638907 71.28264078 132.25 79.0625 C132.79906006 79.77680176 133.34812012 80.49110352 133.91381836 81.22705078 C136.50326674 84.68923157 138.66759426 87.83216986 140 92 C129.13257762 99.4622967 129.13257762 99.4622967 125 101 C120.84396875 99.74111916 118.86319646 96.49299374 116.4375 93.125 C111.36981813 86.32288884 105.84773233 80.13588146 100 74 C99.23429687 73.16984375 98.46859375 72.3396875 97.6796875 71.484375 C82.01944616 55.0278502 62.35734946 43.62395004 42 34 C40.88367188 33.46503906 39.76734375 32.93007812 38.6171875 32.37890625 C25.97234167 26.62445513 12.45362888 23.30878112 -1 20 C-0.835 18.9275 -0.67 17.855 -0.5 16.75 C0.21160726 11.17741358 0.08411046 5.60736426 0 0 Z " fill="#47C4F9" transform="translate(292,47)"/>
<path d="M0 0 C-0.01740234 1.051875 -0.01740234 1.051875 -0.03515625 2.125 C-0.04417969 3.07375 -0.05320313 4.0225 -0.0625 5 C-0.07990234 6.3921875 -0.07990234 6.3921875 -0.09765625 7.8125 C0.01837872 11.59988147 0.48629141 15.24628683 1 19 C0.29093506 19.18062988 -0.41812988 19.36125977 -1.14868164 19.54736328 C-20.57325183 24.53302921 -38.26070074 30.6322074 -56 40 C-56.5966748 40.31163086 -57.19334961 40.62326172 -57.80810547 40.94433594 C-72.80117172 48.84863028 -85.84995141 59.2566476 -98 71 C-99.40185547 72.32451172 -99.40185547 72.32451172 -100.83203125 73.67578125 C-107.6850462 80.29876493 -113.32790723 87.37654554 -119 95 C-120.32585736 96.67262005 -121.65661509 98.34142455 -123 100 C-127.46182436 98.68925635 -130.99618757 96.92933989 -134.875 94.375 C-136.32519531 93.42753906 -136.32519531 93.42753906 -137.8046875 92.4609375 C-138.52914062 91.97882813 -139.25359375 91.49671875 -140 91 C-136.08424687 79.5067354 -125.247206 69.61600523 -117 61 C-116.21931152 60.17048828 -116.21931152 60.17048828 -115.42285156 59.32421875 C-97.13998054 39.95945637 -29.22183347 -14.61091673 0 0 Z " fill="#549FF7" transform="translate(220,48)"/>
<path d="M0 0 C6.11724279 5.05041381 10.16986398 10.66582682 11.03125 18.71484375 C11.27542875 26.60567284 9.22035223 32.76629324 4.91796875 39.36328125 C-0.7292211 45.0104711 -6.55614562 47.52991055 -14.45703125 47.86328125 C-21.50338516 47.72888213 -27.04433344 45.38589994 -33.01953125 41.80078125 C-39.16705635 35.301969 -41.62797667 28.0085216 -41.47265625 19.20703125 C-40.78136422 12.13145403 -38.14371102 6.95100211 -33.01953125 2.05078125 C-23.28735061 -5.84664403 -10.5938715 -7.25633322 0 0 Z " fill="#7542F4" transform="translate(271.20703125,436.51171875)"/>
<path d="M0 0 C5.95541727 4.87261413 10.41208245 11.50634424 11.23828125 19.2265625 C11.4695622 26.70058904 10.04268819 33.08060504 5.38671875 39.078125 C-0.45059626 45.23901623 -6.36102389 47.69073493 -14.75 48.25 C-23.05194329 48.06308946 -29.07879772 45.00801599 -35.046875 39.30078125 C-39.97739475 33.49262898 -41.66646151 26.91215321 -41.32421875 19.3828125 C-40.49136723 13.26185552 -37.9886328 7.70454125 -34 3 C-23.32981232 -4.60629405 -11.74049873 -7.24868849 0 0 Z " fill="#4ABCF8" transform="translate(271,32)"/>
<path d="M0 0 C4.37598109 4.63339175 5.45617255 8.71787465 5.5234375 14.90625 C4.56716485 20.53138324 1.33936357 24.41811433 -2.5859375 28.359375 C-3.50117188 29.27847656 -4.41640625 30.19757813 -5.359375 31.14453125 C-5.83439453 31.6132666 -6.30941406 32.08200195 -6.79882812 32.56494141 C-8.2497494 33.99975219 -9.68390755 35.44993378 -11.1171875 36.90234375 C-12.035 37.81628906 -12.9528125 38.73023438 -13.8984375 39.671875 C-14.73294434 40.50299805 -15.56745117 41.33412109 -16.42724609 42.19042969 C-20.5528845 45.6617927 -24.34102193 46.73254277 -29.75390625 46.55859375 C-35.27136111 45.75587011 -38.88092864 43.46773742 -42.375 39.1875 C-44.62262477 34.53170584 -44.84673961 29.27303637 -43.875 24.25 C-40.6226498 18.14639373 -35.51047644 13.44524997 -30.6875 8.5625 C-29.87474609 7.70849609 -29.06199219 6.85449219 -28.22460938 5.97460938 C-19.70555544 -2.65288121 -11.08583253 -6.74789806 0 0 Z " fill="#6C5AF5" transform="translate(157.875,293.75)"/>
<path d="M0 0 C4.42977671 2.1357852 7.19613671 4.39012714 9 9 C9.71956198 15.05631331 9.40320598 18.86323828 6 24 C3.02869217 27.37826197 -0.18833398 30.51279594 -3.375 33.6875 C-4.22578125 34.55439453 -5.0765625 35.42128906 -5.953125 36.31445312 C-6.78070313 37.14267578 -7.60828125 37.97089844 -8.4609375 38.82421875 C-9.58701416 39.95476685 -9.58701416 39.95476685 -10.73583984 41.1081543 C-15.20170438 44.83966004 -19.26357569 45.50319512 -25 45 C-29.68170268 43.25583626 -32.21249191 41.12964161 -35 37 C-36.76033638 31.71899086 -36.82400766 27.77994306 -34.51171875 22.78515625 C-31.58050901 17.93166058 -27.52773383 14.12975561 -23.5 10.1875 C-22.74074219 9.42501953 -21.98148438 8.66253906 -21.19921875 7.87695312 C-14.32132406 1.06530785 -9.86266087 -1.15779062 0 0 Z " fill="#6D57F4" transform="translate(184,320)"/>
<path d="M0 0 C3.24044458 2.56535196 4.69560167 4.086805 6 8 C6.53430151 13.66359599 5.43303874 16.65522994 2 21 C-0.22403897 23.50930598 -2.56075887 25.88578122 -4.9375 28.25 C-5.54529297 28.87390625 -6.15308594 29.4978125 -6.77929688 30.140625 C-10.8878392 34.25359941 -14.03233844 36.62114959 -19.9375 37.375 C-23.95422287 36.88315638 -25.91865639 35.6020235 -29 33 C-31.86745014 28.93007078 -32.33002932 25.97396165 -31.61743164 21.05517578 C-30.52028642 17.40323094 -28.03309116 15.29408962 -25.25 12.8125 C-24.7240625 12.31814453 -24.198125 11.82378906 -23.65625 11.31445312 C-22.61500031 10.33634853 -21.56723764 9.36512546 -20.51269531 8.40136719 C-18.27837761 6.33148604 -16.15154117 4.15527648 -14 2 C-9.56735827 -1.69386811 -5.35750571 -1.61113396 0 0 Z " fill="#6D56F5" transform="translate(215,346)"/>
<path d="M0 0 C3.33014331 2.01065256 5.36952397 3.26268827 6.703125 6.9375 C7.28660647 10.28617629 7.38042937 12.19462292 5.8984375 15.33203125 C3.43005946 18.80096582 0.58753475 21.70302437 -2.4375 24.6875 C-3.01048828 25.26822266 -3.58347656 25.84894531 -4.17382812 26.44726562 C-4.73392578 27.00478516 -5.29402344 27.56230469 -5.87109375 28.13671875 C-6.37568115 28.63905029 -6.88026855 29.14138184 -7.40014648 29.65893555 C-9.74662079 31.62584893 -11.9158272 32.93647425 -15 33.1171875 C-18.33624722 32.71318881 -20.57251917 32.27402618 -23.4375 30.4375 C-25.55452817 27.13493605 -26.4023132 23.92803976 -26 20 C-23.7282354 15.06247473 -19.81405532 11.5171612 -16 7.75 C-15.3709375 7.11320312 -14.741875 6.47640625 -14.09375 5.8203125 C-13.4853125 5.21445312 -12.876875 4.60859375 -12.25 3.984375 C-11.69828125 3.43491211 -11.1465625 2.88544922 -10.578125 2.31933594 C-7.37115969 -0.36173469 -3.99779296 -0.47032858 0 0 Z " fill="#6D56F5" transform="translate(242,364)"/>
</svg>
