<?xml version="1.0" encoding="UTF-8"?>
<svg version="1.1" xmlns="http://www.w3.org/2000/svg" width="512" height="512">
<path d="M0 0 C29.42581473 25.45111254 49.888488 64.13417885 52.8125 103.125 C54.59660968 149.51536367 42.93275743 191.38314976 10.97802734 226.11914062 C-8.63648728 246.96627533 -31.59561038 261.06733066 -58.80078125 269.765625 C-59.46417511 269.9838945 -60.12756897 270.202164 -60.81106567 270.42704773 C-63.1875 271.125 -63.1875 271.125 -65.68226624 271.56985474 C-70.80654165 272.57217788 -70.80654165 272.57217788 -74.47657776 275.99890137 C-75.42039408 278.6167584 -76.04971982 281.19257799 -76.6328125 283.9140625 C-77.18582022 286.10239575 -77.74098534 288.2901845 -78.29785156 290.47753906 C-78.59260376 291.69171509 -78.88735596 292.90589111 -79.19104004 294.15686035 C-80.84728908 300.87170678 -82.81955433 307.50250127 -84.73064423 314.14815521 C-85.90476333 318.24267534 -87.06115629 322.34218959 -88.21875 326.44140625 C-88.69007216 328.10824473 -89.16142649 329.77507411 -89.6328125 331.44189453 C-90.59718553 334.85321013 -91.56095444 338.26469585 -92.52441406 341.67626953 C-93.7043769 345.85409272 -94.8862633 350.03136771 -96.06937027 354.20830154 C-96.51587676 355.78618904 -96.96163121 357.36428955 -97.4066124 358.94260788 C-98.0217084 361.12420136 -98.63923194 363.30509371 -99.25732422 365.48583984 C-99.60705292 366.72361176 -99.95678162 367.96138367 -100.31710815 369.23666382 C-101.1875 372.125 -101.1875 372.125 -102.1875 374.125 C-103.8375 374.125 -105.4875 374.125 -107.1875 374.125 C-107.44979401 373.1944429 -107.71208801 372.2638858 -107.98233032 371.30513 C-110.48181838 362.43772534 -112.98170457 353.57043299 -115.48195839 344.70324421 C-116.76664825 340.1470251 -118.05120865 335.5907696 -119.33544922 331.03442383 C-119.70897459 329.70938434 -119.70897459 329.70938434 -120.09004593 328.35757637 C-120.58842903 326.58929445 -121.08661696 324.82095751 -121.58460617 323.05256462 C-122.80047828 318.73653617 -124.02039776 314.42173531 -125.24932861 310.10940552 C-127.24417368 303.09938103 -129.22400066 296.09671248 -130.99121094 289.02490234 C-131.24760345 288.02960007 -131.50399597 287.03429779 -131.76815796 286.00883484 C-132.20931545 284.27938903 -132.62850098 282.54408086 -133.01821899 280.80232239 C-133.59233452 278.32376111 -133.59233452 278.32376111 -135.1875 275.125 C-138.47347111 273.08548365 -138.47347111 273.08548365 -142.1875 272.125 C-143.05632812 271.83310791 -143.92515625 271.54121582 -144.8203125 271.24047852 C-145.64273438 270.99740967 -146.46515625 270.75434082 -147.3125 270.50390625 C-189.39905561 257.59294853 -223.79459446 230.67393387 -244.5625 191.5625 C-264.19308427 153.38935639 -267.38180505 109.77636009 -254.49951172 68.94433594 C-247.279351 47.23793049 -235.61815709 27.95657807 -220.1875 11.125 C-219.68879395 10.58101562 -219.19008789 10.03703125 -218.67626953 9.4765625 C-210.6533612 0.84858157 -201.97654689 -6.33372101 -192.1875 -12.875 C-191.59775391 -13.27170898 -191.00800781 -13.66841797 -190.40039062 -14.07714844 C-131.18271421 -53.28174775 -53.27606645 -44.86405596 0 0 Z M-39.5625 38.5625 C-40.25255127 39.01665283 -40.94260254 39.47080566 -41.65356445 39.9387207 C-45.85545333 42.82414458 -48.80181139 45.49288887 -51.1875 50.125 C-51.66388171 52.86229892 -51.66388171 52.86229892 -51.4375 55.5 C-51.40140625 56.37398437 -51.3653125 57.24796875 -51.328125 58.1484375 C-51.28171875 58.80070312 -51.2353125 59.45296875 -51.1875 60.125 C-60.26469781 63.66732109 -67.66571633 61.42622523 -76.62890625 58.90234375 C-92.59070958 54.62467823 -106.1837352 59.44405892 -120.04296875 67.41796875 C-125.34981621 70.2988288 -127.55048431 70.12510622 -133.4296875 68.66015625 C-136.69201684 68.02709801 -139.86937094 67.85591476 -143.1875 67.6875 C-148.32681903 67.38747489 -152.64222419 66.65456528 -157.41796875 64.74609375 C-159.34672183 63.95940734 -159.34672183 63.95940734 -162.1875 64.125 C-162.08050781 63.54492188 -161.97351563 62.96484375 -161.86328125 62.3671875 C-161.0430147 57.02222482 -160.84922437 53.67719404 -164.1875 49.125 C-171.26957736 42.23748521 -184.67112913 33.73975197 -194.5 32.8125 C-199.05863397 33.19882491 -200.74181147 34.1191866 -204.1875 37.125 C-209.21863305 43.74391196 -213.08715306 51.161855 -217.0625 58.4375 C-218.37869118 60.83098622 -219.69860472 63.22240563 -221.01953125 65.61328125 C-221.52682014 66.53211594 -221.52682014 66.53211594 -222.0443573 67.46951294 C-226.51764092 75.5542144 -231.12599467 83.56192003 -235.73193359 91.5715332 C-237.55811794 94.75172631 -239.37515196 97.9369047 -241.1875 101.125 C-241.77378174 102.14803223 -242.36006348 103.17106445 -242.96411133 104.22509766 C-243.50962646 105.19495605 -244.0551416 106.16481445 -244.6171875 107.1640625 C-245.1004248 108.01693848 -245.58366211 108.86981445 -246.08154297 109.74853516 C-247.84788858 113.54403366 -247.82861929 115.99334233 -247.1875 120.125 C-244.05529778 127.60748309 -236.13334925 131.58442292 -229.375 135.375 C-228.24094727 136.04402344 -228.24094727 136.04402344 -227.08398438 136.7265625 C-221.98005686 139.59833757 -217.13746832 141.49094338 -211.1875 141.125 C-207.82231885 139.88519642 -204.84886092 138.44772184 -203.1875 135.125 C-199.74321735 136.57281793 -197.82619038 138.40194609 -195.4375 141.25 C-194.82390625 141.97445312 -194.2103125 142.69890625 -193.578125 143.4453125 C-193.11921875 143.99960938 -192.6603125 144.55390625 -192.1875 145.125 C-192.455625 145.785 -192.72375 146.445 -193 147.125 C-193.391875 148.115 -193.78375 149.105 -194.1875 150.125 C-194.46335938 150.71796875 -194.73921875 151.3109375 -195.0234375 151.921875 C-197.33161985 157.21587121 -197.69582645 161.51818649 -196.1875 167.125 C-193.70921103 172.17689674 -190.48141081 175.27902709 -185.1875 177.125 C-182.42116603 177.42537252 -179.98267859 177.32115288 -177.1875 177.125 C-176.960625 178.011875 -176.73375 178.89875 -176.5 179.8125 C-174.58673289 184.64122176 -171.75046359 187.07090828 -167.5 189.9375 C-164.17388225 191.12988184 -162.61601661 191.11658963 -159.1875 190.875 C-154.7054687 190.70028814 -154.7054687 190.70028814 -152.38671875 192.6015625 C-151.38660263 193.85752228 -150.41306644 195.13515865 -149.46875 196.43359375 C-147.62244953 198.87093552 -146.16695963 199.50139217 -143.1875 200.125 C-139.13874876 200.3914626 -135.40399686 200.49277812 -131.5 199.3125 C-129.1875 199.125 -129.1875 199.125 -126.1875 201.4375 C-125.67832031 201.90027344 -125.16914063 202.36304688 -124.64453125 202.83984375 C-121.96687378 205.20163814 -119.6592176 206.10311572 -116.0859375 206.15625 C-110.68072492 205.79469732 -107.62842736 204.32659879 -103.1875 201.125 C-98.61094922 201.125 -97.49372138 201.9736716 -93.8125 204.5 C-87.74738177 208.65161614 -82.62212588 210.76591602 -75.1875 210.125 C-68.96825625 208.88360945 -65.52320381 205.89337115 -61.4375 201.16015625 C-59.83858852 198.9549919 -59.83858852 198.9549919 -60.1875 195.125 C-59.61902344 194.97804688 -59.05054688 194.83109375 -58.46484375 194.6796875 C-52.02079396 192.80779324 -46.5403691 190.07750948 -43.00390625 184.13671875 C-41.90031307 181.41733843 -42.05556649 179.02753727 -42.1875 176.125 C-41.32125 176.0425 -40.455 175.96 -39.5625 175.875 C-33.5690161 174.54311469 -29.50702491 171.22284183 -26.1875 166.125 C-25.81625 164.3925 -25.81625 164.3925 -25.4375 162.625 C-23.85896195 158.20509346 -22.09825207 157.56252116 -18.1640625 155.359375 C-15.08461026 153.43623882 -13.72044261 151.38250304 -12.1875 148.125 C-11.88779231 145.36269408 -11.99490663 142.91760385 -12.1875 140.125 C-11.506875 139.898125 -10.82625 139.67125 -10.125 139.4375 C-7.48727143 138.25894042 -6.03652647 137.19445003 -3.875 135.375 C-0.7859511 133.05653814 -0.7859511 133.05653814 1.79296875 133.3515625 C3.8125 134 3.8125 134 5.625 134.8046875 C11.96334118 135.73280174 18.94446739 129.65360888 23.9375 126.3125 C24.72253906 125.80396484 25.50757813 125.29542969 26.31640625 124.77148438 C31.44735233 121.35806409 36.23104001 117.95840072 38.66015625 112.0703125 C39.6101857 104.02097204 34.89438085 97.93765394 30.484375 91.52734375 C29.5961247 90.21527665 28.70881535 88.90257223 27.82226562 87.58935547 C27.34152588 86.87882019 26.86078613 86.16828491 26.36547852 85.43621826 C23.4426476 81.08631895 20.576966 76.69875458 17.703125 72.31640625 C16.44154608 70.39639249 15.17982572 68.47647166 13.91796875 66.55664062 C11.97937981 63.60636752 10.04157838 60.65559023 8.10595703 57.70336914 C6.20321438 54.80198502 4.29719502 51.90277629 2.390625 49.00390625 C1.53262299 47.69275597 1.53262299 47.69275597 0.6572876 46.3551178 C-5.92965481 35.17463516 -5.92965481 35.17463516 -16.1875 28.125 C-25.01489605 27.48222844 -32.54344466 33.85848477 -39.5625 38.5625 Z " fill="#076EB6" transform="translate(360.1875,65.875)"/>
<path d="M0 0 C0.16873123 0.61308014 0.33746246 1.22616028 0.51130676 1.8578186 C2.27229151 8.25153075 4.04196471 14.6427924 5.81665039 21.03271484 C6.47740169 23.41621438 7.1359522 25.80032518 7.79223633 28.18505859 C8.73718429 31.61720114 9.69008422 35.04705114 10.64453125 38.4765625 C10.9352803 39.53928375 11.22602936 40.602005 11.52558899 41.69692993 C13.78821954 50.63287316 13.78821954 50.63287316 19.125 57.875 C24.44427992 59.95645736 29.05359057 59.80794354 34.3125 57.625 C40.21923087 51.85563497 41.87290966 42.48091164 43.98046875 34.6875 C44.23878983 33.75196289 44.4971109 32.81642578 44.76325989 31.85253906 C45.57675631 28.90315006 46.38254824 25.95173128 47.1875 23 C48.00446563 20.02008242 48.82306734 17.04062914 49.64387512 14.06176758 C50.151681 12.21724639 50.65704504 10.37205084 51.15971375 8.52612305 C51.38697647 7.69765869 51.6142392 6.86919434 51.84838867 6.015625 C52.04728195 5.28633789 52.24617523 4.55705078 52.45109558 3.80566406 C53 2 53 2 54 0 C203.40115293 6.02799469 203.40115293 6.02799469 234.4375 39.25 C236.73702699 42.05986587 237.59571118 44.38417743 238 48 C235.6160376 56.19487075 230.14304464 59.91438191 222.9375 64 C178.39602 87.11114528 124.23846708 90.72866071 75 94 C73.9275 94.07347656 72.855 94.14695312 71.75 94.22265625 C3.77782732 98.65972863 -119.04960535 104.97623301 -175.9765625 59.62890625 C-183.83549711 52.71083 -183.83549711 52.71083 -184.3125 47.75 C-183.86987088 42.43845053 -182.11483281 39.84012257 -178.10546875 36.3515625 C-133.67604587 2.89703965 -53.73527248 0 0 0 Z " fill="#0A4067" transform="translate(229,391)"/>
<path d="M0 0 C10.2804878 2.74390244 10.2804878 2.74390244 14.2265625 4.1484375 C17.63468987 5.19487661 20.81990215 5.42376805 24.375 5.625 C25.62023437 5.69976562 26.86546875 5.77453125 28.1484375 5.8515625 C29.08945313 5.90054688 30.03046875 5.94953125 31 6 C31 9.79048501 29.87821244 10.68958986 27.5625 13.625 C24.16062446 18.35864426 22.41304272 22.11913956 23 28 C24.82474445 33.37285867 27.94802071 36.47401035 33 39 C40.69435912 40.03577911 46.62365356 38.37018302 53 34 C54.17966051 32.7818723 55.32743062 31.53186583 56.4375 30.25 C59.3030484 27.12025211 61.28279818 26.48073675 65.5 26.125 C66.3765625 26.10695312 67.253125 26.08890625 68.15625 26.0703125 C71.1107238 26.10164509 71.1107238 26.10164509 74.3203125 25.1640625 C79.61010254 24.92821199 82.21861125 27.20337981 86.375 30.25 C87.98091794 31.37361581 89.5877086 32.49598518 91.1953125 33.6171875 C92.00129883 34.18791992 92.80728516 34.75865234 93.63769531 35.34667969 C97.11681332 37.78163082 100.67557205 40.08324919 104.25 42.375 C104.92861084 42.81328125 105.60722168 43.2515625 106.30639648 43.703125 C110.39378113 46.33984359 114.49645147 48.95182246 118.60546875 51.5546875 C119.57258789 52.16779785 120.53970703 52.7809082 121.53613281 53.41259766 C123.41031273 54.59949416 125.28586953 55.78422051 127.16308594 56.96630859 C133.23363992 60.80830372 139.1490508 64.83142482 145 69 C144.67 70.65 144.34 72.3 144 74 C141.4179818 75.04313535 139.65584871 75.25978423 137.04492188 74.22558594 C134.73769716 73.00503687 132.49181127 71.7118941 130.25 70.375 C129.48945313 69.93542969 128.72890625 69.49585938 127.9453125 69.04296875 C124.80788726 67.22964332 121.6751313 65.41696065 118.59179688 63.51269531 C117.42487305 62.81418457 117.42487305 62.81418457 116.234375 62.1015625 C115.54053711 61.67439941 114.84669922 61.24723633 114.13183594 60.80712891 C111.41191715 59.77734747 109.75519277 60.22182957 107 61 C106.14025199 63.29294488 106.14025199 63.29294488 106 66 C108.59849077 69.08982112 111.37363385 70.95703152 114.9140625 72.83984375 C116.30238281 73.5987793 116.30238281 73.5987793 117.71875 74.37304688 C119.66068712 75.41840415 121.60603531 76.45744871 123.5546875 77.49023438 C124.93914062 78.25110352 124.93914062 78.25110352 126.3515625 79.02734375 C127.19541504 79.47843506 128.03926758 79.92952637 128.90869141 80.39428711 C131.43620937 82.33492284 132.07827496 83.99345092 133 87 C130.47295628 90.0630833 128.84558981 91.79291678 124.9375 92.75 C117.99414136 92.22284696 111.49829725 86.71898245 105.95703125 82.90625 C104.52423828 81.93171875 104.52423828 81.93171875 103.0625 80.9375 C102.20785156 80.32777344 101.35320312 79.71804687 100.47265625 79.08984375 C97.98534496 77.67750016 97.98534496 77.67750016 95.18359375 78.81640625 C94.46300781 79.20699219 93.74242187 79.59757812 93 80 C92.61905422 82.84808574 92.61905422 82.84808574 93 86 C94.89109709 88.08031216 94.89109709 88.08031216 97.55859375 89.61328125 C98.50154297 90.22107422 99.44449219 90.82886719 100.41601562 91.45507812 C101.41310547 92.06802734 102.41019531 92.68097656 103.4375 93.3125 C105.39464379 94.55841698 107.35168089 95.80450159 109.30859375 97.05078125 C110.18314209 97.59387939 111.05769043 98.13697754 111.95874023 98.6965332 C114 100 114 100 115 101 C115.45434298 106.22494432 115.45434298 106.22494432 113.9375 108.8125 C110.86846732 110.69352003 108.6005713 110.94097424 105 111 C99.45378751 109.19268025 94.7825489 105.55245466 90.17578125 102.07421875 C87.36970874 100.68881491 85.93085772 101.0663196 83 102 C81.77132822 103.0404724 81.77132822 103.0404724 81.57421875 105.26953125 C81.75474859 108.25476656 81.75474859 108.25476656 84.51953125 110.38671875 C85.6053772 111.17027792 86.70369277 111.93678507 87.8125 112.6875 C88.63331055 113.27241211 88.63331055 113.27241211 89.47070312 113.86914062 C91.94930632 115.62669562 94.4719149 117.31460993 97 119 C96.52204176 123.54060325 96.52204176 123.54060325 94.4375 125.375 C89.04220806 126.75840819 85.5218883 125.88590311 80.8125 123.14453125 C77.82704075 121.15539862 74.89502518 119.11819342 72 117 C72.5775 115.90042969 73.155 114.80085938 73.75 113.66796875 C79.98163823 101.94649926 79.98163823 101.94649926 80 89 C78.01484963 85.02969927 75.86703549 82.20973457 72 80 C69.68652128 79.26739841 67.354248 78.588562 65 78 C64.90203125 77.41992188 64.8040625 76.83984375 64.703125 76.2421875 C63.58611391 70.40676749 62.34214352 65.43271671 57.27734375 61.74609375 C53.46971366 59.57354934 50.69220076 58.83301995 46.3125 59.125 C44.03125 59.24609375 44.03125 59.24609375 42 59 C39.3125 56.1875 39.3125 56.1875 37 53 C31.3570073 48.76775547 24.72588296 49.73056552 18 50 C17.7215625 49.36449219 17.443125 48.72898438 17.15625 48.07421875 C15.59884769 45.28036529 13.9748529 44.96682719 11 44 C10.01 43.505 10.01 43.505 9 43 C3.85093815 42.48677652 -0.60554346 42.38024154 -5.375 44.5 C-8.69542803 47.66231241 -10.78844135 51.01327722 -13 55 C-13.59361328 56.02673828 -13.59361328 56.02673828 -14.19921875 57.07421875 C-15.1445241 58.70943116 -16.07400023 60.35377819 -17 62 C-21.10088936 60.49392117 -22.53509554 58.03811122 -24.75 54.375 C-25.36359375 53.37210938 -25.9771875 52.36921875 -26.609375 51.3359375 C-27.06828125 50.56507813 -27.5271875 49.79421875 -28 49 C-18.98556004 32.46549248 -9.86442414 16.04837184 0 0 Z " fill="#0A4167" transform="translate(192,139)"/>
<path d="M0 0 C9.64042084 2.69416832 17.06761786 3.99695292 26.5546875 0.05859375 C29.05148944 -0.63604181 30.14643537 -0.42241075 32.5625 0.5 C34.11755371 2.25028992 34.11755371 2.25028992 35.61523438 4.55737305 C36.18262329 5.41884445 36.75001221 6.28031586 37.33459473 7.16789246 C37.93574097 8.10635513 38.53688721 9.04481781 39.15625 10.01171875 C40.09905823 11.45319023 40.09905823 11.45319023 41.06091309 12.92378235 C43.07247209 16.00466497 45.06764252 19.09578313 47.0625 22.1875 C48.40647611 24.25265375 49.75151582 26.31711575 51.09765625 28.38085938 C54.11186953 33.00511518 57.11726352 37.6348981 60.10742188 42.27474976 C61.35957975 44.18967417 62.65185641 46.06605215 63.96289062 47.94067383 C65.5625 50.5 65.5625 50.5 65.75 53.625 C64.29987869 57.13582 62.84845555 58.08934839 59.64453125 59.93359375 C55.91549758 60.94805882 52.99948087 60.27248728 49.61010742 58.45043945 C47.28443669 56.99872821 45.01570972 55.48114054 42.75 53.9375 C40.95911838 52.74491403 39.16741309 51.55356425 37.375 50.36328125 C36.43011719 49.73244629 35.48523438 49.10161133 34.51171875 48.45166016 C28.42802878 44.4257481 22.25646435 40.53534542 16.09936523 36.62304688 C10.70033451 33.18219009 5.34103006 29.69643774 0.03515625 26.11328125 C-1.01051514 25.41251465 -2.05618652 24.71174805 -3.13354492 23.98974609 C-5.12778538 22.64962416 -7.11406628 21.29755925 -9.09106445 19.93212891 C-9.98398193 19.3344873 -10.87689941 18.7368457 -11.796875 18.12109375 C-12.57514648 17.5892749 -13.35341797 17.05745605 -14.15527344 16.50952148 C-17.05804474 15.22550786 -18.45640785 15.5191539 -21.4375 16.5 C-22.4275 17.16 -23.4175 17.82 -24.4375 18.5 C-26.85546875 18.44921875 -26.85546875 18.44921875 -29.625 18.1875 C-34.17445142 18.09146936 -36.34723514 18.63946352 -39.75 21.6875 C-40.99249619 22.94530415 -42.2223704 24.2157383 -43.4375 25.5 C-48.62184433 30.06083744 -51.320534 31.88126604 -58.4375 31.5 C-59.0975 30.84 -59.7575 30.18 -60.4375 29.5 C-60.09216386 22.16668551 -55.50260333 18.32604241 -50.4375 13.5 C-35.59514273 0.81000874 -18.94385887 -5.69357273 0 0 Z " fill="#0A4067" transform="translate(285.4375,136.5)"/>
<path d="M0 0 C2.75291173 1.09508632 3.42990025 2.38696574 4.96289062 4.90795898 C5.52886963 5.81779541 6.09484863 6.72763184 6.67797852 7.66503906 C7.29793701 8.6849292 7.91789551 9.70481934 8.55664062 10.75561523 C9.95667662 13.01148492 11.36039546 15.26450299 12.77148438 17.51342773 C13.3582621 18.45044273 13.3582621 18.45044273 13.95689392 19.40638733 C17.64205101 25.24789967 21.4978458 30.96865904 25.37304688 36.68530273 C26.00902802 37.62622269 26.64500916 38.56714264 27.30026245 39.53657532 C29.88465778 43.35939549 32.46932604 47.18175667 35.07666016 50.98898315 C36.92627637 53.69152039 38.76026741 56.40408196 40.59179688 59.11889648 C41.15870743 59.93772308 41.72561798 60.75654968 42.30970764 61.60018921 C42.81924484 62.360867 43.32878204 63.1215448 43.85375977 63.90527344 C44.30513809 64.56711136 44.75651642 65.22894928 45.22157288 65.9108429 C46.05664062 67.81811523 46.05664062 67.81811523 45.81956482 69.95353699 C44.69842608 72.6935876 42.94057599 73.63835338 40.49414062 75.25561523 C39.59179688 75.85374023 38.68945312 76.45186523 37.75976562 77.06811523 C36.86773437 77.64561523 35.97570312 78.22311523 35.05664062 78.81811523 C34.30898438 79.33374023 33.56132812 79.84936523 32.79101562 80.38061523 C31.7778125 81.06124023 31.7778125 81.06124023 30.74414062 81.75561523 C30.14988281 82.15651367 29.555625 82.55741211 28.94335938 82.97045898 C26.3139422 84.15179134 24.92683707 84.31185907 22.05664062 83.81811523 C20.18065948 81.65472315 18.76682888 79.69843824 17.27539062 77.28686523 C16.82828735 76.59613922 16.38118408 75.90541321 15.92053223 75.1937561 C14.44897791 72.91225175 13.00274426 70.61581982 11.55664062 68.31811523 C10.54524956 66.73618015 9.53220994 65.15529792 8.51757812 63.57543945 C6.94836489 61.13109519 5.38080951 58.68581791 3.82006836 56.23605347 C0.23693846 50.61816256 -3.43237082 45.06613001 -7.16210938 39.54467773 C-8.14481673 38.08197887 -9.12724435 36.61909202 -10.109375 35.15600586 C-11.51789274 33.05780843 -12.9299849 30.96267891 -14.35620117 28.87646484 C-15.66987292 26.95181554 -16.96460678 25.01566167 -18.25585938 23.07592773 C-18.99449219 21.98425293 -19.733125 20.89257812 -20.49414062 19.76782227 C-21.94335938 16.81811523 -21.94335938 16.81811523 -21.90795898 14.10571289 C-20.7444928 11.34649292 -19.72889537 10.52055336 -17.19726562 8.95874023 C-16.44251953 8.48307617 -15.68777344 8.00741211 -14.91015625 7.51733398 C-14.11673828 7.0390918 -13.32332031 6.56084961 -12.50585938 6.06811523 C-11.71630859 5.5744043 -10.92675781 5.08069336 -10.11328125 4.57202148 C-2.40503843 -0.22509468 -2.40503843 -0.22509468 0 0 Z " fill="#0A4167" transform="translate(341.943359375,105.181884765625)"/>
<path d="M0 0 C5.80773321 0.47239935 9.91704342 2.89525861 14.8125 5.8125 C15.58787109 6.25142578 16.36324219 6.69035156 17.16210938 7.14257812 C17.89880859 7.57634766 18.63550781 8.01011719 19.39453125 8.45703125 C20.06331299 8.84866455 20.73209473 9.24029785 21.42114258 9.64379883 C23 11 23 11 23.90722656 12.79077148 C24.04605618 16.09674305 22.70387657 18.02487968 21.08984375 20.890625 C20.61195908 21.75011497 20.61195908 21.75011497 20.12442017 22.62696838 C19.07404653 24.50829424 18.00617145 26.37901695 16.9375 28.25 C16.20282871 29.55639816 15.4690321 30.86328858 14.73608398 32.1706543 C8.98960986 42.38825695 3.09133055 52.51904287 -2.85546875 62.62109375 C-6.10466824 68.15133174 -9.25390941 73.73454297 -12.33764648 79.35864258 C-13.72994322 81.87452312 -14.95465111 83.95465111 -17 86 C-22.11829787 85.80758279 -26.44292877 82.76306348 -30.75 80.25 C-31.52988281 79.81945312 -32.30976563 79.38890625 -33.11328125 78.9453125 C-33.85449219 78.51476562 -34.59570312 78.08421875 -35.359375 77.640625 C-36.03452148 77.25422852 -36.70966797 76.86783203 -37.40527344 76.46972656 C-39 75 -39 75 -39.90014648 72.68847656 C-40.03160582 69.14903848 -38.99612375 67.40758536 -37.23828125 64.34375 C-36.62001465 63.24957764 -36.00174805 62.15540527 -35.36474609 61.02807617 C-34.68098841 59.85186217 -33.99689843 58.67584129 -33.3125 57.5 C-32.61672835 56.28108055 -31.92224199 55.0614266 -31.22900391 53.84106445 C-29.82706349 51.37851448 -28.41710332 48.92085802 -26.99951172 46.46728516 C-25.24454221 43.42901571 -23.51048961 40.37943929 -21.78515625 37.32421875 C-14.6913487 24.78428088 -7.36453483 12.38238609 0 0 Z " fill="#0A4167" transform="translate(164,110)"/>
<path d="M0 0 C3.125 0.1875 3.125 0.1875 6.125 2.1875 C7.75760796 10.52081179 2.87968488 17.17835923 -1.0625 24.1875 C-1.74432164 25.43147993 -2.42467245 26.67626721 -3.10351562 27.921875 C-12.18699691 44.49949691 -12.18699691 44.49949691 -14.875 47.1875 C-20.07677384 47.63982816 -20.07677384 47.63982816 -22.75 46.125 C-24.48385706 43.13891284 -24.45077959 40.50027045 -23.875 37.1875 C-22.33663559 33.31756375 -20.3746434 29.71127545 -18.375 26.0625 C-17.83125732 25.04655762 -17.28751465 24.03061523 -16.72729492 22.98388672 C-4.47669313 0.29195825 -4.47669313 0.29195825 0 0 Z " fill="#0A4066" transform="translate(217.875,198.8125)"/>
<path d="M0 0 C3.375 0.3125 3.375 0.3125 7 1 C9.1146317 4.17194755 9.2973762 5.23978817 8.64160156 8.88574219 C7.2567629 13.44917552 4.72856145 17.50396837 2.375 21.625 C1.28083341 23.57919389 0.18708193 25.53362026 -0.90625 27.48828125 C-1.70289063 28.90101318 -1.70289063 28.90101318 -2.515625 30.34228516 C-5.00026808 34.79094052 -7.34439812 39.3114919 -9.6953125 43.83203125 C-11 46 -11 46 -13 47 C-16.07155269 47.26140874 -18.199384 47.43904748 -20.9375 45.9375 C-22.63894074 42.83487276 -21.6835077 40.39832782 -21 37 C-19.60473633 33.67016602 -19.60473633 33.67016602 -17.83203125 30.25390625 C-17.51473557 29.63909897 -17.19743988 29.02429169 -16.87052917 28.39085388 C-16.20048192 27.09839073 -15.52537407 25.80853966 -14.84545898 24.52124023 C-13.82039413 22.57746918 -12.8144 20.62471604 -11.81054688 18.66992188 C-8.35993818 12.02042738 -4.74337708 5.83516527 0 0 Z " fill="#0A4067" transform="translate(237,208)"/>
<path d="M0 0 C3.5625 0.3125 3.5625 0.3125 5.5625 1.375 C7.17024924 4.49001415 6.24476649 6.94230705 5.5625 10.3125 C4.10375977 13.64575195 4.10375977 13.64575195 2.25390625 17.05078125 C1.76373268 17.96104317 1.76373268 17.96104317 1.26365662 18.88969421 C0.57686077 20.16038583 -0.11502341 21.42833939 -0.81176758 22.69360352 C-1.87864014 24.63161243 -2.92977519 26.57751994 -3.97851562 28.52539062 C-9.11003345 37.98503345 -9.11003345 37.98503345 -11.4375 40.3125 C-14.875 40.6875 -14.875 40.6875 -18.4375 40.3125 C-20.4375 38.6875 -20.4375 38.6875 -21.4375 36.3125 C-21.02785934 31.45923353 -19.43079012 27.92870445 -17.12890625 23.671875 C-16.80212387 23.06361877 -16.47534149 22.45536255 -16.13865662 21.82867432 C-15.45090523 20.55253358 -14.75902627 19.27860952 -14.06323242 18.00683594 C-12.99810995 16.05904366 -11.94633416 14.10449664 -10.89648438 12.1484375 C-4.55269178 0.41388107 -4.55269178 0.41388107 0 0 Z " fill="#0A4167" transform="translate(195.4375,191.6875)"/>
<path d="M0 0 C2 2 2 2 2.453125 4.953125 C2.28777422 10.45531474 -0.67572413 15.02721908 -3.25 19.75 C-3.74113281 20.69488281 -4.23226562 21.63976562 -4.73828125 22.61328125 C-9.01369312 30.62825338 -9.01369312 30.62825338 -13 33 C-16.125 32.875 -16.125 32.875 -19 32 C-21 29 -21 29 -20.8671875 25.8203125 C-19.86465753 21.40376157 -18.22545909 17.85759089 -16.125 13.875 C-15.77308594 13.18535156 -15.42117187 12.49570313 -15.05859375 11.78515625 C-8.75575677 -0.4690584 -8.75575677 -0.4690584 0 0 Z " fill="#0A4067" transform="translate(260,228)"/>
</svg>
