<?xml version="1.0" encoding="UTF-8"?>
<svg className='bg-white' version="1.1" xmlns="http://www.w3.org/2000/svg" width="512" height="512">
<path d="M0 0 C1.79638885 -0.00270077 3.59277626 -0.00658802 5.38916016 -0.01159668 C9.13783813 -0.01746427 12.88613256 -0.00901786 16.63476562 0.00976562 C21.41251161 0.03255361 26.18935845 0.01941572 30.96707153 -0.00452423 C34.67169836 -0.01905676 38.37611599 -0.01434227 42.08074951 -0.00401306 C43.84120798 -0.00136632 45.60168616 -0.00454231 47.36212158 -0.01393127 C61.47092295 -0.07268554 72.70997267 1.35008024 83.375 11.53125 C93.08264494 21.70024836 95.05102748 32.6715223 94.89648438 46.28320312 C94.87502684 48.52844189 94.8963843 50.77048264 94.921875 53.015625 C94.94012416 62.74135389 93.89092313 71.2573653 88.375 79.53125 C94.315 79.86125 100.255 80.19125 106.375 80.53125 C107.035 79.21125 107.695 77.89125 108.375 76.53125 C119.96891111 61.24398771 135.5680555 51.99492436 154.375 48.53125 C159.91792376 47.88858579 165.49082223 47.96512879 171.0625 48 C172.61938721 47.99729375 174.17627276 47.99340203 175.7331543 47.98840332 C178.97038117 47.98256129 182.20716166 47.99089717 185.44433594 48.00976562 C189.54902199 48.03255248 193.6526611 48.01940045 197.75730896 47.99547577 C200.96455467 47.98087247 204.17156092 47.98568935 207.3788147 47.99598694 C208.89035167 47.99861436 210.40191197 47.99552874 211.91342163 47.98606873 C231.72353352 47.88922672 249.76246975 53.39014311 264.29833984 67.33129883 C279.90255967 82.91684693 286.71711288 100.40362696 286.81748962 122.340271 C286.81543861 124.08622364 286.81245094 125.83217541 286.80859375 127.578125 C286.81316455 129.40269157 286.81847277 131.22725643 286.82447815 133.05181885 C286.8333605 136.85411631 286.83103923 140.65620315 286.82104492 144.45849609 C286.80951645 149.31606209 286.82985068 154.17290528 286.85896206 159.03037643 C286.87734896 162.78975993 286.87702741 166.54897057 286.87132454 170.30838776 C286.87117187 172.09924591 286.87717093 173.89011618 286.88961601 175.68093109 C286.90458537 178.18585679 286.8938093 180.6894504 286.87670898 183.19433594 C286.88637695 183.92283249 286.89604492 184.65132904 286.90600586 185.40190125 C286.81486791 191.81529683 284.63931062 196.94732495 280.41015625 201.7734375 C279.75917969 202.31226563 279.10820312 202.85109375 278.4375 203.40625 C277.78910156 203.96054688 277.14070313 204.51484375 276.47265625 205.0859375 C271.61680429 208.4316828 267.34409239 208.80009823 261.5625 208.65625 C260.86962891 208.64722656 260.17675781 208.63820312 259.46289062 208.62890625 C257.76677605 208.60551157 256.07084129 208.56964641 254.375 208.53125 C254.42140625 209.63082031 254.4678125 210.73039063 254.515625 211.86328125 C254.88312944 224.19354428 253.57412284 233.70137278 245.34765625 243.46484375 C238.80598256 250.31740886 232.37951237 253.68172077 223.375 256.53125 C223.045 261.81125 222.715 267.09125 222.375 272.53125 C224.045625 272.61375 225.71625 272.69625 227.4375 272.78125 C250.60934427 274.79146861 270.77428629 285.64395539 287.375 301.53125 C288.12394531 302.20542969 288.87289063 302.87960937 289.64453125 303.57421875 C305.65711516 318.5211666 317.36357119 342.55080027 318.47582436 364.52300262 C318.52499005 366.72831425 318.5443096 368.93184865 318.55200195 371.13769531 C318.55857315 371.96960892 318.56514435 372.80152252 318.57191467 373.65864563 C318.59150965 376.39222323 318.60327856 379.12574629 318.61328125 381.859375 C318.61735678 382.79905876 318.6214323 383.73874252 318.62563133 384.70690155 C318.64643212 389.6797615 318.66076028 394.65259434 318.67016602 399.62548828 C318.68122504 404.73729401 318.71563654 409.84866386 318.75533772 414.9603157 C318.78158676 418.91366335 318.78986513 422.86690828 318.79344749 426.82033539 C318.79829106 428.70363055 318.80984071 430.58692182 318.82848549 432.47013092 C318.96341656 447.00021029 317.88802068 458.51860061 307.375 469.53125 C296.1237325 480.27206302 284.00019811 481.12015395 269.18519592 481.03918457 C267.34301192 481.04379841 265.5008316 481.05015456 263.65865892 481.05809355 C258.61743284 481.07474252 253.57651089 481.06656076 248.53528392 481.05414867 C243.0908848 481.04508282 237.64653725 481.05907523 232.20214844 481.07006836 C221.54684049 481.08783923 210.89164535 481.08402068 200.23633302 481.0724178 C191.57958306 481.06338145 182.9228647 481.06216034 174.26611137 481.06651306 C173.0337209 481.06712599 171.80133043 481.06773893 170.53159479 481.06837043 C168.02804958 481.06964933 165.52450438 481.07094618 163.02095919 481.0722608 C140.22582455 481.08333664 117.43074749 481.07185725 94.63562264 481.05089041 C73.82272269 481.03189249 53.0099206 481.03362154 32.19702148 481.05273438 C8.80588201 481.07414314 -14.58520638 481.08257935 -37.97635466 481.07028532 C-40.46851034 481.0690111 -42.96066603 481.06775362 -45.45282173 481.06651306 C-47.29215377 481.06558741 -47.29215377 481.06558741 -49.16864402 481.06464306 C-57.82114668 481.06118534 -66.47361469 481.06702724 -75.12611198 481.07643127 C-85.66118457 481.08762983 -96.19613789 481.08465577 -106.73119675 481.0633083 C-112.10891816 481.0527714 -117.48644045 481.04872114 -122.86416054 481.06190491 C-127.78187813 481.07377909 -132.69921104 481.06734889 -137.61689348 481.0459947 C-139.40060402 481.04150765 -141.18434672 481.04384169 -142.96803676 481.05349785 C-145.38376178 481.06557775 -147.79815117 481.05327412 -150.2138052 481.03461456 C-151.26422722 481.04866156 -151.26422722 481.04866156 -152.33586988 481.06299233 C-155.68127644 481.01097526 -157.37162629 480.72613789 -160.05645376 478.6610446 C-162.05702649 475.94463823 -162.13161211 474.35587971 -162.14257812 471 C-162.15518677 469.89205078 -162.16779541 468.78410156 -162.18078613 467.64257812 C-162.17268921 466.45083984 -162.16459229 465.25910156 -162.15625 464.03125 C-162.1600769 462.80341797 -162.16390381 461.57558594 -162.16784668 460.31054688 C-162.17056842 457.71483541 -162.16318911 455.11909664 -162.14648438 452.5234375 C-162.12508075 448.54625401 -162.14627963 444.57087718 -162.171875 440.59375 C-162.16923177 438.07291267 -162.16410691 435.55207647 -162.15625 433.03125 C-162.16839539 431.24364258 -162.16839539 431.24364258 -162.18078613 429.41992188 C-162.16187317 427.75799805 -162.16187317 427.75799805 -162.14257812 426.0625 C-162.13939575 425.08861328 -162.13621338 424.11472656 -162.13293457 423.11132812 C-161.45302411 419.6576902 -160.51323145 418.53634816 -157.625 416.53125 C-155.01010378 416.12810851 -152.80844332 415.96646547 -150.19433594 415.98535156 C-149.45248047 415.97501389 -148.710625 415.96467621 -147.94628906 415.95402527 C-145.50042974 415.92458735 -143.05539758 415.92309796 -140.609375 415.921875 C-138.91113709 415.90689394 -137.21291376 415.89016694 -135.51470947 415.87176514 C-131.04967583 415.82807075 -126.58483872 415.808088 -122.11962891 415.79302979 C-117.56140511 415.77346616 -113.00339381 415.73149534 -108.4453125 415.69140625 C-99.50527384 415.61608162 -90.56528269 415.56580385 -81.625 415.53125 C-81.37322998 414.79229492 -81.12145996 414.05333984 -80.86206055 413.29199219 C-80.51957275 412.31391602 -80.17708496 411.33583984 -79.82421875 410.328125 C-79.48994873 409.36229492 -79.15567871 408.39646484 -78.8112793 407.40136719 C-74.78333805 397.65605389 -66.21829429 390.26803356 -56.6875 386.09375 C-48.95182705 383.49677408 -40.67092197 384.21259962 -32.625 384.53125 C-32.59921875 383.98082031 -32.5734375 383.43039062 -32.546875 382.86328125 C-32.07849904 375.99731554 -30.8952937 369.34862478 -29.578125 362.60546875 C-29.39072754 361.63460327 -29.20333008 360.66373779 -29.01025391 359.66345215 C-28.55091581 357.28557291 -28.08910483 354.90820265 -27.625 352.53125 C-28.67212158 352.54013245 -29.71924316 352.54901489 -30.7980957 352.5581665 C-40.68479168 352.63938883 -50.57141962 352.69928086 -60.45837402 352.73849869 C-65.54091337 352.75933911 -70.62318253 352.78759194 -75.70556641 352.83300781 C-80.6139083 352.87659205 -85.52199094 352.90041376 -90.43051147 352.91075897 C-92.29955117 352.91812779 -94.1685773 352.93251737 -96.0375061 352.95417023 C-98.66333247 352.98337176 -101.28809889 352.98719907 -103.9140625 352.98535156 C-104.68011307 352.99973267 -105.44616364 353.01411377 -106.23542786 353.02893066 C-112.78930717 352.97930588 -117.92854841 350.89416838 -122.8671875 346.56640625 C-123.40601563 345.91542969 -123.94484375 345.26445312 -124.5 344.59375 C-125.05429688 343.94535156 -125.60859375 343.29695313 -126.1796875 342.62890625 C-129.91136384 337.21293276 -129.91418435 332.31351122 -129.89242554 325.94841003 C-129.89695665 324.97789697 -129.90148776 324.00738392 -129.90615618 323.00746137 C-129.91882531 319.75256594 -129.91717817 316.4978373 -129.91552734 313.24291992 C-129.92151102 310.91036259 -129.9283162 308.57780725 -129.93588257 306.24525452 C-129.95356623 299.90636206 -129.95823896 293.56752358 -129.95951414 287.22860885 C-129.96141252 281.93784238 -129.96876937 276.6470885 -129.97585833 271.35632688 C-129.99150227 259.58696567 -129.99719544 247.81762787 -129.99584763 236.04825719 C-129.99576772 235.34228105 -129.9956878 234.63630491 -129.99560547 233.90893555 C-129.99552371 233.20209522 -129.99544195 232.4952549 -129.99535771 231.76699517 C-129.99454496 220.31397615 -130.01368028 208.86108869 -130.0418822 197.40810772 C-130.07062551 185.64221231 -130.08442169 173.87638102 -130.08269465 162.11044961 C-130.08218459 155.50720445 -130.08789236 148.90410816 -130.10905075 142.30089378 C-130.12840864 136.08989822 -130.12857408 129.87919391 -130.11401749 123.6681881 C-130.11192526 121.38977127 -130.11665482 119.11133633 -130.1287384 116.83295059 C-130.14417775 113.71997152 -130.13489065 110.60799835 -130.11947632 107.49504089 C-130.12976344 106.59570853 -130.14005057 105.69637617 -130.15064943 104.76979131 C-130.07460279 97.80893293 -128.27963068 92.56058998 -123.66015625 87.2890625 C-123.00917969 86.75023438 -122.35820313 86.21140625 -121.6875 85.65625 C-121.03910156 85.10195312 -120.39070313 84.54765625 -119.72265625 83.9765625 C-115.1608151 80.83339448 -111.21043895 80.27258937 -105.72338867 80.21240234 C-104.71279892 80.19733391 -104.71279892 80.19733391 -103.68179321 80.18196106 C-101.4688599 80.15122566 -99.25604704 80.13412121 -97.04296875 80.1171875 C-95.50310741 80.09846805 -93.96325624 80.07889405 -92.42341614 80.0585022 C-88.38097135 80.00725694 -84.33849334 79.96759069 -80.29589844 79.93035889 C-76.16658357 79.89027141 -72.03740602 79.83920075 -67.90820312 79.7890625 C-59.81389602 79.69239334 -51.71952075 79.60795992 -43.625 79.53125 C-43.97433594 78.85578125 -44.32367188 78.1803125 -44.68359375 77.484375 C-45.13863281 76.59234375 -45.59367187 75.7003125 -46.0625 74.78125 C-46.51496094 73.89953125 -46.96742188 73.0178125 -47.43359375 72.109375 C-49.59504037 67.43214625 -49.80856427 63.19015987 -49.86328125 58.08984375 C-49.871353 57.36692642 -49.87942474 56.64400909 -49.88774109 55.89918518 C-49.90154809 54.36860525 -49.91228533 52.83799496 -49.92016602 51.30737305 C-49.93162981 49.76073009 -49.951992 48.21412492 -49.98168945 46.66772461 C-50.24653412 32.85585346 -48.56597147 21.94466368 -38.625 11.53125 C-27.17536511 0.60106924 -15.00215201 -0.08001124 0 0 Z M-27.875 25.96875 C-34.97112924 34.67679371 -34.03854062 45.87462637 -33.625 56.53125 C-32.68336201 65.17286444 -29.06895728 70.80338162 -22.3515625 76.27734375 C-16.70379661 80.37900178 -9.98362616 80.65297175 -3.21166992 80.67651367 C-1.95984421 80.68289352 -0.70801849 80.68927338 0.58174133 80.69584656 C1.93600424 80.69737571 3.29026767 80.69848941 4.64453125 80.69921875 C6.04929131 80.70243691 7.45405105 80.7058014 8.85881042 80.70930481 C11.7982155 80.71527721 14.73759125 80.71714669 17.67700195 80.71655273 C21.42241279 80.71645128 25.16763332 80.73009413 28.91299915 80.74732494 C31.81370386 80.75850669 34.71436347 80.76047005 37.61508751 80.75994301 C38.99482567 80.7611142 40.37456533 80.76548695 41.754282 80.77327538 C56.50902627 80.99252694 56.50902627 80.99252694 69.375 74.53125 C77.62103791 66.22588807 78.59211942 57.98328254 78.55566406 46.58056641 C78.43501826 37.5342111 77.39539033 30.5157804 70.734375 23.90234375 C63.84936276 17.69086531 57.13646199 16.41788143 47.96166992 16.38598633 C46.70984421 16.37960648 45.45801849 16.37322662 44.16825867 16.36665344 C42.81399576 16.36512429 41.45973233 16.36401059 40.10546875 16.36328125 C38.70070869 16.36006309 37.29594895 16.3566986 35.89118958 16.35319519 C32.9517845 16.34722279 30.01240875 16.34535331 27.07299805 16.34594727 C23.32758721 16.34604872 19.58236668 16.33240587 15.83700085 16.31517506 C12.93629614 16.30399331 10.03563653 16.30202995 7.13491249 16.30255699 C5.75517433 16.3013858 4.37543467 16.29701305 2.995718 16.28922462 C-9.14999148 16.22708527 -19.25519229 16.41426434 -27.875 25.96875 Z M123.734375 84.390625 C111.83548716 99.28393494 110.00083908 116.29290721 110.11425781 134.76489258 C110.12508307 136.85982579 110.11423087 138.95391884 110.1015625 141.04882812 C110.04112132 155.21469102 110.04112132 155.21469102 116.375 167.53125 C119.51646767 170.58665006 122.17971248 173.13282083 126.375 174.53125 C126.38086624 173.81128342 126.38673248 173.09131683 126.39277649 172.34953308 C126.45066863 165.56611974 126.52272514 158.78298902 126.61071491 151.99990368 C126.65545208 148.5125732 126.69470032 145.02536043 126.72143555 141.5378418 C126.75240851 137.52883213 126.80719816 133.52045633 126.86328125 129.51171875 C126.87286613 127.63192574 126.87286613 127.63192574 126.88264465 125.7141571 C126.90243881 124.55318008 126.92223297 123.39220306 126.94262695 122.19604492 C126.95373001 121.17234299 126.96483307 120.14864105 126.97627258 119.09391785 C127.375 116.53125 127.375 116.53125 128.37882996 114.70146179 C131.63072254 112.79510965 135.08105272 113.11549939 138.74609375 113.14306641 C140.02699387 113.13518097 140.02699387 113.13518097 141.33377075 113.12713623 C144.16019917 113.1139181 146.98606572 113.12268068 149.8125 113.1328125 C151.77400826 113.13079229 153.7355158 113.12788129 155.69702148 113.12411499 C159.80948024 113.11968918 163.92174362 113.12613099 168.03417969 113.14013672 C173.31051687 113.15722871 178.58639629 113.1473889 183.86271667 113.12941933 C187.91356873 113.11858845 191.96431193 113.12202464 196.01516724 113.1298027 C197.96086684 113.13180664 199.90657627 113.12933869 201.8522644 113.12236404 C204.5697454 113.11476103 207.2864809 113.12633748 210.00390625 113.14306641 C210.81127228 113.13699371 211.61863831 113.13092102 212.45046997 113.12466431 C217.8681269 113.18657786 217.8681269 113.18657786 220.34765625 114.87265015 C221.91169591 117.39772119 222.27282808 119.93756643 222.8125 122.84375 C224.67121895 131.44151663 228.33728693 136.42015069 235.375 141.53125 C240.64103185 144.22848583 246.36914179 144.62780372 252.2109375 144.84765625 C253.27441406 144.88955078 254.33789062 144.93144531 255.43359375 144.97460938 C256.52800781 145.01392578 257.62242187 145.05324219 258.75 145.09375 C260.42642578 145.15852539 260.42642578 145.15852539 262.13671875 145.22460938 C264.88270199 145.33022411 267.62876881 145.4323297 270.375 145.53125 C270.91758491 110.20126298 270.91758491 110.20126298 253.375 80.53125 C236.16428157 64.63719856 215.71056141 64.18231153 193.58007812 64.27050781 C190.38131761 64.28122883 187.18311853 64.2705604 183.984375 64.2578125 C160.7313942 64.24065554 140.25816193 66.49800365 123.734375 84.390625 Z M-111.625 99.53125 C-114.15439269 104.05047397 -113.90799163 108.56448223 -113.88569641 113.59605408 C-113.88952196 114.51080854 -113.89334751 115.42556299 -113.89728898 116.36803728 C-113.90761022 119.4341373 -113.90362847 122.50004974 -113.8996582 125.56616211 C-113.90400514 127.76403476 -113.90918823 129.9619059 -113.91514587 132.15977478 C-113.92854865 138.13078256 -113.92911314 144.1017271 -113.92658257 150.07274699 C-113.92551379 155.05552067 -113.93039383 160.03828149 -113.935188 165.02105242 C-113.94692229 177.44692334 -113.94605555 189.87276605 -113.93963119 202.29863799 C-113.93446173 213.08693543 -113.94571846 223.87514258 -113.96472941 234.66342216 C-113.98410647 245.74451731 -113.99207261 256.82557575 -113.98860615 267.90668875 C-113.98679147 274.12642764 -113.98944803 280.34608382 -114.00332069 286.56580925 C-114.01587633 292.41398327 -114.0139763 298.2619763 -114.00090981 304.11014748 C-113.99853959 306.25717098 -114.00129457 308.40420712 -114.00953293 310.55121613 C-114.01996422 313.4808427 -114.01192862 316.40985788 -113.9992218 319.33946228 C-114.00659609 320.19014705 -114.01397037 321.04083182 -114.02156812 321.91729492 C-113.97687918 326.81090097 -113.52786579 330.39299522 -110.625 334.53125 C-106.69420698 336.92595973 -102.86415077 336.77820531 -98.34208679 336.77175903 C-97.61910945 336.77346788 -96.89613211 336.77517673 -96.15124637 336.77693737 C-93.734437 336.78022539 -91.31790674 336.76924003 -88.90112305 336.75830078 C-87.16641751 336.75773652 -85.43171149 336.75805352 -83.69700623 336.75918579 C-78.99079897 336.75975972 -74.28469362 336.74799893 -69.57851005 336.73403788 C-64.65910086 336.72153718 -59.73968934 336.72036054 -54.82026672 336.71798706 C-45.5060113 336.71177035 -36.19180282 336.69535694 -26.87756807 336.67528808 C-16.27306554 336.65293503 -5.66856077 336.64193714 4.93595946 336.63189721 C26.74899917 336.61099089 48.56199663 336.57581118 70.375 336.53125 C71.54654293 334.24195947 72.71238074 331.95006638 73.875 329.65625 C74.37580078 328.67978516 74.37580078 328.67978516 74.88671875 327.68359375 C76.74343717 324.2788029 76.74343717 324.2788029 77.375 320.53125 C76.49647716 320.52886165 75.61795431 320.52647329 74.71280956 320.52401257 C53.35630813 320.46492852 31.99992017 320.38942096 10.64354229 320.29553509 C0.31583869 320.25053081 -10.01183008 320.21112691 -20.33959961 320.18481445 C-29.3391651 320.16187181 -38.33862074 320.12851583 -47.33809918 320.08254844 C-52.10518517 320.05856569 -56.87216204 320.0398701 -61.63930702 320.03363609 C-66.12334226 320.02760799 -70.60709811 320.00769116 -75.09103012 319.97697449 C-76.73939642 319.96815761 -78.38779918 319.96447919 -80.03618813 319.96624184 C-82.28192337 319.96788549 -84.52679766 319.95127472 -86.77241516 319.92997742 C-88.6597863 319.92306397 -88.6597863 319.92306397 -90.58528614 319.91601086 C-93.625 319.53125 -93.625 319.53125 -95.52947712 318.50216389 C-97.28100251 315.35106063 -97.03657257 312.1093494 -97.00595093 308.59790039 C-97.0106309 307.78074334 -97.01531087 306.96358629 -97.02013266 306.12166691 C-97.03213217 303.37391663 -97.0226062 300.62666054 -97.01318359 297.87890625 C-97.0172471 295.91291003 -97.02258773 293.9469161 -97.02911377 291.98092651 C-97.04281949 286.63390913 -97.03747528 281.28706491 -97.02797651 275.9400444 C-97.02039677 270.35203321 -97.02742083 264.76403714 -97.03213501 259.17602539 C-97.03759748 249.7908257 -97.03038805 240.40569677 -97.01611328 231.02050781 C-96.99978585 220.16014339 -97.00507401 209.29994792 -97.0215925 198.43958759 C-97.03519335 189.12574216 -97.03713388 179.81194767 -97.02927649 170.49809551 C-97.02459227 164.93067848 -97.02399567 159.36334093 -97.03388596 153.79592896 C-97.04253298 148.56253247 -97.03657521 143.32935442 -97.01920319 138.0959816 C-97.01522621 136.17184945 -97.01639297 134.24769901 -97.02299118 132.32357407 C-97.03114908 129.70366519 -97.02095525 127.08446305 -97.00595093 124.46459961 C-97.01264309 123.69719483 -97.01933526 122.92979006 -97.02623022 122.13913059 C-96.96936377 117.04506194 -96.96936377 117.04506194 -95.30406666 114.56033611 C-92.50668525 112.84584411 -89.49167223 113.09234853 -86.30786133 113.09887695 C-85.56615189 113.0886853 -84.82444244 113.07849365 -84.06025696 113.06799316 C-81.60910549 113.03780337 -79.15834441 113.02858837 -76.70703125 113.01953125 C-75.00736689 113.00268895 -73.30771503 112.98453932 -71.608078 112.96513367 C-67.13485619 112.91757858 -62.661685 112.88780498 -58.18829346 112.86169434 C-53.62347411 112.83191651 -49.05882932 112.78537669 -44.49414062 112.74023438 C-35.53783151 112.65413848 -26.58154084 112.58837039 -17.625 112.53125 C-17.625 107.25125 -17.625 101.97125 -17.625 96.53125 C-28.99514356 96.46344224 -40.36515256 96.40841532 -51.73545265 96.37581348 C-57.0152806 96.36016535 -62.2949629 96.33894245 -67.57470703 96.30493164 C-72.67105921 96.27230808 -77.76727139 96.25439057 -82.86371994 96.24661827 C-84.80696186 96.24108017 -86.75019621 96.23026559 -88.69337845 96.21405983 C-91.41766093 96.19224582 -94.14136673 96.18928475 -96.86572266 96.19067383 C-97.66701599 96.179888 -98.46830933 96.16910217 -99.29388428 96.1579895 C-104.09478781 96.18443409 -107.55663312 96.70401897 -111.625 99.53125 Z M-1.625 96.53125 C-1.625 101.81125 -1.625 107.09125 -1.625 112.53125 C14.215 112.53125 30.055 112.53125 46.375 112.53125 C46.375 107.25125 46.375 101.97125 46.375 96.53125 C30.535 96.53125 14.695 96.53125 -1.625 96.53125 Z M62.375 96.53125 C62.375 101.81125 62.375 107.09125 62.375 112.53125 C72.935 112.53125 83.495 112.53125 94.375 112.53125 C96.48507459 104.60073019 96.48507459 104.60073019 97.375 96.53125 C85.825 96.53125 74.275 96.53125 62.375 96.53125 Z M-81.625 128.53125 C-81.625 186.61125 -81.625 244.69125 -81.625 304.53125 C-76.345 304.53125 -71.065 304.53125 -65.625 304.53125 C-65.27308594 303.34789062 -64.92117187 302.16453125 -64.55859375 300.9453125 C-61.55668135 291.20943607 -58.54930277 282.29249278 -51.04722595 274.99690247 C-48.84192511 271.17366646 -49.21877677 267.47358179 -49.25610352 263.13549805 C-49.25233704 262.18365128 -49.24857056 261.2318045 -49.24468994 260.25111389 C-49.23825403 258.18315808 -49.23859072 256.11517269 -49.24487495 254.04721642 C-49.25399249 250.761894 -49.24374947 247.47714161 -49.22825623 244.19184875 C-49.18820023 234.85048333 -49.18693909 225.50916163 -49.18920898 216.16772461 C-49.18926044 210.45063918 -49.16990719 204.73385725 -49.13987541 199.01685524 C-49.12914697 195.80258843 -49.14112937 192.58892617 -49.15370178 189.37467957 C-49.11299112 167.03021288 -43.8136452 148.96650179 -27.84765625 132.82421875 C-25.60363479 130.73970237 -25.60363479 130.73970237 -24.625 128.53125 C-43.435 128.53125 -62.245 128.53125 -81.625 128.53125 Z M69.375 128.53125 C73.38958022 133.2296514 73.38958022 133.2296514 77.46484375 137.875 C91.11370508 153.80348088 93.82310189 171.66695246 93.632864 191.98338509 C93.60495603 195.2514462 93.60034228 198.51879952 93.60237122 201.78697205 C93.60588211 211.07023109 93.58282147 220.35300315 93.5090332 229.63598633 C93.46536497 235.3365257 93.46082411 241.03600581 93.48061562 246.73666191 C93.48051854 248.89629667 93.46578934 251.05598565 93.43565941 253.21541023 C93.2632901 265.89903901 93.20145373 274.07485267 102.375 283.53125 C103.84679414 285.81322968 105.09647083 288.1340078 106.375 290.53125 C107.06464844 290.14453125 107.75429688 289.7578125 108.46484375 289.359375 C109.40457031 288.83859375 110.34429687 288.3178125 111.3125 287.78125 C112.22902344 287.27078125 113.14554687 286.7603125 114.08984375 286.234375 C118.09802137 284.15641371 122.24932444 282.36488358 126.375 280.53125 C126.375 251.49125 126.375 222.45125 126.375 192.53125 C122.415 190.88125 118.455 189.23125 114.375 187.53125 C104.82003795 181.20263877 97.75357023 172.95763924 95.375 161.53125 C94.88469274 155.84543163 94.77223382 150.17273836 94.6875 144.46875 C94.6542697 142.919894 94.61977492 141.37106458 94.58398438 139.82226562 C94.49739331 136.05857508 94.43678302 132.29575308 94.375 128.53125 C86.125 128.53125 77.875 128.53125 69.375 128.53125 Z M142.375 128.53125 C142.31678288 143.95214116 142.31678288 143.95214116 142.27734375 159.37304688 C142.26541006 165.66694531 142.2513253 171.9607853 142.22412109 178.25463867 C142.20231545 183.33154502 142.19041511 188.40838863 142.18524551 193.48533821 C142.1815636 195.41771494 142.17437385 197.35008841 142.16353989 199.28243828 C142.14892228 201.99883189 142.14702633 204.71496958 142.14794922 207.43139648 C142.14075867 208.22190399 142.13356812 209.0124115 142.12615967 209.82687378 C142.15883957 218.77524239 143.43223832 226.62379376 150.015625 233.16015625 C158.1542541 240.50261511 166.59584048 240.6873702 177.14453125 240.69921875 C178.18010666 240.70254715 179.21568207 240.70587555 180.28263855 240.70930481 C182.46877602 240.71435567 184.65492116 240.71671371 186.84106445 240.71655273 C190.16565825 240.71873566 193.4899181 240.73690143 196.81445312 240.75585938 C198.94531137 240.75879448 201.07617119 240.76077849 203.20703125 240.76171875 C204.68403252 240.77249702 204.68403252 240.77249702 206.19087219 240.78349304 C214.78082943 240.75540641 222.53104895 240.15849864 229.375 234.53125 C236.42347447 227.43206708 238.51114612 220.70783619 238.48852539 210.70947266 C238.48844986 209.58876373 238.48837433 208.46805481 238.48829651 207.31338501 C238.48313522 206.11942108 238.47797394 204.92545715 238.47265625 203.6953125 C238.4712413 202.46082367 238.46982635 201.22633484 238.46836853 199.95443726 C238.46278272 196.02168325 238.45023275 192.08898672 238.4375 188.15625 C238.43191912 185.48567792 238.42792058 182.81510637 238.42382812 180.14453125 C238.41281792 173.60675131 238.39609385 167.06900476 238.375 160.53125 C237.56458252 160.20729248 236.75416504 159.88333496 235.91918945 159.54956055 C234.84886475 159.11426025 233.77854004 158.67895996 232.67578125 158.23046875 C231.61786377 157.80338623 230.55994629 157.37630371 229.4699707 156.9362793 C216.74587999 151.15990144 211.39501386 141.08128464 206.375 128.53125 C185.255 128.53125 164.135 128.53125 142.375 128.53125 Z M-16.625 144.53125 C-32.79246882 161.16220444 -33.79412483 180.27416505 -33.72265625 202.1328125 C-33.72078778 203.82245847 -33.71936591 205.512105 -33.71836853 207.20175171 C-33.7145771 211.61738621 -33.70477618 216.03298706 -33.69366455 220.4486084 C-33.68337734 224.96703639 -33.67885535 229.48546989 -33.67382812 234.00390625 C-33.66315041 242.8463695 -33.64611523 251.68880554 -33.625 260.53125 C-32.20818366 260.21942931 -30.79155349 259.90676263 -29.375 259.59375 C-28.58609375 259.41972656 -27.7971875 259.24570312 -26.984375 259.06640625 C-25.4733686 258.72367798 -23.96637474 258.36241457 -22.46551514 257.97767639 C-20.31616597 257.45634072 -18.28668762 257.31930279 -16.078125 257.21484375 C-14.81162109 257.15200195 -14.81162109 257.15200195 -13.51953125 257.08789062 C-12.64683594 257.04857422 -11.77414063 257.00925781 -10.875 256.96875 C-9.54275391 256.90397461 -9.54275391 256.90397461 -8.18359375 256.83789062 C-5.99754037 256.73211385 -3.81137911 256.63002454 -1.625 256.53125 C-1.07670715 251.29338891 -1.07670715 251.29338891 -2.98046875 246.71875 C-3.58503906 246.326875 -4.18960938 245.935 -4.8125 245.53125 C-11.52648569 240.49915163 -14.60836978 233.53211818 -16.625 225.53125 C-17.03931252 221.8268201 -17.06977069 218.15865738 -17.05859375 214.43359375 C-17.0638356 213.39989151 -17.06907745 212.36618927 -17.07447815 211.30116272 C-17.0808662 209.12876275 -17.07960337 206.95632805 -17.07104492 204.78393555 C-17.06251474 201.47446906 -17.09137543 198.16671927 -17.12304688 194.85742188 C-17.12465874 192.73697968 -17.12408164 190.61653445 -17.12109375 188.49609375 C-17.13232773 187.51567612 -17.14356171 186.53525848 -17.15513611 185.52513123 C-17.08307395 178.37078648 -15.60666552 172.9865134 -10.87890625 167.5078125 C-10.04166016 166.83878906 -10.04166016 166.83878906 -9.1875 166.15625 C-8.63191406 165.69476563 -8.07632813 165.23328125 -7.50390625 164.7578125 C-2.08400847 161.21966717 2.88227453 161.22414497 9.1640625 161.23046875 C10.57442276 161.22404106 10.57442276 161.22404106 12.01327515 161.21748352 C13.99517004 161.21175384 15.97708596 161.2112299 17.95898438 161.21557617 C20.99645523 161.2187463 24.03296124 161.19522495 27.0703125 161.16992188 C28.9973946 161.16764982 30.92447933 161.16694495 32.8515625 161.16796875 C34.21566757 161.15415413 34.21566757 161.15415413 35.60733032 161.14006042 C36.87412125 161.14940361 36.87412125 161.14940361 38.16650391 161.15893555 C38.90865143 161.15830612 39.65079895 161.1576767 40.41543579 161.1570282 C42.92794718 161.6368474 43.80094791 162.55435364 45.375 164.53125 C46.11328125 166.6875 46.11328125 166.6875 46.6875 169.03125 C47.77910982 172.53918365 48.0388973 173.29971259 51.1875 175.46875 C53.35003613 176.18959538 55.51691259 176.89752385 57.6875 177.59375 C60.375 178.53125 60.375 178.53125 61.375 180.53125 C61.48422203 181.92266729 61.53396785 183.31901862 61.55200195 184.71459961 C61.57125481 186.01251686 61.57125481 186.01251686 61.59089661 187.33665466 C61.59828354 188.27614456 61.60567047 189.21563446 61.61328125 190.18359375 C61.621353 191.15349747 61.62942474 192.12340118 61.63774109 193.12269592 C61.65159439 195.18309742 61.66231095 197.24352198 61.67016602 199.30395508 C61.68726093 202.42510086 61.73112134 205.54515445 61.77539062 208.66601562 C61.95868565 231.83082722 61.95868565 231.83082722 53.875 241.53125 C53.02421875 242.583125 53.02421875 242.583125 52.15625 243.65625 C50.375 245.53125 50.375 245.53125 48.15625 246.78125 C46.19242153 248.34983194 46.19242153 248.34983194 46.12304688 250.49609375 C46.12481618 252.50956403 46.24325206 254.52209391 46.375 256.53125 C47.59574219 256.55703125 48.81648438 256.5828125 50.07421875 256.609375 C51.73701081 256.66574083 53.39976987 256.72308606 55.0625 256.78125 C55.85978516 256.79542969 56.65707031 256.80960938 57.47851562 256.82421875 C62.6942971 257.03037612 67.23205277 257.98281632 72.21411133 259.56933594 C73.37171463 259.93508728 74.52931793 260.30083862 75.72200012 260.67767334 C76.59749008 260.95935364 77.47298004 261.24103394 78.375 261.53125 C78.42161012 251.73350744 78.45701351 241.93579183 78.47862434 232.13796043 C78.4890033 227.58705059 78.50305312 223.03621734 78.52587891 218.48535156 C78.54781958 214.08274217 78.55961273 209.68020583 78.56475449 205.27754593 C78.56841256 203.60887123 78.57555415 201.94019993 78.58646011 200.27155685 C78.71537846 179.70405988 76.74819315 161.53462959 62.375 145.53125 C54.12024981 137.50655023 43.76447813 131.55196386 32.375 129.53125 C31.6428125 129.39847656 30.910625 129.26570312 30.15625 129.12890625 C12.79129451 126.62000846 -3.8073623 133.01928271 -16.625 144.53125 Z M254.375 160.53125 C254.375 171.09125 254.375 181.65125 254.375 192.53125 C262.18217911 192.78438245 262.18217911 192.78438245 268.375 189.53125 C270.63508902 185.350471 270.70907757 181.24155826 270.6875 176.59375 C270.70361328 175.90345703 270.71972656 175.21316406 270.73632812 174.50195312 C270.74081431 169.7690241 269.88415557 166.53741384 267.375 162.53125 C262.9513153 159.75064819 260.01375369 160.53125 254.375 160.53125 Z M0.375 179.53125 C-1.75109548 183.60910298 -1.88245274 187.14884371 -1.890625 191.703125 C-1.89253845 192.38497864 -1.8944519 193.06683228 -1.89642334 193.76934814 C-1.89777956 195.20821503 -1.89412255 196.64709438 -1.88574219 198.0859375 C-1.87510053 200.26070503 -1.88562171 202.43463405 -1.8984375 204.609375 C-1.9099483 215.02500908 -1.82204269 225.27264351 5.375 233.53125 C12.61935508 239.2333498 19.27341334 240.33024425 28.375 239.53125 C35.105437 237.75232978 39.40133727 233.03918807 43.375 227.53125 C47.10887929 220.40293499 46.74292382 211.82872285 46.9375 203.96875 C47.00001953 202.84533203 47.06253906 201.72191406 47.12695312 200.56445312 C47.1897 197.36436244 47.15526831 194.63771468 46.375 191.53125 C44.49772418 189.58548187 42.84295531 188.59061092 40.38598633 187.48681641 C35.86473373 185.33843925 33.46836073 180.91599207 31.375 176.53125 C27.33347085 176.44378072 23.29218695 176.39070018 19.25 176.34375 C18.10789063 176.31861328 16.96578125 176.29347656 15.7890625 176.26757812 C7.58401916 176.04244055 7.58401916 176.04244055 0.375 179.53125 Z M142.375 249.53125 C142.375 257.78125 142.375 266.03125 142.375 274.53125 C147.655 273.87125 152.935 273.21125 158.375 272.53125 C158.375 267.25125 158.375 261.97125 158.375 256.53125 C156.4775 255.7475 154.58 254.96375 152.625 254.15625 C149.13010363 252.71270585 145.76033492 251.22391746 142.375 249.53125 Z M14.375 256.53125 C14.2107309 264.31694784 14.2107309 264.31694784 17.375 270.53125 C20.21583641 271.95166821 22.22977278 271.84577272 25.375 271.53125 C28.22280619 269.29918569 29.22497666 267.98132001 30.375 264.53125 C30.375 261.89125 30.375 259.25125 30.375 256.53125 C25.095 256.53125 19.815 256.53125 14.375 256.53125 Z M174.375 256.53125 C174.30599044 262.11846854 174.24629878 267.70419817 174.21020508 273.29150391 C174.19515309 275.19064353 174.17470684 277.08974859 174.14868164 278.98876953 C174.11214008 281.72437081 174.09523762 284.459511 174.08203125 287.1953125 C174.06654739 288.03929596 174.05106354 288.88327942 174.03511047 289.75283813 C174.03369315 294.75913246 174.57285898 298.20124476 177.375 302.53125 C181.38513822 305.01167417 185.71922209 304.86507441 190.3125 304.84375 C191.34793945 304.86791992 191.34793945 304.86791992 192.40429688 304.89257812 C197.13046453 304.8970579 200.46005143 304.20928486 204.375 301.53125 C206.95226456 296.97773657 206.63201905 292.36900941 206.5703125 287.29296875 C206.56606766 285.97181816 206.56606766 285.97181816 206.56173706 284.62397766 C206.55057833 281.82209455 206.52548171 279.02053584 206.5 276.21875 C206.48996463 274.31445775 206.48083975 272.41016048 206.47265625 270.50585938 C206.45235809 265.84743194 206.41320143 261.18970238 206.375 256.53125 C195.815 256.53125 185.255 256.53125 174.375 256.53125 Z M-38 284.15625 C-43.1001212 289.68315958 -47.625 296.90683812 -47.625 304.53125 C-1.755 304.53125 44.115 304.53125 91.375 304.53125 C92.66126336 299.38619655 91.43428353 297.70313466 89.015625 293.19140625 C83.34030178 283.98927502 75.91543086 277.89933704 65.75 274.21875 C61.96081145 273.44687826 58.22303633 272.8655526 54.375 272.53125 C53.60542969 272.41910156 52.83585937 272.30695313 52.04296875 272.19140625 C49.59734175 271.96022758 47.75159842 271.89139658 45.375 272.53125 C43.69868178 274.36806677 42.68779438 276.21817844 41.55078125 278.42578125 C38.88743442 283.19503022 34.49139268 285.86714511 29.375 287.53125 C21.53943067 288.33633837 13.77284945 288.63465084 7.375 283.53125 C3.94052787 280.21228703 1.40528806 276.8574713 -0.625 272.53125 C-14.52187241 272.06802092 -27.41142859 274.49367533 -38 284.15625 Z M106.375 312.53125 C105.7459375 313.08039063 105.116875 313.62953125 104.46875 314.1953125 C87.17155603 330.15590512 79.38326479 353.62139276 78.375 376.53125 C78.20763727 383.36954552 78.25795239 390.211046 78.27734375 397.05078125 C78.27921281 399.00518253 78.28063441 400.95958429 78.28163147 402.91398621 C78.28541821 408.01511976 78.29521491 413.11622406 78.30633545 418.21734619 C78.31663296 423.43981531 78.32114682 428.66228924 78.32617188 433.88476562 C78.33684128 444.10027522 78.35440616 454.31575558 78.375 464.53125 C83.985 464.53125 89.595 464.53125 95.375 464.53125 C95.2925 462.22125 95.21 459.91125 95.125 457.53125 C95.04541391 450.19435803 95.90832526 445.18686672 101.0234375 439.79296875 C105.93951004 435.29551374 110.31304891 433.28418189 117.0610199 433.27296448 C118.76218964 433.26272247 118.76218964 433.26272247 120.49772644 433.25227356 C121.73267349 433.25482651 122.96762054 433.25737946 124.23999023 433.26000977 C126.24750122 433.25198671 128.2550122 433.24396123 130.26252282 433.23584449 C132.41559536 433.22899773 134.56862545 433.2269899 136.7217083 433.22628975 C141.21428561 433.22434564 145.70670941 433.20627407 150.19923401 433.18553162 C161.35730779 433.13639101 172.51542316 433.10546347 183.67358398 433.08422852 C192.34725334 433.06769728 201.02079075 433.04486373 209.69437176 433.00120777 C214.15772002 432.97945619 218.62081745 432.97137119 223.08421504 432.97360051 C226.51641985 432.97153898 229.94845958 432.95017559 233.38061523 432.93188477 C235.22999947 432.93875053 235.22999947 432.93875053 237.116745 432.945755 C245.18351564 432.93796239 245.18351564 432.93796239 252.375 429.53125 C255.14770212 425.23808189 254.63036975 420.23333633 254.5703125 415.29296875 C254.5674826 414.41220169 254.56465271 413.53143463 254.56173706 412.62397766 C254.55057833 409.82209455 254.52548171 407.02053584 254.5 404.21875 C254.48996463 402.31445775 254.48083975 400.41016048 254.47265625 398.50585938 C254.45065309 393.84753203 254.41615294 389.18944594 254.375 384.53125 C253.54355469 384.49386719 252.71210938 384.45648438 251.85546875 384.41796875 C250.76878906 384.35222656 249.68210937 384.28648437 248.5625 384.21875 C247.48355469 384.16074219 246.40460938 384.10273438 245.29296875 384.04296875 C242.18322922 383.49761951 241.19311431 383.05211893 239.375 380.53125 C238.9765625 378.59375 238.9765625 378.59375 239 376.53125 C238.99226562 375.850625 238.98453125 375.17 238.9765625 374.46875 C239.50756 371.8866445 240.28545795 371.13230376 242.375 369.53125 C244.97563171 369.13252258 244.97563171 369.13252258 248.1315918 369.09887695 C249.31258957 369.07908279 250.49358734 369.05928864 251.71037292 369.03889465 C253.62297661 369.02930977 253.62297661 369.02930977 255.57421875 369.01953125 C256.87954056 369.00158005 258.18486237 368.98362885 259.52973938 368.96513367 C262.99682596 368.91761947 266.46384741 368.88781978 269.93115234 368.86169434 C273.47050848 368.83189563 277.00964013 368.78536304 280.54882812 368.74023438 C287.49075758 368.65418555 294.43276174 368.58684746 301.375 368.53125 C301.23054235 366.94655934 301.08204852 365.36223631 300.93188477 363.77807617 C300.8496315 362.89576828 300.76737823 362.01346039 300.68263245 361.10441589 C298.68055986 344.35824702 289.50786975 328.7835125 278.375 316.53125 C277.82457031 315.89960938 277.27414062 315.26796875 276.70703125 314.6171875 C263.9376226 300.80730852 245.58764218 292.84077076 227.375 289.53125 C224.56720674 289.3987581 224.56720674 289.3987581 222.375 289.53125 C222.34921875 290.4490625 222.3234375 291.366875 222.296875 292.3125 C221.91639086 300.54479322 221.54048811 307.11840512 215.73046875 313.2734375 C208.59567022 319.77092287 202.02262305 319.90410359 192.61987305 319.90185547 C190.57840714 319.90621602 188.5391292 319.94253866 186.49804688 319.98046875 C177.89362286 320.00596334 172.04045541 319.55723179 165.3515625 313.78515625 C164.68253906 312.94791016 164.68253906 312.94791016 164 312.09375 C163.30777344 311.26037109 163.30777344 311.26037109 162.6015625 310.41015625 C159.60458501 305.81924488 159.05426943 301.64488812 158.75 296.21875 C158.63785156 294.33736328 158.63785156 294.33736328 158.5234375 292.41796875 C158.47445312 291.46535156 158.42546875 290.51273437 158.375 289.53125 C139.55745316 288.3645621 119.6698474 300.28359948 106.375 312.53125 Z M-10.625 352.53125 C-14.04216517 368.45276305 -14.04216517 368.45276305 -15.625 384.53125 C9.455 384.53125 34.535 384.53125 60.375 384.53125 C58.84820233 373.84366634 57.30626326 363.15319793 55.375 352.53125 C33.595 352.53125 11.815 352.53125 -10.625 352.53125 Z M270.375 384.53125 C270.34921875 387.83125 270.3234375 391.13125 270.296875 394.53125 C270.25840745 397.74503934 270.21326225 400.95867079 270.16748047 404.17236328 C270.13934228 406.39722086 270.11809235 408.62217707 270.10400391 410.84716797 C270.08247568 414.05487303 270.03577322 417.26140103 269.984375 420.46875 C269.98314636 421.45552734 269.98191772 422.44230469 269.98065186 423.45898438 C269.83042569 430.62319185 268.3676859 436.06321578 263.62890625 441.5546875 C263.07074219 442.00070312 262.51257813 442.44671875 261.9375 442.90625 C261.38191406 443.36773437 260.82632813 443.82921875 260.25390625 444.3046875 C256.15394276 446.98117094 252.54810643 447.78145801 247.6889801 447.78953552 C245.98781036 447.79977753 245.98781036 447.79977753 244.25227356 447.81022644 C243.01732651 447.80767349 241.78237946 447.80512054 240.51000977 447.80249023 C238.50249878 447.81051329 236.4949878 447.81853877 234.48747718 447.82665551 C232.33440464 447.83350227 230.18137455 447.8355101 228.0282917 447.83621025 C223.53571439 447.83815436 219.04329059 447.85622593 214.55076599 447.87696838 C203.39269221 447.92610899 192.23457684 447.95703653 181.07641602 447.97827148 C172.40274666 447.99480272 163.72920925 448.01763627 155.05562824 448.06129223 C150.59227998 448.08304381 146.12918255 448.09112881 141.66578496 448.08889949 C138.23358015 448.09096102 134.80154042 448.11232441 131.36938477 448.13061523 C129.52000053 448.12374947 129.52000053 448.12374947 127.633255 448.116745 C119.51307088 448.12615029 119.51307088 448.12615029 112.375 451.53125 C110.95458179 454.37208641 111.06047728 456.38602278 111.375 459.53125 C113.60706431 462.37905619 114.92492999 463.38122666 118.375 464.53125 C120.49810171 464.62731925 122.62414822 464.66190673 124.74942017 464.66496277 C125.39900173 464.66722833 126.04858329 464.66949388 126.71784914 464.67182809 C128.89866871 464.67816771 131.07942613 464.67733874 133.26025391 464.67651367 C134.8224292 464.67950531 136.38460376 464.68290785 137.94677734 464.68669128 C142.19500634 464.69553808 146.44321519 464.69786977 150.6914525 464.69850707 C153.34707251 464.69921755 156.00268739 464.70135189 158.65830612 464.70400429 C167.92764359 464.71326213 177.19696666 464.7173389 186.46630859 464.71655273 C195.09754402 464.71595282 203.72871678 464.72648663 212.35993636 464.7422964 C219.77494113 464.75539282 227.18992548 464.7607357 234.60494173 464.76009732 C239.03124274 464.75984282 243.45748815 464.76266726 247.88377762 464.77327538 C252.0517799 464.78299096 256.21967384 464.78301189 260.38768005 464.77575874 C261.91260818 464.77471698 263.43754316 464.77705143 264.96245956 464.7831192 C280.11848373 465.07052126 280.11848373 465.07052126 293.375 458.53125 C300.42347447 451.43206708 302.51114612 444.70783619 302.48852539 434.70947266 C302.48844986 433.58876373 302.48837433 432.46805481 302.48829651 431.31338501 C302.48313522 430.11942108 302.47797394 428.92545715 302.47265625 427.6953125 C302.4712413 426.46082367 302.46982635 425.22633484 302.46836853 423.95443726 C302.46278272 420.02168325 302.45023275 416.08898672 302.4375 412.15625 C302.43191912 409.48567792 302.42792058 406.81510637 302.42382812 404.14453125 C302.41366995 397.60673102 302.39409158 391.06905465 302.375 384.53125 C291.815 384.53125 281.255 384.53125 270.375 384.53125 Z M-59.9375 410.09375 C-61.85864337 412.35777461 -62.66330064 413.64615191 -63.625 416.53125 C-22.045 416.53125 19.535 416.53125 62.375 416.53125 C62.375 411.25125 62.375 405.97125 62.375 400.53125 C48.97053529 400.48484683 35.56608978 400.44934021 22.16156101 400.42762566 C15.93686136 400.41720217 9.71221679 400.40306908 3.48754883 400.38037109 C-2.52303164 400.35859169 -8.53355921 400.34667058 -14.5441761 400.34149551 C-16.83381037 400.33780892 -19.12344184 400.33060996 -21.41305351 400.31978989 C-24.6275641 400.30520736 -27.84185798 400.3032749 -31.05639648 400.30419922 C-31.99651581 400.29700867 -32.93663513 400.28981812 -33.90524292 400.28240967 C-44.52089311 400.31529728 -52.61817865 401.87252175 -59.9375 410.09375 Z M-145.625 432.53125 C-145.625 443.09125 -145.625 453.65125 -145.625 464.53125 C-76.985 464.53125 -8.345 464.53125 62.375 464.53125 C62.375 453.97125 62.375 443.41125 62.375 432.53125 C-6.265 432.53125 -74.905 432.53125 -145.625 432.53125 Z " fill="#9880CB" transform="translate(177.625,15.46875)"/>
<path d="M0 0 C0.69641602 -0.00700928 1.39283203 -0.01401855 2.11035156 -0.02124023 C4.40730932 -0.03881383 6.70303021 -0.02720107 9 -0.01367188 C10.59896073 -0.01636701 12.19791987 -0.0202496 13.796875 -0.02526855 C17.14599226 -0.03116269 20.49468243 -0.0226038 23.84375 -0.00390625 C28.13478591 0.01888377 32.42482111 0.00576017 36.71582031 -0.01819611 C40.01700366 -0.03265667 43.31795011 -0.02804703 46.61914062 -0.01768494 C48.20117308 -0.01501834 49.78322711 -0.0182851 51.36523438 -0.02760315 C53.57740163 -0.03777366 55.787953 -0.02226378 58 0 C59.8871875 0.00477356 59.8871875 0.00477356 61.8125 0.00964355 C65 0.51757812 65 0.51757812 67.40515137 2.20422363 C69.36145995 5.04188181 69.50637196 6.6194577 69.51757812 10.04882812 C69.53018677 11.15677734 69.54279541 12.26472656 69.55578613 13.40625 C69.54768921 14.59798828 69.53959229 15.78972656 69.53125 17.01757812 C69.53699036 18.85932617 69.53699036 18.85932617 69.54284668 20.73828125 C69.54556842 23.33399272 69.53818911 25.92973149 69.52148438 28.52539062 C69.50008075 32.50257412 69.52127963 36.47795094 69.546875 40.45507812 C69.54423177 42.97591545 69.53910691 45.49675166 69.53125 48.01757812 C69.53934692 49.20931641 69.54744385 50.40105469 69.55578613 51.62890625 C69.54317749 52.73685547 69.53056885 53.84480469 69.51757812 54.98632812 C69.51439575 55.96021484 69.51121338 56.93410156 69.50793457 57.9375 C68.83096096 61.37622009 67.86314465 62.50975853 65 64.51757812 C61.8125 65.0255127 61.8125 65.0255127 58 65.03515625 C57.30358398 65.04216553 56.60716797 65.0491748 55.88964844 65.05639648 C53.59269068 65.07397008 51.29696979 65.06235732 49 65.04882812 C47.40103927 65.05152326 45.80208013 65.05540585 44.203125 65.0604248 C40.85400774 65.06631894 37.50531757 65.05776005 34.15625 65.0390625 C29.86521409 65.01627248 25.57517889 65.02939608 21.28417969 65.05335236 C17.98299634 65.06781292 14.68204989 65.06320328 11.38085938 65.05284119 C9.79882692 65.05017459 8.21677289 65.05344135 6.63476562 65.0627594 C4.42259837 65.07292991 2.212047 65.05742003 0 65.03515625 C-1.258125 65.03197388 -2.51625 65.0287915 -3.8125 65.0255127 C-7 64.51757812 -7 64.51757812 -9.40515137 62.83093262 C-11.36145995 59.99327444 -11.50637196 58.41569855 -11.51757812 54.98632812 C-11.53018677 53.87837891 -11.54279541 52.77042969 -11.55578613 51.62890625 C-11.54768921 50.43716797 -11.53959229 49.24542969 -11.53125 48.01757812 C-11.5350769 46.78974609 -11.53890381 45.56191406 -11.54284668 44.296875 C-11.54556842 41.70116353 -11.53818911 39.10542476 -11.52148438 36.50976562 C-11.50008075 32.53258213 -11.52127963 28.55720531 -11.546875 24.58007812 C-11.54423177 22.0592408 -11.53910691 19.53840459 -11.53125 17.01757812 C-11.53934692 15.82583984 -11.54744385 14.63410156 -11.55578613 13.40625 C-11.54317749 12.29830078 -11.53056885 11.19035156 -11.51757812 10.04882812 C-11.51439575 9.07494141 -11.51121338 8.10105469 -11.50793457 7.09765625 C-10.22580835 0.58503433 -5.94519734 0.01503812 0 0 Z M5 16.51757812 C5 27.07757813 5 37.63757813 5 48.51757812 C20.84 48.51757812 36.68 48.51757812 53 48.51757812 C53 37.95757812 53 27.39757812 53 16.51757812 C37.16 16.51757812 21.32 16.51757812 5 16.51757812 Z " fill="#639AE6" transform="translate(331,351.482421875)"/>
<path d="M0 0 C5.82485779 3.51996782 10.54466582 8.98962934 12.5625 15.5 C13.36764105 23.33608208 13.68710392 31.11922577 8.5625 37.5 C3.75801361 42.54521222 -0.59927055 46.10562995 -7.70703125 46.8359375 C-16.22326573 46.92983204 -22.11345494 46.6177288 -28.40234375 40.62890625 C-34.7841668 33.72505269 -35.91792252 28.29832071 -35.7421875 18.9453125 C-35.04689797 11.08319245 -31.38995981 6.95041296 -25.53515625 1.9453125 C-18.47077988 -2.92213491 -7.84396301 -3.47595223 0 0 Z M-16.8125 17.125 C-18.92456506 20.21186432 -19.04945145 21.8282913 -18.4375 25.5 C-16.9375 28 -16.9375 28 -14.4375 29.5 C-10.7657913 30.11195145 -9.14936432 29.98706506 -6.0625 27.875 C-3.95043494 24.78813568 -3.82554855 23.1717087 -4.4375 19.5 C-5.9375 17 -5.9375 17 -8.4375 15.5 C-12.1092087 14.88804855 -13.72563568 15.01293494 -16.8125 17.125 Z " fill="#E85676" transform="translate(211.4375,41.5)"/>
<path d="M0 0 C3.20317598 2.1643081 3.98318067 3.95831731 5.4375 7.5625 C7.2257004 11.49654088 8.02460349 12.44441006 12 14 C18.40702572 15.50977438 24.79149806 15.25254312 31 13 C33.89211088 10.40451588 35.14804365 7.75867191 36.625 4.25 C38 1 38 1 40 0 C46.9769821 -0.56265985 46.9769821 -0.56265985 50.5 1.375 C52.87083406 5.5239596 52.6804072 9.34236722 52 14 C49.85382056 21.21319479 45.191055 25.59871938 38.8046875 29.2578125 C28.54788753 33.85568835 14.31373681 33.87298667 3.6875 30.375 C-3.13338593 27.31736148 -8.26629864 23.13755285 -11.33984375 16.21875 C-12.56025818 12.11700209 -12.71441388 8.21206518 -12 4 C-9.27390892 -0.77065938 -5.04514436 -1.00902887 0 0 Z " fill="#C66CD6" transform="translate(348,208)"/>
<path d="M0 0 C2.5 1.5 2.5 1.5 4 4 C4.791013 8.02098277 4.62153384 10.96411027 2.5 14.5 C-1.03588973 16.62153384 -3.97901723 16.791013 -8 16 C-10.5 14.5 -10.5 14.5 -12 12 C-12.791013 7.97901723 -12.62153384 5.03588973 -10.5 1.5 C-6.96411027 -0.62153384 -4.02098277 -0.791013 0 0 Z " fill="#CF66BE" transform="translate(396,176)"/>
<path d="M0 0 C2.5 1.5 2.5 1.5 4 4 C4.791013 8.02098277 4.62153384 10.96411027 2.5 14.5 C-1.03588973 16.62153384 -3.97901723 16.791013 -8 16 C-10.5 14.5 -10.5 14.5 -12 12 C-12.791013 7.97901723 -12.62153384 5.03588973 -10.5 1.5 C-6.96411027 -0.62153384 -4.02098277 -0.791013 0 0 Z " fill="#CF66BE" transform="translate(348,176)"/>
</svg>
